# Blender v2.83.1 OBJ File: 'thrue level three.blend'
# www.blender.org
mtllib aplayer.mtl
o aplayer_Cube.014
v -0.130689 1.062281 0.015361
v -0.024616 1.269970 0.161972
v 0.024371 0.956885 0.218817
v -0.051905 0.728262 0.084396
v -0.134102 1.318092 0.082453
v -0.034257 1.546892 0.100598
v -0.112995 1.095978 -0.050112
v 0.036537 1.141339 -0.086360
v -0.065693 1.334683 -0.095615
v 0.121968 1.102409 0.195882
v 0.158840 0.894302 0.105693
v 0.211964 0.937669 0.089026
v 0.058100 1.390562 0.145207
v 0.041569 1.574404 0.091005
v 0.181275 1.283009 0.119780
v 0.073514 1.483529 0.102831
v 0.155733 1.319599 -0.003907
v 0.029679 1.392665 -0.085042
v -0.157577 0.836003 0.083860
v -0.057219 0.712328 -0.052027
v 0.052583 0.636929 0.062892
v 0.062236 0.703301 -0.033683
v 0.148743 -0.032609 0.281417
v -0.131225 -0.033432 0.311611
v 0.069908 1.682690 -0.003763
v -0.111274 1.593173 0.113831
v -0.032930 1.701977 0.235596
v 0.107872 1.612773 0.095813
v 0.024111 1.498360 0.079677
v 0.004427 1.524075 0.025279
v -0.002148 1.775423 0.285398
v -0.002065 1.848063 0.110687
v 0.007694 1.783937 -0.003704
v -0.061103 1.767056 -0.004363
v 0.069854 1.812934 0.127007
v -0.069380 1.805105 0.139426
v 0.034373 1.673531 0.238264
v -0.188700 1.321209 0.063731
v -0.184573 1.332836 0.018135
v -0.100857 1.469659 0.058932
v -0.192914 1.060794 0.004253
v -0.159504 1.043356 -0.052921
v -0.119920 1.335790 -0.055746
v 0.264275 1.272954 0.093290
v 0.232356 1.209339 0.020241
v 0.166412 1.426096 0.083041
v 0.163665 0.888063 -0.013093
v 0.284814 0.969326 0.060849
v -0.123557 0.875789 -0.045301
v -0.094222 -0.013253 -0.013692
v 0.105489 -0.017355 -0.019617
v 0.100663 0.046932 0.028671
v -0.144401 0.048585 0.054252
v 0.153791 0.078145 0.050071
v -0.079145 0.054187 0.047667
v -0.075720 0.349538 0.003877
v 0.083863 0.342973 0.010086
v 0.076623 0.415418 0.068945
v 0.156316 0.415418 0.101046
v -0.150989 0.415418 0.092220
v -0.065525 0.415418 0.089195
vt 0.000000 0.000000
vt 0.000000 0.000000
vt 0.000000 0.000000
vt 0.000000 0.000000
vt 0.000000 0.000000
vt 0.000000 0.000000
vt 0.000000 0.000000
vt 0.000000 0.000000
vt 0.000000 0.000000
vt 0.000000 0.000000
vt 0.000000 0.000000
vt 0.000000 0.000000
vt 0.000000 0.000000
vt 0.000000 0.000000
vt 0.000000 0.000000
vt 0.000000 0.000000
vt 0.000000 0.000000
vt 0.000000 0.000000
vt 0.000000 0.000000
vt 0.406250 0.437500
vt 0.478027 0.512397
vt 0.508929 0.410714
vt 0.565719 0.340799
vt 0.566816 0.455429
vt 0.518854 0.401421
vt 0.601325 0.350951
vt 0.594298 0.278712
vt 0.624899 0.372258
vt 0.484368 0.340980
vt 0.557494 0.389326
vt 0.547616 0.338120
vt 0.457730 0.561860
vt 0.270646 0.523581
vt 0.216826 0.500000
vt 0.429275 0.579692
vt 0.125000 0.500000
vt 0.646575 0.564548
vt 0.827238 0.595474
vt 0.637003 0.513084
vt 0.570835 0.447317
vt 0.603059 0.383424
vt 0.000000 0.000000
vt 0.000000 0.000000
vt 0.000000 0.000000
vt 0.000000 0.000000
vt 0.000000 0.000000
vt 0.000000 0.000000
vt 0.000000 0.000000
vt 0.000000 0.000000
vt 0.000000 0.000000
vt 0.000000 0.000000
vt 0.000000 0.000000
vt 0.000000 0.000000
vt 0.758108 0.554913
vt 0.862418 0.500000
vt 0.483804 0.183509
vt 0.000000 0.000000
vt 0.000000 0.000000
vt 0.000000 0.000000
vt 0.000000 0.000000
vt 0.000000 0.000000
vt 0.000000 0.000000
vt 0.000000 0.000000
vt 0.000000 0.000000
vt 0.000000 0.000000
vt 0.000000 0.000000
vt 0.609520 0.157193
vt 0.721081 0.502189
vt 0.431794 0.481822
vt 0.000000 0.000000
vt 0.000000 0.000000
vt 0.000000 0.000000
vt 0.000000 0.000000
vt 0.000000 0.000000
vt 0.000000 0.000000
vt 0.000000 0.000000
vn 0.3383 -0.0647 0.9388
vn 0.5542 -0.2464 0.7951
vn 0.7763 -0.6273 -0.0624
vn 0.5107 0.2851 0.8111
vn -0.2438 -0.2306 0.9420
vn -0.0285 0.1743 0.9843
vn -0.1113 0.2113 0.9711
vn 0.7742 0.0124 0.6328
vn -0.7595 0.1176 0.6398
vn 0.7356 -0.4697 -0.4882
vn -0.8984 0.0843 0.4309
vn 0.4740 0.7847 -0.3995
vn 0.8929 0.1192 0.4341
vn -0.2349 -0.4762 0.8474
vn -0.2649 -0.6386 0.7225
vn -0.5929 -0.7895 -0.1587
vn 0.6312 -0.5405 0.5562
vn -0.6812 -0.2669 -0.6818
vn 0.7255 -0.4018 -0.5587
vn -0.0882 -0.1440 -0.9856
vn -0.5926 0.7696 -0.2378
vn -0.3819 -0.3704 0.8467
vn -0.5308 0.1657 0.8311
vn 0.5203 0.5082 -0.6863
vn 0.5072 -0.3410 0.7915
vn 0.4845 -0.2742 0.8307
vn 0.1427 -0.1099 -0.9836
vn 0.4440 0.3097 0.8408
vn 0.6243 -0.0571 -0.7791
vn 0.6465 0.6167 -0.4491
vn -0.2080 -0.4433 0.8719
vn 0.0181 0.2842 0.9586
vn 0.9974 -0.0520 -0.0506
vn 0.6494 -0.6344 0.4193
vn 0.8997 0.2719 -0.3414
vn -0.6325 -0.2044 0.7471
vn 0.1053 0.0081 -0.9944
vn 0.3954 0.2434 0.8857
vn 0.2338 0.0250 -0.9720
vn 0.5490 0.0194 -0.8356
vn -0.0400 0.1645 0.9856
vn -0.8016 -0.0368 -0.5968
vn 0.0230 0.0177 0.9996
vn -0.3915 0.8497 0.3531
vn 0.0082 0.0056 -1.0000
vn 0.7554 0.4644 -0.4623
vn 0.9014 0.1058 0.4200
vn -0.8798 0.1183 0.4604
vn -0.3966 0.6448 -0.6534
vn -0.5480 0.2444 0.8000
vn -0.2274 -0.0282 -0.9734
vn -0.4036 -0.2969 0.8654
vn -0.8312 -0.0683 -0.5518
vn 0.8109 -0.0088 -0.5851
vn -0.4030 -0.8929 -0.2008
vn -0.1906 -0.1472 -0.9706
vn -0.3295 0.6674 -0.6679
vn -0.9763 -0.1721 0.1316
vn -0.5747 0.7429 0.3431
vn -0.9724 0.2055 -0.1104
vn 0.9533 0.2143 -0.2130
vn -0.2030 0.8466 -0.4919
vn 0.3419 0.8677 0.3609
vn -0.2887 -0.6141 0.7345
vn -0.6388 0.5510 -0.5370
vn 0.6722 0.3873 -0.6310
vn 0.5336 -0.0264 -0.8453
vn -0.8709 -0.2071 -0.4458
vn 0.8721 0.1099 -0.4768
vn -0.8587 0.5098 0.0523
vn -0.9961 0.0347 -0.0813
vn -0.7939 0.0792 -0.6028
vn -0.0536 -0.0192 -0.9984
vn -0.3308 -0.0317 -0.9432
vn 0.3397 0.2668 0.9019
vn -0.3438 -0.1307 0.9299
vn -0.9976 -0.0589 -0.0371
vn 0.9221 -0.3565 -0.1506
vn -0.0508 0.9508 0.3056
vn -0.8343 -0.5362 -0.1282
vn 0.9514 -0.2945 0.0900
vn -0.9908 -0.0867 -0.1043
vn -0.3626 -0.0093 0.9319
vn 0.7444 0.0968 -0.6607
vn 0.0673 -0.1089 0.9918
vn -0.7529 0.0622 -0.6552
vn 0.9895 -0.0324 -0.1410
usemtl None
s off
f 15/1/1 12/2/1 48/3/1 44/4/1
f 10/5/2 3/6/2 11/7/2
f 12/2/3 22/8/3 47/9/3 48/3/3
f 13/10/4 16/11/4 14/12/4
f 1/13/5 5/14/5 38/15/5 41/16/5
f 2/17/6 3/6/6 10/5/6
f 13/10/7 6/18/7 2/17/7
f 12/2/8 15/1/8 10/5/8
f 2/17/9 1/13/9 19/19/9 3/6/9
f 29/20/10 30/21/10 28/22/10
f 31/23/11 36/24/11 27/25/11
f 32/26/12 35/27/12 33/28/12
f 37/29/13 35/27/13 31/30/13
f 31/30/14 27/31/14 37/29/14
f 26/32/15 29/33/15 37/34/15
f 29/33/16 26/32/16 30/35/16
f 37/34/17 29/33/17 28/36/17
f 26/32/18 34/37/18 30/35/18
f 28/22/19 30/21/19 25/38/19
f 34/37/20 25/38/20 30/21/20
f 34/39/21 36/40/21 32/41/21
f 19/19/22 4/42/22 3/6/22
f 6/18/23 5/14/23 2/17/23
f 17/43/24 16/11/24 46/44/24 45/45/24
f 3/6/25 21/46/25 11/7/25
f 11/7/26 12/2/26 10/5/26
f 20/47/27 8/48/27 22/8/27
f 13/10/28 15/1/28 16/11/28
f 8/48/29 17/43/29 22/8/29
f 16/11/30 17/43/30 18/49/30
f 4/42/31 21/46/31 3/6/31
f 13/10/32 14/12/32 6/18/32
f 56/50/33 20/47/33 4/42/33 61/51/33
f 11/7/34 22/8/34 12/2/34
f 14/12/35 16/11/35 18/49/35
f 1/13/36 2/17/36 5/14/36
f 8/48/37 9/52/37 18/49/37
f 13/10/38 10/5/38 15/1/38
f 22/8/39 17/43/39 45/45/39 47/9/39
f 17/43/40 8/48/40 18/49/40
f 2/17/41 10/5/41 13/10/41
f 60/53/42 19/19/42 20/47/42 56/50/42
f 61/51/43 4/42/43 19/19/43 60/53/43
f 36/40/44 31/23/44 32/26/44
f 33/54/45 25/38/45 34/37/45
f 35/55/46 25/38/46 33/54/46
f 28/56/47 35/27/47 37/29/47
f 27/25/48 36/24/48 26/32/48
f 6/18/49 9/52/49 43/57/49 40/58/49
f 5/14/50 6/18/50 40/58/50 38/15/50
f 7/59/51 8/48/51 20/47/51
f 20/47/52 1/13/52 41/16/52 49/60/52
f 20/47/53 19/19/53 1/13/53
f 57/61/54 22/8/54 11/7/54 59/62/54
f 4/42/55 20/47/55 22/8/55 21/46/55
f 8/48/56 7/59/56 9/52/56
f 14/12/57 18/49/57 9/52/57 6/18/57
f 52/63/58 51/64/58 23/65/58
f 54/66/59 52/63/59 23/65/59
f 34/37/60 26/32/60 36/24/60
f 35/27/61 28/56/61 25/67/61
f 34/37/62 32/68/62 33/54/62
f 32/26/63 31/23/63 35/27/63
f 27/25/64 26/69/64 37/29/64
f 40/58/65 43/57/65 39/70/65
f 45/45/66 46/44/66 44/4/66
f 45/45/67 48/3/67 47/9/67
f 41/16/68 42/71/68 49/60/68
f 48/3/69 45/45/69 44/4/69
f 40/58/70 39/70/70 38/15/70
f 41/16/71 38/15/71 39/70/71
f 39/70/72 43/57/72 42/71/72 41/16/72
f 7/59/73 20/47/73 49/60/73 42/71/73
f 9/52/74 7/59/74 42/71/74 43/57/74
f 16/11/75 15/1/75 44/4/75 46/44/75
f 59/62/76 58/72/76 52/63/76 54/66/76
f 58/72/77 57/61/77 51/64/77 52/63/77
f 23/65/78 51/64/78 54/66/78
f 24/73/79 55/74/79 53/75/79
f 24/73/80 53/75/80 50/76/80
f 24/73/81 50/76/81 55/74/81
f 21/46/82 22/8/82 57/61/82 58/72/82
f 11/7/83 21/46/83 58/72/83 59/62/83
f 51/64/84 57/61/84 59/62/84 54/66/84
f 55/74/85 61/51/85 60/53/85 53/75/85
f 53/75/86 60/53/86 56/50/86 50/76/86
f 50/76/87 56/50/87 61/51/87 55/74/87
