# Blender v2.83.1 OBJ File: 'thrue.blend'
# www.blender.org
mtllib chickencoopwood.mtl
o chickencoop.001_Cube.043
v 0.500208 0.003463 -0.500214
v -0.500208 0.003463 0.500214
v -0.500208 0.003463 -0.500214
v -0.000000 0.003463 -0.500214
v -0.000000 -0.195570 -0.500214
v 0.500208 0.003463 0.500214
v -0.000000 0.003463 0.500214
v -0.500208 -0.195570 0.500214
v -0.000000 -0.195570 0.500214
v -0.500208 -0.195570 -0.500214
v 0.500208 -0.195570 0.500214
v 0.500208 -0.195570 -0.500214
v 0.130772 -0.029106 0.782921
v 0.130772 -0.056468 0.831564
v -0.129028 0.102476 0.560161
v -0.129028 0.127722 0.515279
v 0.129028 0.127722 0.515279
v 0.129028 0.102476 0.560161
v -0.130773 -0.056468 0.831564
v -0.130773 -0.029106 0.782921
v -0.145218 0.063281 0.671192
v -0.145218 0.040874 0.711027
v 0.147682 0.040874 0.711027
v 0.147682 0.063281 0.671193
v -0.129028 0.164656 0.536054
v -0.129028 0.139409 0.580936
v 0.129028 0.139409 0.580936
v 0.129028 0.164656 0.536054
v 0.130773 -0.016439 0.854080
v 0.130772 0.010923 0.805437
v -0.130773 0.010923 0.805437
v -0.130773 -0.016439 0.854080
v -0.145218 0.058383 0.720876
v -0.145218 0.080790 0.681041
v 0.147682 0.080790 0.681042
v 0.147682 0.058383 0.720876
v 0.533170 0.421516 0.533169
v -0.000000 0.772432 0.533170
v 0.533170 0.421516 -0.533169
v -0.533170 0.421516 0.533170
v -0.533170 0.421516 -0.533169
v -0.000000 0.772432 -0.533169
v 0.533170 0.490825 0.533169
v -0.000000 0.841741 0.533170
v 0.533170 0.490825 -0.533169
v -0.533170 0.490825 0.533170
v -0.533170 0.490825 -0.533169
v -0.000000 0.841741 -0.533169
v -0.168189 -0.082569 0.951620
v -0.168189 -0.134597 0.922354
v -0.168189 0.189192 0.468488
v -0.168189 0.137164 0.439223
v 0.168189 -0.082569 0.951620
v 0.168189 -0.134597 0.922354
v 0.168189 0.189192 0.468488
v 0.168189 0.137164 0.439223
vt 0.375000 0.500000
vt 0.375000 0.375000
vt 0.500000 0.375000
vt 0.500000 0.500000
vt 0.375000 0.875000
vt 0.375000 0.750000
vt 0.500000 0.750000
vt 0.500000 0.875000
vt 0.375000 0.250000
vt 0.500000 0.250000
vt 0.500000 1.000000
vt 0.375000 1.000000
vt 0.375000 0.000000
vt 0.500000 0.000000
vt 0.127808 0.635658
vt 0.127808 0.614342
vt 0.127808 0.614342
vt 0.127808 0.635658
vt 0.127808 0.693193
vt 0.372192 0.693193
vt 0.372192 0.693193
vt 0.127808 0.693193
vt 0.372192 0.614342
vt 0.372192 0.635658
vt 0.372192 0.635658
vt 0.372192 0.614342
vt 0.127808 0.556807
vt 0.372192 0.556807
vt 0.372192 0.568193
vt 0.127808 0.568193
vt 0.127808 0.568193
vt 0.127808 0.556807
vt 0.127808 0.681807
vt 0.127808 0.681807
vt 0.372192 0.568193
vt 0.372192 0.681807
vt 0.372192 0.681807
vt 0.372192 0.556807
vt 0.750000 0.500000
vt 0.750000 0.750000
vt 0.875000 0.750000
vt 0.875000 0.500000
vt 0.750000 0.500000
vt 0.750000 0.750000
vt 0.625000 0.750000
vt 0.625000 0.500000
vt 0.875000 0.750000
vt 0.875000 0.500000
vt 0.625000 0.750000
vt 0.625000 0.500000
vt 0.375000 0.000000
vt 0.375000 0.250000
vt 0.625000 0.250000
vt 0.625000 0.000000
vt 0.375000 0.500000
vt 0.625000 0.500000
vt 0.375000 0.750000
vt 0.625000 0.750000
vt 0.375000 1.000000
vt 0.625000 1.000000
vt 0.125000 0.500000
vt 0.125000 0.750000
vt 0.875000 0.750000
vt 0.875000 0.500000
vn 0.0000 0.0000 -1.0000
vn -0.0000 0.0000 1.0000
vn -1.0000 0.0000 -0.0000
vn 1.0000 0.0000 0.0000
vn 0.0000 -0.4903 0.8716
vn -0.0000 0.8716 0.4903
vn -0.0000 0.4903 -0.8716
vn 0.5498 -0.8353 0.0000
vn 0.5498 0.8353 -0.0000
vn -0.5498 0.8353 0.0000
vn -0.5498 -0.8353 -0.0000
vn 0.0000 -0.8716 -0.4903
usemtl None
s off
f 12/1/1 5/2/1 4/3/1 1/4/1
f 9/5/2 11/6/2 6/7/2 7/8/2
f 5/2/1 10/9/1 3/10/1 4/3/1
f 2/11/2 8/12/2 9/5/2 7/8/2
f 10/9/3 8/13/3 2/14/3 3/10/3
f 12/1/4 1/4/4 6/7/4 11/6/4
f 33/15/3 34/16/3 21/17/3 22/18/3
f 29/19/5 32/20/5 19/21/5 14/22/5
f 35/23/4 36/24/4 23/25/4 24/26/4
f 28/27/6 25/28/6 26/29/6 27/30/6
f 27/30/4 18/31/4 17/32/4 28/27/4
f 23/25/5 36/24/5 33/15/5 22/18/5
f 29/19/4 14/22/4 13/33/4 30/34/4
f 15/35/5 18/31/5 27/30/5 26/29/5
f 30/34/7 13/33/7 20/36/7 31/37/7
f 32/20/3 31/37/3 20/36/3 19/21/3
f 26/29/3 25/28/3 16/38/3 15/35/3
f 35/23/7 24/26/7 21/17/7 34/16/7
f 33/15/6 36/24/6 35/23/6 34/16/6
f 28/27/7 17/32/7 16/38/7 25/28/7
f 30/34/6 31/37/6 32/20/6 29/19/6
f 42/39/8 38/40/8 40/41/8 41/42/8
f 48/43/9 44/44/9 43/45/9 45/46/9
f 46/47/10 44/44/10 48/43/10 47/48/10
f 37/49/4 39/50/4 45/46/4 43/45/4
f 42/39/1 41/42/1 47/48/1 48/43/1
f 40/41/3 46/47/3 47/48/3 41/42/3
f 40/41/2 38/40/2 44/44/2 46/47/2
f 38/40/2 37/49/2 43/45/2 44/44/2
f 39/50/1 42/39/1 48/43/1 45/46/1
f 39/50/11 37/49/11 38/40/11 42/39/11
f 49/51/3 51/52/3 52/53/3 50/54/3
f 51/52/7 55/55/7 56/56/7 52/53/7
f 55/55/4 53/57/4 54/58/4 56/56/4
f 53/57/5 49/59/5 50/60/5 54/58/5
f 51/61/6 49/62/6 53/57/6 55/55/6
f 56/56/12 54/58/12 50/63/12 52/64/12
