# Blender v2.83.1 OBJ File: 'thrue level three.blend'
# www.blender.org
mtllib chickencoop3.mtl
o chickenhead_Cube.028
v 0.107618 0.282962 0.068805
v -0.115234 0.282326 0.068794
v 0.107967 -0.066003 0.016776
v 0.113422 0.080347 -0.072101
v 0.140666 0.045784 0.143666
v -0.146496 0.042651 0.145445
v -0.117273 -0.054712 0.013995
v -0.080985 0.113674 -0.087267
v -0.053501 0.187026 -0.094944
v 0.018056 -0.161604 -0.024226
v -0.003955 0.057846 0.281717
v 0.113043 0.179097 -0.030370
v 0.140884 -0.029968 0.147746
v 0.083244 -0.065361 0.163398
v -0.016410 0.320561 0.064541
v -0.148629 -0.030487 0.150177
v -0.129142 -0.064605 0.079665
v 0.125932 -0.066836 0.081721
v 0.137288 0.156843 0.110047
v -0.082713 -0.064654 0.161027
v 0.061408 0.312021 0.059935
v -0.142279 0.154483 0.110228
v -0.109547 0.181084 -0.027503
v 0.053384 0.134644 -0.095790
v 0.009869 -0.148516 0.066123
v 0.072969 -0.147078 -0.001698
v -0.055614 -0.125895 -0.019886
v -0.166837 -0.032443 0.072374
v -0.154022 -0.037381 0.026621
v -0.116164 0.044450 -0.051456
v -0.066470 0.093960 0.274198
v 0.058129 0.094129 0.274360
v -0.005008 -0.017707 0.247832
v 0.159449 0.023080 0.051292
v 0.133458 -0.031473 0.001092
v 0.142796 0.045515 -0.031399
v 0.155543 -0.030271 0.072256
v 0.091174 -0.020969 0.217718
v -0.096622 -0.021443 0.217590
v -0.145707 0.090374 0.014767
v 0.054126 -0.126617 -0.057132
v -0.137862 -0.002251 -0.010414
v -0.069385 -0.125973 0.064789
v 0.081140 -0.130050 0.072375
v 0.085577 -0.042002 -0.050443
v 0.008025 0.290510 -0.001503
v 0.024819 -0.056926 -0.098737
v -0.015699 -0.111246 -0.073093
v 0.039185 0.043479 -0.101915
v -0.022096 0.063299 -0.103238
v 0.151303 0.096108 0.013210
v -0.004198 0.241716 0.230486
v 0.076321 0.263278 0.201049
v 0.075099 0.157917 0.247370
v -0.083127 0.157458 0.247369
v -0.083985 0.262181 0.201605
v 0.038642 0.215697 0.237329
v -0.046894 0.215575 0.237329
v -0.078099 0.236083 0.216680
v -0.004334 0.308305 0.181784
v -0.004185 0.206640 0.309502
v 0.102450 0.219543 0.197510
v 0.010540 0.324909 0.144928
v -0.018533 0.324857 0.144953
v -0.110151 0.218824 0.197486
v 0.069521 0.235630 0.216874
v 0.096640 0.238389 0.208792
v -0.104240 0.237843 0.205718
v 0.008367 0.320698 0.063545
v 0.058884 0.245493 -0.052368
v -0.005515 0.273872 -0.048516
v -0.069628 0.311826 0.059933
v -0.064922 0.252990 -0.050442
v 0.070375 0.283632 0.187072
v -0.078578 0.283381 0.187069
v -0.003323 0.339207 -0.018502
v -0.003660 0.396472 0.148209
v 0.014753 0.193491 0.256942
v -0.057571 0.094982 0.303606
v -0.004114 0.183586 0.275905
v 0.049260 0.095197 0.303610
v -0.004573 0.064862 0.310293
v -0.023275 0.193153 0.256686
vt 0.406250 0.437500
vt 0.531250 0.500000
vt 0.508929 0.410714
vt 0.375000 0.125000
vt 0.455357 0.303571
vt 0.437500 0.125000
vt 0.548961 0.437500
vt 0.562500 0.457282
vt 0.562500 0.500000
vt 0.562500 0.250000
vt 0.562500 0.292848
vt 0.548942 0.312500
vt 0.625000 0.562500
vt 0.633929 0.517857
vt 0.587712 0.375229
vt 0.604992 0.344412
vt 0.604484 0.375767
vt 0.563214 0.441096
vt 0.558034 0.405058
vt 0.565419 0.430131
vt 0.565419 0.430131
vt 0.578271 0.375167
vt 0.561446 0.431461
vt 0.578271 0.375167
vt 0.566015 0.306170
vt 0.545476 0.301240
vt 0.557900 0.345032
vt 0.551331 0.375078
vt 0.551103 0.375066
vt 0.565108 0.319885
vt 0.565108 0.319885
vt 0.577109 0.309206
vt 0.582477 0.312500
vt 0.570719 0.442375
vt 0.574154 0.440560
vt 0.564078 0.451906
vt 0.565697 0.297980
vt 0.524471 0.343750
vt 0.500712 0.375003
vt 0.500000 0.375000
vt 0.522430 0.341143
vt 0.625000 0.312500
vt 0.623929 0.345780
vt 0.604982 0.405458
vt 0.604982 0.405458
vt 0.778319 0.541865
vt 0.749874 0.560970
vt 0.778319 0.541865
vt 0.441784 0.562500
vt 0.498277 0.625000
vt 0.437500 0.625000
vt 0.187500 0.625000
vt 0.250000 0.625000
vt 0.281250 0.562500
vt 0.312500 0.625000
vt 0.375000 0.625000
vt 0.385072 0.624492
vt 0.565709 0.312500
vt 0.812500 0.562500
vt 0.582450 0.437500
vt 0.623578 0.404069
vt 0.625000 0.437500
vt 0.750537 0.541674
vt 0.778970 0.502466
vt 0.500000 0.187500
vt 0.540609 0.125000
vt 0.562500 0.187500
vt 0.375000 0.437500
vt 0.438825 0.375000
vt 0.437500 0.437500
vt 0.424763 0.250000
vt 0.437500 0.312500
vt 0.375000 0.312500
vt 0.522439 0.408856
vt 0.565924 0.437917
vt 0.547616 0.338120
vt 0.524480 0.406250
vt 0.562500 0.562500
vt 0.562500 0.625000
vt 0.125000 0.625000
vt 0.375000 0.375000
vt 0.625000 0.250000
vt 0.625000 0.500000
vt 0.375000 0.562500
vt 0.723751 0.540810
vt 0.721081 0.502189
vt 0.250000 0.500000
vt 0.312500 0.500000
vt 0.312500 0.562500
vt 0.250000 0.562500
vt 0.606010 0.150320
vt 0.625000 0.187500
vt 0.625000 0.375000
vt 0.604992 0.344412
vt 0.499138 0.623277
vt 0.812500 0.625000
vt 0.824360 0.587020
vt 0.812500 0.500000
vt 0.187500 0.500000
vt 0.187500 0.562500
vt 0.125000 0.562500
vt 0.125000 0.500000
vt 0.625000 0.562500
vt 0.687500 0.562500
vt 0.684944 0.625000
vt 0.625000 0.625000
vt 0.500000 0.500000
vt 0.428930 0.500000
vt 0.437500 0.187500
vt 0.500000 0.250000
vt 0.687500 0.500000
vt 0.875000 0.500000
vt 0.875000 0.562500
vt 0.438262 0.518111
vt 0.312500 0.625000
vt 0.375000 0.187500
vn 0.6387 -0.1782 -0.7485
vn 0.6161 -0.6541 -0.4388
vn -0.9146 -0.0807 0.3962
vn 0.9085 -0.0699 0.4120
vn 0.0108 -0.0332 -0.9994
vn 0.8893 0.1568 0.4296
vn -0.6080 0.3221 0.7257
vn -0.7819 -0.4750 0.4039
vn -0.4433 0.8193 0.3637
vn 0.5932 0.3306 0.7340
vn 0.7080 -0.5816 0.4006
vn 0.4403 0.8207 0.3642
vn -0.1945 0.5332 0.8234
vn 0.8226 0.4650 0.3272
vn 0.1869 0.5226 0.8318
vn -0.8824 0.3889 -0.2647
vn 0.2981 -0.4210 0.8567
vn 0.2139 0.4451 0.8696
vn -0.3277 0.4161 0.8482
vn 0.5063 -0.8388 0.2003
vn 0.2446 0.8433 0.4786
vn 0.1575 0.9860 -0.0552
vn -0.8927 0.1663 0.4189
vn 0.9438 0.1113 -0.3112
vn -0.9494 0.1404 -0.2811
vn 0.3923 -0.8116 -0.4329
vn -0.7794 -0.4884 -0.3923
vn -0.3994 -0.7621 -0.5095
vn -0.4861 -0.5182 -0.7037
vn 0.1958 0.5380 0.8199
vn 0.7614 0.4893 -0.4252
vn -0.5512 0.5629 0.6159
vn -0.1773 0.5214 0.8347
vn -0.3882 -0.2618 0.8836
vn 0.3494 0.8471 -0.4004
vn -0.2494 0.8437 0.4753
vn -0.1569 0.9860 -0.0568
vn 0.9763 0.1942 -0.0953
vn 0.9807 0.0075 -0.1955
vn -0.3520 -0.1718 -0.9201
vn -0.1570 -0.8030 0.5749
vn 0.5501 -0.6842 0.4788
vn 0.2550 0.4713 0.8443
vn -0.6993 -0.5901 0.4034
vn 0.7783 -0.4829 0.4013
vn 0.3177 0.2966 0.9006
vn -0.3174 0.2972 0.9005
vn 0.3513 0.3638 0.8627
vn 0.8710 0.4238 0.2486
vn -0.3494 0.3600 0.8651
vn 0.6349 0.2127 0.7427
vn -0.6351 0.2172 0.7413
vn -0.1092 0.3948 0.9123
vn 0.1106 0.3969 0.9112
vn -0.5058 -0.8417 0.1889
vn -0.9298 0.0211 -0.3674
vn -0.2605 0.4589 0.8494
vn 0.8709 -0.2889 -0.3975
vn 0.4926 0.8561 0.1564
vn -0.9205 0.3348 0.2015
vn -0.5545 -0.8169 -0.1592
vn -0.9864 0.0947 -0.1342
vn -0.1800 -0.8176 0.5469
vn 0.8813 0.1996 -0.4282
vn 0.9724 0.2246 -0.0628
vn -0.6411 -0.3165 -0.6991
vn 0.3707 0.0047 -0.9288
vn -0.7571 -0.6306 -0.1709
vn 0.1968 0.8594 -0.4719
vn -0.1620 0.5585 0.8135
vn 0.6593 -0.6620 0.3565
vn -0.7558 0.2474 -0.6063
vn -0.8277 -0.0126 0.5610
vn 0.9116 0.3531 0.2106
vn -0.9686 0.2389 -0.0692
vn 0.1516 0.3747 -0.9147
vn 0.9809 0.0096 0.1941
vn -0.9603 0.2055 -0.1885
vn 0.1646 -0.7754 0.6096
vn 0.2866 -0.3713 0.8832
vn -0.3554 -0.9344 0.0249
vn -0.4453 -0.1845 -0.8762
vn -0.8504 0.1305 -0.5096
vn 0.6882 -0.3069 -0.6573
vn 0.9574 0.2607 -0.1240
vn -0.2063 0.8791 -0.4296
vn 0.6838 0.5728 -0.4521
vn -0.1603 0.5328 -0.8309
vn -0.7355 0.5172 -0.4376
vn 0.5461 -0.1943 -0.8149
vn -0.2635 -0.0022 -0.9647
vn 0.1611 0.5571 0.8147
vn 0.0575 -0.5814 -0.8116
vn -0.6758 -0.4022 -0.6177
vn 0.8341 -0.0065 0.5516
vn 0.2112 -0.9614 0.1761
vn 0.1382 -0.8019 0.5813
vn 0.9864 0.1095 0.1227
vn 0.8786 -0.4644 -0.1111
vn 0.7870 -0.5971 0.1552
vn 0.9422 -0.2046 -0.2655
vn -0.9917 0.1224 0.0387
vn -0.2936 -0.3698 0.8815
vn -0.5662 -0.7585 0.3227
vn 0.8832 0.0909 0.4602
vn 0.0327 0.0695 -0.9970
vn 0.6021 0.2878 -0.7447
vn -0.6584 -0.7326 0.1725
vn -0.4979 0.8531 0.1558
vn -0.8898 0.0948 0.4464
vn -0.9730 0.0430 0.2266
vn 0.7339 -0.6446 -0.2142
vn -0.4670 -0.7543 0.4614
vn -0.8711 0.4233 0.2489
usemtl None
s off
f 41/1/1 47/2/1 45/3/1
f 3/4/2 45/5/2 35/6/2
f 55/7/3 65/8/3 22/9/3
f 19/10/4 62/11/4 54/12/4
f 47/2/5 50/13/5 49/14/5
f 60/15/6 63/16/6 77/17/6
f 59/18/7 65/8/7 55/7/7
f 83/19/8 61/20/8 58/21/8
f 52/22/9 58/23/9 61/24/9
f 66/25/10 54/26/10 62/11/10
f 78/27/11 61/28/11 80/29/11
f 57/30/12 52/22/12 61/31/12
f 52/22/13 59/18/13 58/23/13
f 53/32/14 62/11/14 74/33/14
f 56/34/15 59/18/15 75/35/15
f 68/36/16 75/35/16 65/8/16
f 66/25/17 62/11/17 67/37/17
f 66/25/18 67/37/18 53/32/18
f 59/18/19 56/34/19 68/36/19
f 81/38/20 82/39/20 11/40/20 32/41/20
f 63/16/21 60/15/21 74/33/21
f 63/16/22 21/42/22 69/43/22
f 64/44/23 60/15/23 77/45/23
f 46/46/24 71/47/24 76/48/24
f 28/49/25 42/50/25 29/51/25
f 26/52/26 10/53/26 41/54/26
f 27/55/27 7/56/27 42/50/27
f 10/53/28 27/55/28 48/57/28
f 7/56/29 29/51/29 42/50/29
f 52/22/30 57/30/30 66/58/30
f 53/32/31 67/37/31 62/11/31
f 68/36/32 56/34/32 75/35/32
f 53/32/33 74/33/33 66/25/33
f 59/18/34 68/36/34 65/8/34
f 46/46/35 70/59/35 71/47/35
f 64/44/36 75/60/36 60/15/36
f 64/44/37 15/61/37 72/62/37
f 76/63/38 69/64/38 46/46/38
f 34/65/39 36/66/39 51/67/39
f 47/2/40 48/57/40 50/13/40
f 20/68/41 33/69/41 39/70/41
f 13/71/42 38/72/42 14/73/42
f 57/30/43 78/27/43 66/58/43
f 83/19/44 80/29/44 61/20/44
f 78/27/45 57/30/45 61/28/45
f 78/27/46 32/41/46 54/12/46
f 83/19/47 55/7/47 31/74/47
f 54/12/48 66/58/48 78/27/48
f 78/27/49 81/38/49 32/41/49
f 83/19/50 59/75/50 55/7/50
f 82/76/51 78/27/51 80/29/51
f 82/39/52 80/29/52 83/19/52
f 78/27/53 82/76/53 81/38/53
f 79/77/54 82/39/54 83/19/54
f 79/77/55 31/74/55 11/40/55 82/39/55
f 40/78/56 30/79/56 42/50/56 28/49/56
f 58/21/57 59/75/57 83/19/57
f 45/5/58 3/80/58 26/52/58 41/81/58
f 74/33/59 1/82/59 21/42/59 63/16/59
f 65/8/60 75/60/60 2/83/60 22/9/60
f 17/84/61 28/49/61 29/51/61 7/56/61
f 76/85/62 71/47/62 15/86/62
f 33/87/63 20/88/63 43/89/63 25/90/63
f 4/91/64 12/92/64 51/67/64 36/66/64
f 76/93/65 77/94/65 63/16/65 69/43/65
f 30/79/66 48/57/66 42/95/66
f 49/14/67 24/96/67 4/97/67
f 43/89/68 17/84/68 7/56/68 27/55/68
f 46/46/69 69/64/69 21/98/69 70/59/69
f 52/22/70 60/15/70 75/60/70 59/18/70
f 14/99/71 44/100/71 18/101/71 13/102/71
f 23/103/72 73/104/72 9/105/72 8/106/72
f 39/70/73 31/74/73 6/107/73 16/108/73
f 62/11/74 19/10/74 1/82/74 74/33/74
f 64/44/75 77/17/75 76/93/75 15/61/75
f 70/59/76 24/96/76 9/105/76 71/47/76
f 37/109/77 34/65/77 5/110/77 13/71/77
f 22/9/78 2/83/78 23/103/78 40/78/78
f 33/69/79 14/73/79 38/72/79
f 32/41/80 11/40/80 33/69/80 38/72/80
f 25/90/81 43/89/81 27/55/81 10/53/81
f 48/57/82 30/79/82 8/106/82 50/13/82
f 8/106/83 30/79/83 40/78/83 23/103/83
f 36/66/84 35/6/84 45/5/84 4/91/84
f 12/92/85 1/82/85 19/10/85 51/67/85
f 71/47/86 73/104/86 72/111/86 15/86/86
f 1/112/87 12/113/87 70/59/87 21/98/87
f 9/105/88 73/104/88 71/47/88
f 2/83/89 72/111/89 73/104/89 23/103/89
f 45/3/90 47/2/90 49/14/90 4/97/90
f 9/105/91 50/13/91 8/106/91
f 52/22/92 66/58/92 74/33/92 60/15/92
f 48/114/93 47/2/93 41/115/93 10/53/93
f 48/57/94 27/55/94 42/95/94
f 5/110/95 32/41/95 38/72/95 13/71/95
f 25/90/96 10/53/96 26/52/96 44/100/96
f 33/87/97 25/90/97 44/100/97 14/99/97
f 51/67/98 19/10/98 5/110/98 34/65/98
f 44/100/99 26/52/99 3/80/99 18/101/99
f 13/71/100 18/116/100 37/109/100
f 35/6/101 36/66/101 34/65/101 37/109/101
f 6/107/102 22/9/102 40/78/102 28/49/102
f 33/69/103 11/40/103 31/74/103 39/70/103
f 17/84/104 43/89/104 20/88/104 16/108/104
f 5/110/105 19/10/105 54/12/105 32/41/105
f 50/13/106 9/105/106 24/96/106 49/14/106
f 12/113/107 4/97/107 24/96/107 70/59/107
f 28/49/108 17/84/108 16/108/108
f 72/62/109 2/83/109 75/60/109 64/44/109
f 55/7/110 22/9/110 6/107/110 31/74/110
f 28/49/111 16/108/111 6/107/111
f 35/6/112 37/109/112 18/116/112 3/4/112
f 16/108/113 20/68/113 39/70/113
f 83/19/114 31/74/114 79/77/114
