# Blender v2.83.1 OBJ File: 'thrue level three.blend'
# www.blender.org
mtllib fridge.mtl
o fridge_Cube.008
v -0.391739 -0.007624 0.388974
v -0.391739 1.928039 0.388974
v -0.391739 -0.007624 -0.388974
v -0.391739 1.928039 -0.388974
v 0.391739 -0.007624 0.388974
v 0.391739 1.928039 0.388974
v 0.391739 -0.007624 -0.388974
v 0.391739 1.928039 -0.388974
v -0.391739 -0.007624 0.000000
v -0.391739 1.928039 0.000000
v 0.000000 -0.007624 -0.388974
v 0.000000 1.928039 -0.388974
v 0.391739 -0.007624 0.000000
v 0.391739 1.928039 0.000000
v 0.000000 -0.007624 0.388974
v 0.000000 1.928039 0.388974
v 0.000000 1.928039 0.000000
v 0.000000 -0.007624 0.000000
v -0.391739 1.281028 0.388974
v -0.391739 1.234198 0.388974
v -0.391739 1.257613 0.369515
v -0.391739 1.234198 -0.388974
v -0.391739 1.281028 -0.388974
v -0.391739 1.257613 -0.388974
v 0.391739 1.234198 -0.388974
v 0.391739 1.281028 -0.388974
v 0.391739 1.257613 -0.388974
v 0.391739 1.234198 0.388974
v 0.391739 1.281028 0.388974
v 0.391739 1.257613 0.369515
v 0.000000 1.234198 0.388974
v 0.000000 1.281028 0.388974
v 0.000000 1.257613 0.369515
v 0.391739 1.234198 0.000000
v 0.391739 1.281028 0.000000
v 0.391739 1.257613 0.000000
v 0.000000 1.234198 -0.388974
v 0.000000 1.281028 -0.388974
v 0.000000 1.257613 -0.388974
v -0.391739 1.234198 0.000000
v -0.391739 1.281028 0.000000
v -0.391739 1.257613 0.000000
vt 0.375000 0.375000
vt 0.497687 0.375000
vt 0.497687 0.500000
vt 0.375000 0.500000
vt 0.375000 0.625000
vt 0.497687 0.625000
vt 0.497687 0.750000
vt 0.375000 0.750000
vt 0.375000 0.000000
vt 0.497687 0.000000
vt 0.497687 0.125000
vt 0.375000 0.125000
vt 0.250000 0.625000
vt 0.250000 0.750000
vt 0.750000 0.625000
vt 0.875000 0.625000
vt 0.875000 0.750000
vt 0.750000 0.750000
vt 0.625000 0.625000
vt 0.625000 0.750000
vt 0.625000 0.500000
vt 0.750000 0.500000
vt 0.875000 0.500000
vt 0.125000 0.625000
vt 0.125000 0.750000
vt 0.125000 0.500000
vt 0.250000 0.500000
vt 0.504366 0.875000
vt 0.625000 0.875000
vt 0.625000 1.000000
vt 0.504366 1.000000
vt 0.504366 0.625000
vt 0.504366 0.750000
vt 0.497687 0.875000
vt 0.375000 0.875000
vt 0.504366 0.375000
vt 0.625000 0.375000
vt 0.504366 0.500000
vt 0.504366 0.125000
vt 0.625000 0.125000
vt 0.625000 0.250000
vt 0.504366 0.250000
vt 0.375000 0.250000
vt 0.497687 0.250000
vt 0.497687 1.000000
vt 0.375000 1.000000
vt 0.500000 1.000000
vt 0.500000 0.875000
vt 0.500000 0.750000
vt 0.500000 0.625000
vt 0.500000 0.500000
vt 0.500000 0.375000
vt 0.500000 0.250000
vt 0.500000 0.125000
vt 0.504366 0.000000
vt 0.500000 0.000000
vt 0.625000 0.000000
vn 0.0000 0.0000 -1.0000
vn 1.0000 0.0000 0.0000
vn -1.0000 0.0000 0.0000
vn 0.0000 -1.0000 0.0000
vn 0.0000 1.0000 0.0000
vn 0.0000 0.0000 1.0000
vn 0.0000 -0.6392 0.7691
vn 0.0000 0.6392 0.7691
usemtl None
s off
f 11/1/1 37/2/1 25/3/1 7/4/1
f 13/5/2 34/6/2 28/7/2 5/8/2
f 1/9/3 20/10/3 40/11/3 9/12/3
f 18/13/4 13/5/4 5/8/4 15/14/4
f 17/15/5 10/16/5 2/17/5 16/18/5
f 14/19/5 17/15/5 16/18/5 6/20/5
f 8/21/5 12/22/5 17/15/5 14/19/5
f 12/22/5 4/23/5 10/16/5 17/15/5
f 9/24/4 18/13/4 15/14/4 1/25/4
f 3/26/4 11/27/4 18/13/4 9/24/4
f 11/27/4 7/4/4 13/5/4 18/13/4
f 32/28/6 16/29/6 2/30/6 19/31/6
f 35/32/2 14/19/2 6/20/2 29/33/2
f 5/8/6 28/7/6 31/34/6 15/35/6
f 29/33/6 6/20/6 16/29/6 32/28/6
f 38/36/1 12/37/1 8/21/1 26/38/1
f 7/4/2 25/3/2 34/6/2 13/5/2
f 26/38/2 8/21/2 14/19/2 35/32/2
f 41/39/3 10/40/3 4/41/3 23/42/3
f 3/43/1 22/44/1 37/2/1 11/1/1
f 23/42/1 4/41/1 12/37/1 38/36/1
f 9/12/3 40/11/3 22/44/3 3/43/3
f 15/35/6 31/34/6 20/45/6 1/46/6
f 32/28/7 19/31/7 21/47/7 33/48/7
f 33/48/8 21/47/8 20/45/8 31/34/8
f 29/33/7 32/28/7 33/48/7 30/49/7
f 30/49/8 33/48/8 31/34/8 28/7/8
f 35/32/2 29/33/2 30/49/2 36/50/2
f 36/50/2 30/49/2 28/7/2 34/6/2
f 26/38/2 35/32/2 36/50/2 27/51/2
f 27/51/2 36/50/2 34/6/2 25/3/2
f 38/36/1 26/38/1 27/51/1 39/52/1
f 39/52/1 27/51/1 25/3/1 37/2/1
f 23/42/1 38/36/1 39/52/1 24/53/1
f 24/53/1 39/52/1 37/2/1 22/44/1
f 41/39/3 23/42/3 24/53/3 42/54/3
f 42/54/3 24/53/3 22/44/3 40/11/3
f 19/55/3 41/39/3 42/54/3 21/56/3
f 21/56/3 42/54/3 40/11/3 20/10/3
f 19/55/3 2/57/3 10/40/3 41/39/3
