# Blender v2.83.1 OBJ File: 'thrue level three.blend'
# www.blender.org
mtllib levelthreew.mtl
o house_wireframe_Cube.006
v -20.944387 3.361606 -16.479380
v -16.776152 6.513152 -16.479380
v -15.898194 6.513152 -16.479380
v -20.932501 3.360712 -7.556341
v -16.776152 6.513152 -7.556341
v -15.898194 6.513152 -7.556341
vt 0.625000 0.250000
vt 0.625000 0.250000
vt 0.625000 0.250000
vt 0.625000 0.272014
vt 0.625000 0.250000
vt 0.625000 0.250000
vn 0.0000 1.0000 0.0000
vn -0.6031 0.7977 0.0000
vn -0.6043 0.7968 0.0009
usemtl None
s off
f 2/1/1 6/2/1 3/3/1
f 1/4/2 5/5/2 2/1/2
f 2/1/1 5/5/1 6/2/1
f 1/4/3 4/6/3 5/5/3
