# Blender v2.83.1 OBJ File: 'thrue level three.blend'
# www.blender.org
mtllib levelthreeg.mtl
o level_scene.001_Plane.012
v 4.785145 0.000000 26.166641
v 4.785145 0.000000 -40.833229
v 4.785145 0.000000 -2.729593
v -9.997265 0.000000 26.166641
v 4.785145 0.000000 -17.391724
v 4.785145 0.000000 11.384232
v -9.997265 0.000000 -33.140144
v -9.997265 0.000000 2.762794
v -9.997265 0.000000 11.384232
v -9.997265 0.000000 -18.180584
v -23.029186 3.321666 2.296818
v -23.963871 0.000000 -21.973114
v -19.758522 0.000000 20.784397
v -28.016672 0.000000 -27.649448
v -21.302126 3.321666 13.292870
v -24.340994 0.000000 -6.292889
v -31.718367 3.321666 6.648659
v -33.339073 1.039212 -12.977705
v -26.704702 0.000000 20.331192
v -36.389496 2.607826 -18.386574
v -29.022068 0.000000 15.531288
v -33.134426 3.321666 -3.885038
v -36.676590 0.000000 11.863270
v -50.943661 3.326545 2.066177
v -29.919548 0.000000 20.183186
v -46.263103 0.000000 -18.428207
v -32.239807 0.000000 16.418804
v -38.281570 0.000000 7.393074
v 18.464142 -4.686909 10.499779
v 23.199249 0.000000 -11.438253
v 25.379669 0.000000 -40.833229
v 20.221809 -4.686909 1.266876
v 28.107773 -4.686909 2.803650
v 33.519524 -4.686909 -9.686699
v 37.259514 -4.686909 -28.405159
v -113.474030 0.000000 -39.037838
v 4.785252 0.000000 -157.297119
v 4.785252 0.000000 -60.323380
v -54.344391 0.000000 -39.037842
v 4.785252 0.000000 -97.552490
v -24.779570 0.000000 -39.037842
v 4.785252 0.000000 -127.117310
v -83.909210 0.000000 -39.037842
v 4.785252 0.000000 -67.987663
v -113.474030 0.000000 -53.820244
v -17.115276 0.000000 -39.037865
v 4.785252 0.000000 -141.899719
v -69.126801 0.000000 -39.037842
v 4.785252 0.000000 -82.770081
v -9.997158 0.000000 -98.167488
v -39.561977 0.000000 -39.037842
v 4.785252 0.000000 -112.334908
v -9.997162 0.000000 -157.297119
v -98.691620 0.000000 -39.037838
v 4.785252 0.000000 -51.010620
v -54.344391 0.000000 -53.820251
v -83.909210 0.000000 -53.820251
v -9.997158 0.000000 -127.732300
v -9.997154 0.000000 -67.513863
v -24.779570 0.000000 -53.820255
v -39.561977 0.000000 -53.820251
v -9.997158 0.000000 -82.296257
v -9.997158 0.000000 -141.242676
v -98.691620 0.000000 -53.820251
v -69.126801 0.000000 -53.820251
v -9.997158 0.000000 -112.949898
v -17.115301 0.000000 -53.820236
v -89.604202 0.000000 -66.852173
v -9.997154 0.000000 -60.938354
v -111.496155 0.000000 -51.301346
v -65.334274 0.000000 -67.786850
v -108.091789 0.000000 -63.581505
v -43.375736 0.000000 -68.398117
v -53.964687 0.000000 -67.811783
v -100.600250 0.000000 -65.125107
v -77.403549 0.000000 -67.723618
v -33.273720 0.000000 -69.948410
v -39.538902 -3.854021 -109.619148
v -22.700693 0.000000 -150.454773
v -29.468861 0.967438 -128.801025
v -36.262108 0.000000 -81.209404
v -36.850784 0.148648 -91.761765
v -22.712391 7.779735 -135.847137
v -35.588764 -0.270011 -120.184425
v -94.914642 0.000000 -77.196106
v -74.966858 0.000000 -78.989761
v -103.780350 0.078447 -72.286423
v -57.235413 0.000000 -78.644104
v -64.228630 0.000000 -77.319489
v -83.422348 0.000000 -76.957413
v -53.301903 0.000000 -82.216476
v -52.739716 2.459757 -109.250359
v -27.276756 0.000000 -138.822296
v -37.432182 9.974401 -125.112625
v -54.885757 0.000000 -90.185272
v -56.539562 0.000000 -99.959457
v -30.377659 11.323525 -132.334534
v -43.440968 6.851567 -116.719162
v -63.299976 0.000000 -82.955391
v -68.846153 0.000000 -81.257614
v -86.203270 0.000000 -80.455849
v -61.053268 0.000000 -86.954391
v -61.287704 0.000000 -111.700310
v -35.359062 0.000000 -135.262482
v -47.453087 0.000000 -127.597679
v -62.266457 0.000000 -93.974716
v -63.463417 0.000000 -102.763519
v -38.999378 0.000000 -130.724579
v -56.964973 6.001891 -117.110825
v -97.807159 6.526289 -25.358841
v 16.142792 -2.829239 -138.445908
v 15.826126 -2.829239 -87.026985
v 21.299789 -1.923398 -114.591576
v -75.869125 6.526289 -20.623737
v 17.454464 0.000000 -62.051697
v 15.926922 -2.829239 -127.687881
v -60.653412 6.526289 -18.443317
v 16.348804 0.000000 -74.434494
v -35.853981 0.000000 -27.176086
v 21.670670 -1.923398 -101.008240
v -88.574257 6.526289 -23.601177
v -90.111031 6.526289 -15.715216
v 24.452965 0.000000 -127.981377
v 25.376099 0.000000 -51.010620
v 27.933258 -2.829239 -92.711296
v 29.517220 -1.923398 -105.291275
v -66.560684 6.526289 -8.871855
v 32.973640 -2.829239 -67.882339
v 29.170967 -1.923398 -118.629196
v -55.097511 6.526289 -7.197594
v 29.830719 -2.829239 -79.506996
v -82.846786 6.526289 -12.115549
v 32.424599 0.000000 -57.746460
v 4.785145 -3.537941 -40.833229
v 25.379669 -3.537941 -40.833229
v 4.785252 -3.537941 -51.010620
v 25.376099 -3.537941 -51.010620
v -14.681900 0.000000 -167.007294
v -34.540298 0.000000 -161.187073
v -45.930527 0.000000 -153.472748
v -49.924335 0.000000 -148.294556
v -59.292694 0.000000 -137.733734
v -55.183014 0.000000 -146.056458
v -57.870232 6.046794 -123.778191
v -31.812559 0.347347 -168.188995
v -42.632118 0.000000 -163.912750
v -49.422783 0.000000 -157.050171
v -55.034958 0.000000 -154.171783
v -64.062607 0.000000 -142.588837
v -58.675274 0.000000 -149.633881
v -64.520309 6.046794 -133.327484
vt 0.125000 0.875000
vt 0.125000 0.875000
vt 0.250000 0.875000
vt 1.000000 0.625000
vt 1.000000 0.500000
vt 1.000000 0.500000
vt 1.000000 0.625000
vt 0.250000 1.000000
vt 0.375000 1.000000
vt 0.250000 1.000000
vt 0.125000 1.000000
vt 1.000000 0.375000
vt 1.000000 0.250000
vt 1.000000 0.375000
vt 0.875000 0.250000
vt 0.875000 0.375000
vt 0.875000 0.250000
vt 0.250000 0.875000
vt 0.125000 0.875000
vt 0.875000 0.375000
vt 0.875000 0.375000
vt 0.875000 0.500000
vt 0.625000 0.875000
vt 0.625000 0.875000
vt 0.750000 0.875000
vt 0.875000 0.000000
vt 0.875000 0.000000
vt 0.891725 0.016725
vt 0.875000 0.375000
vt 0.875000 0.500000
vt 0.875000 0.375000
vt 0.875000 0.000000
vt 0.875000 0.000000
vt 0.875000 0.125000
vt 0.875000 0.125000
vt 0.875000 0.125000
vt 0.875000 0.000000
vt 0.875000 0.250000
vt 0.875000 0.125000
vt 0.875000 0.000000
vt 0.625000 1.000000
vt 0.625000 1.000000
vt 0.500000 1.000000
vt 0.500000 1.000000
vt 0.500000 0.875000
vt 0.375000 0.875000
vt 0.500000 0.875000
vt 0.875000 0.500000
vt 1.000000 0.859375
vt 1.000000 0.812500
vt 0.875000 0.625000
vt 0.875000 0.250000
vt 0.875000 0.375000
vt 0.875000 0.500000
vt 0.000000 1.000000
vt 0.125000 1.000000
vt 1.000000 0.125000
vt 1.000000 0.000000
vt 1.000000 0.125000
vt 1.000000 0.250000
vt 1.000000 0.250000
vt 1.000000 0.375000
vt 0.500000 0.875000
vt 0.875000 0.250000
vt 0.875000 0.250000
vt 0.875000 0.125000
vt 0.875000 0.750000
vt 0.812500 0.875000
vt 0.750000 0.875000
vt 0.625000 0.875000
vt 0.750000 0.875000
vt 0.875000 0.500000
vt 0.875000 0.625000
vt 1.000000 0.125000
vt 1.000000 0.250000
vt 1.000000 0.125000
vt 1.000000 0.000000
vt 0.875000 0.625000
vt 0.875000 0.750000
vt 0.750000 1.000000
vt 0.750000 1.000000
vt 0.875000 0.812500
vt 0.875000 1.000000
vt 0.812500 1.000000
vt 0.812500 1.000000
vt 0.875000 0.500000
vt 0.875000 0.125000
vt 1.000000 0.500000
vt 0.750000 1.000000
vt 0.875000 0.250000
vt 0.500000 1.000000
vt 0.375000 1.000000
vt 1.000000 0.125000
vt 0.500000 0.875000
vt 0.625000 0.875000
vt 0.250000 0.875000
vt 0.375000 0.875000
vt 0.875000 0.375000
vt 0.875000 0.625000
vt 0.750000 0.875000
vt 0.812500 0.875000
vt 0.875000 0.125000
vt 0.375000 1.000000
vt 0.250000 1.000000
vt 0.375000 0.875000
vt 0.125000 1.000000
vt 0.000000 1.000000
vt 0.812500 0.875000
vt 0.875000 0.812500
vt 1.000000 0.250000
vt 1.000000 0.375000
vt 1.000000 0.375000
vt 1.000000 0.250000
vt 0.000000 0.875000
vt 0.000000 0.875000
vt 0.000000 0.875000
vt 0.125000 0.875000
vt 0.875000 0.375000
vt 0.250000 0.875000
vt 0.375000 0.875000
vt 0.812500 0.875000
vt 0.875000 0.750000
vt 0.875000 0.625000
vt 0.000000 1.000000
vt 0.875000 0.812500
vt 0.875000 0.750000
vt 0.625000 1.000000
vt 0.875000 0.625000
vt 0.891725 0.016725
vt 0.812500 1.000000
vt 1.000000 0.125000
vt 1.000000 0.000000
vt 0.875000 0.812500
vt 1.000000 0.750000
vt 0.875000 0.625000
vt 1.000000 0.500000
vt 1.000000 0.375000
vt 0.875000 0.500000
vt 1.000000 0.000000
vt 1.000000 0.000000
vt 0.000000 0.875000
vt 1.000000 0.000000
vt 0.875000 1.000000
vt 0.812500 1.000000
vt 1.000000 0.375000
vt 1.000000 0.500000
vt 0.250000 0.875000
vt 0.375000 0.875000
vt 0.000000 0.875000
vt 0.000000 0.875000
vt 0.250000 0.875000
vt 0.375000 0.875000
vt 0.125000 0.875000
vt 0.000000 0.875000
vt 0.000000 0.875000
vt 0.125000 0.875000
vt 0.000000 0.875000
vt 0.000000 0.875000
vt 0.000000 0.875000
vt 0.000000 0.875000
vn 0.5124 0.3172 0.7980
vn 0.0000 1.0000 0.0000
vn 0.1627 0.9846 -0.0634
vn 0.0226 0.9503 -0.3104
vn 0.2411 0.8922 -0.3818
vn 0.2899 0.8760 0.3856
vn -0.0081 1.0000 0.0014
vn 0.1093 0.9389 0.3264
vn -0.1744 0.9354 0.3076
vn -0.1210 0.9743 0.1897
vn 0.0021 0.9999 0.0100
vn 0.0615 0.9915 -0.1145
vn 0.3082 0.6013 0.7372
vn 0.2437 0.9699 0.0021
vn 0.0297 0.9135 -0.4057
vn -0.0452 0.9762 -0.2120
vn 0.0047 1.0000 0.0022
vn 0.3042 0.9523 0.0229
vn 0.1799 0.9832 -0.0318
vn -0.0803 0.9672 -0.2410
vn 0.1950 0.9796 -0.0477
vn 0.0377 0.9366 -0.3484
vn 0.2620 0.9648 -0.0231
vn 0.6001 0.7999 0.0072
vn -0.1491 0.9386 0.3111
vn 0.1142 0.9935 -0.0015
vn -0.4320 0.8884 0.1551
vn -0.1808 0.9808 0.0731
vn 0.6906 0.3518 0.6319
vn 0.0394 0.9961 0.0790
vn -0.1149 0.9859 0.1215
vn -0.1412 0.9841 0.1081
vn 0.3642 0.9303 0.0448
vn 0.1755 0.9543 -0.2421
vn -0.6963 0.4507 -0.5586
vn -0.2998 0.5031 -0.8105
vn -0.0384 0.8519 -0.5224
vn 0.2417 0.9703 0.0000
vn 0.4079 0.8989 -0.1599
vn -0.3720 0.7549 0.5401
vn -0.0041 1.0000 0.0085
vn 0.0749 0.9918 -0.1039
vn 0.2446 0.9594 0.1403
vn 0.0422 0.9883 -0.1467
vn -0.3151 0.9490 -0.0063
vn 0.0036 1.0000 0.0055
vn -0.0172 0.9583 -0.2854
vn 0.2004 0.9490 0.2433
vn 0.1858 0.9802 0.0686
vn -0.0690 0.8951 0.4405
vn -0.2488 0.9454 -0.2103
vn 0.3169 0.8895 0.3291
vn 0.1127 0.9936 0.0027
vn 0.0837 0.9806 0.1771
vn 0.3241 0.9460 0.0000
vn -0.4453 0.8934 0.0599
vn 0.4049 0.8922 -0.2000
vn 0.1136 0.9760 -0.1857
vn 0.6570 0.4196 0.6264
vn 0.0055 0.9985 0.0542
vn 0.7007 0.5537 0.4498
vn 0.2070 0.9783 0.0058
vn -0.7674 0.5657 -0.3019
vn -0.3724 0.3825 -0.8456
vn -0.6829 0.4367 -0.5855
vn 0.2850 0.9281 -0.2394
vn 0.0000 0.9025 -0.4306
vn -0.2433 0.9257 -0.2895
vn 0.0000 0.0000 1.0000
vn 0.0000 0.0000 -1.0000
vn -0.1933 0.4474 -0.8732
vn -0.6637 0.7186 -0.2078
vn 0.3953 0.8690 -0.2975
vn 0.5193 0.7489 -0.4117
vn 0.0057 0.9986 0.0518
vn 0.2141 0.9727 0.0892
usemtl None
s off
f 83/1/1 97/2/1 80/3/1
f 51/4/2 39/5/2 26/6/2 119/7/2
f 42/8/3 52/9/3 113/10/3 116/11/3
f 48/12/4 114/13/4 117/14/4 39/5/4
f 8/15/5 16/16/5 11/17/5
f 58/18/6 63/19/6 83/1/6 80/3/6
f 90/20/2 76/21/2 86/22/2
f 82/23/7 96/24/7 95/25/7
f 72/26/2 45/27/2 70/28/2
f 22/29/8 24/30/8 28/31/8
f 19/32/9 13/33/9 15/34/9 21/35/9
f 21/35/2 27/36/2 25/37/2 19/32/2
f 15/34/10 11/17/10 17/38/10 21/35/10
f 75/39/11 87/40/11 72/26/11
f 118/41/12 131/42/12 125/43/12 112/44/12
f 78/45/13 98/46/13 92/47/13
f 12/48/2 7/49/2 46/50/2 14/51/2
f 76/21/2 57/52/2 65/53/2 71/54/2
f 111/55/14 47/56/14 42/8/14 116/11/14
f 54/57/15 110/58/15 121/59/15 43/60/15
f 117/14/2 127/61/2 130/62/2
f 50/63/16 78/45/16 82/23/16
f 75/39/17 68/64/17 85/65/17 87/66/17
f 73/67/2 77/68/2 81/69/2
f 62/70/2 81/69/2 77/68/2 59/71/2
f 71/54/2 65/53/2 56/72/2 74/73/2
f 32/74/18 3/75/18 6/76/18 29/77/18
f 89/78/2 71/54/2 74/73/2 88/79/2
f 115/80/19 128/81/19 131/42/19 118/41/19
f 91/82/2 74/73/2 73/67/2 81/69/2
f 55/83/2 124/84/2 115/80/2 38/85/2
f 22/29/20 18/86/20 24/30/20
f 78/45/21 92/47/21 96/24/21 82/23/21
f 43/60/22 121/59/22 114/13/22 48/12/22
f 9/87/23 8/15/23 11/17/23 15/34/23
f 26/6/24 130/62/24 24/88/24
f 44/89/2 38/85/2 115/80/2 118/41/2
f 21/35/25 17/38/25 23/90/25 27/36/25
f 52/9/26 40/91/26 120/92/26 113/10/26
f 17/38/27 28/31/27 23/90/27
f 117/14/2 114/13/2 132/93/2 127/61/2
f 92/47/28 103/94/28 107/95/28 96/24/28
f 94/96/29 84/97/29 80/3/29 97/2/29
f 16/16/2 8/15/2 10/98/2 12/48/2
f 56/72/2 61/99/2 73/67/2 74/73/2
f 95/25/2 96/24/2 106/100/2 102/101/2
f 64/102/2 57/52/2 68/64/2 75/39/2
f 125/103/30 126/104/30 120/92/30 112/44/30
f 57/52/2 76/21/2 68/64/2
f 50/63/31 66/105/31 84/97/31 78/45/31
f 116/11/32 113/10/32 129/106/32 123/107/32
f 59/71/2 77/68/2 69/108/2
f 113/10/2 120/92/2 126/104/2 129/106/2
f 69/108/2 77/68/2 67/109/2
f 34/110/33 35/111/33 31/112/33 30/113/33
f 63/19/34 53/114/34 79/115/34 83/1/34
f 97/2/35 104/116/35 108/117/35
f 90/20/2 86/22/2 101/118/2
f 94/96/36 108/117/36 105/119/36
f 72/26/2 70/28/2 64/102/2 75/39/2
f 98/46/37 105/119/37 109/120/37
f 95/25/2 102/101/2 91/121/2
f 89/78/2 99/122/2 100/123/2
f 47/56/38 111/55/38 37/124/38
f 39/5/39 117/14/39 26/6/39
f 77/125/2 73/67/2 61/99/2 60/126/2
f 92/47/40 109/120/40 103/94/40
f 91/82/2 88/79/2 74/73/2
f 82/23/41 95/25/41 91/121/41 81/69/41
f 49/127/42 44/89/42 118/41/42 112/44/42
f 20/128/43 24/30/43 18/86/43
f 4/129/2 9/87/2 13/33/2
f 124/84/44 133/130/44 128/81/44 115/80/44
f 116/11/45 123/107/45 111/55/45
f 62/70/46 50/63/46 82/23/46 81/69/46
f 14/51/47 119/7/47 20/128/47
f 34/131/48 30/113/48 32/74/48 33/132/48
f 88/79/2 91/82/2 102/133/2 99/122/2
f 40/91/49 49/127/49 112/44/49 120/92/49
f 51/4/2 119/7/2 14/51/2 41/134/2
f 92/47/50 98/46/50 109/120/50
f 20/128/51 26/135/51 24/30/51
f 71/54/2 89/78/2 86/22/2 76/21/2
f 31/112/2 2/136/2 5/137/2 30/113/2
f 10/98/2 7/138/2 12/48/2
f 9/87/52 15/34/52 13/33/52
f 16/16/53 12/48/53 18/86/53
f 30/113/54 5/137/54 3/75/54 32/74/54
f 6/76/55 1/139/55 29/77/55
f 32/74/2 29/77/2 33/132/2
f 85/65/2 68/64/2 90/20/2 101/118/2
f 121/59/2 122/140/2 132/93/2 114/13/2
f 17/38/56 22/29/56 28/31/56
f 26/6/57 117/14/57 130/62/57
f 11/17/58 16/16/58 22/29/58 17/38/58
f 94/96/59 98/46/59 84/97/59
f 66/105/60 58/18/60 80/3/60 84/97/60
f 60/126/2 67/109/2 77/125/2
f 78/45/61 84/97/61 98/46/61
f 14/51/62 20/128/62 18/86/62 12/48/62
f 83/1/63 79/115/63 93/141/63
f 68/64/2 76/21/2 90/20/2
f 96/24/2 107/95/2 106/100/2
f 97/2/64 93/141/64 104/116/64
f 94/96/65 97/2/65 108/117/65
f 86/22/2 89/78/2 100/123/2
f 89/78/2 88/79/2 99/122/2
f 22/29/66 16/16/66 18/86/66
f 54/57/67 36/142/67 110/58/67
f 121/59/2 110/58/2 122/140/2
f 46/50/2 41/134/2 14/51/2
f 119/7/68 26/6/68 20/128/68
f 124/84/69 55/83/69 136/143/69 137/144/69
f 2/136/70 31/112/70 135/145/70 134/146/70
f 83/1/71 93/141/71 97/2/71
f 94/96/72 105/119/72 98/46/72
f 109/120/73 105/119/73 142/147/73 144/148/73
f 79/115/2 53/114/2 138/149/2 139/150/2
f 144/148/74 142/147/74 149/151/74 151/152/74
f 143/153/2 141/154/2 148/155/2 150/156/2
f 139/150/75 138/149/75 145/157/75 146/158/75
f 141/154/2 140/159/2 147/160/2 148/155/2
f 142/147/2 143/153/2 150/156/2 149/151/2
f 140/159/2 139/150/2 146/158/2 147/160/2
f 31/112/76 35/111/76 133/130/76 124/84/76
o treeheads.001_Icosphere.004
v -17.156422 6.065825 19.456631
v -17.951323 5.845655 17.171906
v -16.455931 6.065823 17.270611
v -16.012054 6.065823 18.618088
v -17.041658 6.702147 17.881554
v -17.259254 4.188246 18.551254
v -17.146608 4.673838 19.468597
v -15.997644 4.673841 18.612461
v -16.878721 4.142558 18.249821
v -18.315897 4.673842 18.640427
v -17.372669 4.147302 18.040665
v -17.889585 4.673840 17.272449
v -16.456823 4.673840 17.255173
v -15.749469 5.429882 18.249821
v -16.725029 5.429882 19.592566
v -18.364775 5.839866 18.954372
v -18.573158 5.284924 18.249821
v -16.725029 5.429882 16.907076
v -16.702955 6.652612 18.582838
v -17.727880 6.652609 18.249821
v -30.163383 7.339376 -33.444267
v -32.355690 7.326294 -34.979362
v -31.715160 7.154083 -37.740063
v -28.899519 7.487391 -37.583530
v -28.027344 7.438936 -35.053730
v -30.007671 8.193976 -36.395607
v -30.323109 5.118304 -35.212166
v -30.101711 5.661374 -33.468861
v -27.957462 5.762080 -35.111610
v -29.612000 5.097516 -35.791500
v -32.328239 5.647359 -35.001511
v -30.549040 5.089988 -36.173504
v -31.560041 5.739394 -37.591496
v -28.858749 5.810297 -37.659531
v -27.522219 6.704391 -35.776066
v -29.326782 6.586831 -33.220058
v -31.652805 6.452248 -33.660717
v -32.842361 6.391701 -35.711067
v -29.396860 6.726624 -38.283779
v -29.349155 8.114312 -35.083324
v -31.290535 8.081568 -35.685894
v 6.683481 4.190271 -22.331135
v 5.636744 4.236079 -24.788773
v 7.023085 4.179310 -24.975975
v 7.814041 4.176192 -23.530155
v 6.189648 4.892207 -23.886486
v 6.314575 3.080355 -23.404285
v 6.428076 3.419947 -22.487659
v 7.579124 3.406698 -23.340889
v 6.695547 3.044120 -23.704662
v 5.035217 3.552837 -23.562416
v 6.202173 3.051404 -23.915077
v 5.690619 3.420351 -24.685669
v 7.123356 3.406946 -24.699329
v 5.218821 4.241197 -23.007351
v 6.886765 4.790184 -23.376350
vt 0.679375 0.157461
vt 0.636363 0.236191
vt 0.818181 0.236191
vt 0.861193 0.157461
vt 0.985060 0.289045
vt 0.315738 0.157461
vt 0.318592 0.288606
vt 0.454545 0.236191
vt 0.497556 0.157461
vt 0.864252 0.314921
vt 0.682434 0.314921
vt 0.727272 0.393651
vt 0.954545 0.393651
vt 0.106898 0.289045
vt 0.181818 0.393651
vt 0.500616 0.314921
vt 0.386671 0.432483
vt 0.590909 0.393651
vt 0.522419 0.432483
vt 0.318182 0.393651
vt 0.863635 0.393651
vt 0.909090 0.472382
vt 0.181818 0.236191
vt 0.133920 0.157461
vt 0.000000 0.157461
vt 0.500000 0.078731
vt 0.409090 0.078731
vt 0.283701 0.078731
vt 0.136363 0.078731
vt 0.045454 0.078731
vt 0.636363 0.078731
vt 0.863635 0.078731
vt 0.772726 0.078731
vt 0.679375 0.157461
vt 0.636363 0.236191
vt 0.818181 0.236191
vt 0.861193 0.157461
vt 0.954545 0.236191
vt 0.315738 0.157461
vt 0.318592 0.288606
vt 0.454545 0.236191
vt 0.497556 0.157461
vt 0.864252 0.314921
vt 0.682434 0.314921
vt 0.727272 0.393651
vt 1.000000 0.314921
vt 0.954545 0.393651
vt 0.136979 0.314921
vt 0.181818 0.393651
vt 0.500616 0.314921
vt 0.386671 0.432483
vt 0.590909 0.393651
vt 0.522419 0.432483
vt 0.318182 0.393651
vt 0.863635 0.393651
vt 0.909090 0.472382
vt 0.181818 0.236191
vt 0.133920 0.157461
vt 0.045454 0.236191
vt 0.000000 0.157461
vt 0.500000 0.078731
vt 0.409090 0.078731
vt 0.283701 0.078731
vt 0.136363 0.078731
vt 0.045454 0.078731
vt 0.636363 0.078731
vt 0.863635 0.078731
vt 0.772726 0.078731
vt 0.679375 0.157461
vt 0.658666 0.274305
vt 0.840484 0.274305
vt 0.861193 0.157461
vt 0.985060 0.289045
vt 0.315738 0.157461
vt 0.318592 0.288606
vt 0.476848 0.274305
vt 0.497556 0.157461
vt 0.727272 0.393651
vt 0.932540 0.431766
vt 0.106898 0.289045
vt 0.181818 0.393651
vt 0.351338 0.412450
vt 0.590909 0.393651
vt 0.522419 0.432483
vt 0.863635 0.393651
vt 0.155061 0.192210
vt 0.000000 0.157461
vt 0.500000 0.078731
vt 0.409090 0.078731
vt 0.283701 0.078731
vt 0.136363 0.078731
vt 0.045454 0.078731
vt 0.636363 0.078731
vt 0.863635 0.078731
vt 0.772726 0.078731
vn 0.8089 0.0164 0.5877
vn -0.3529 0.0435 0.9347
vn -0.2410 -0.0956 -0.9658
vn 0.8089 0.0164 -0.5877
vn 0.4741 0.5971 0.6470
vn -0.3665 0.7566 0.5415
vn -0.8469 0.4948 -0.1948
vn -0.0493 0.6678 -0.7427
vn 0.6391 0.7398 -0.2105
vn 0.5941 0.7701 -0.2325
vn -0.3353 0.7862 -0.5191
vn -0.0271 0.9961 0.0835
vn -0.1598 0.8559 0.4918
vn 0.8240 0.4974 -0.2714
vn 0.8090 -0.0063 -0.5878
vn -0.0167 0.5015 -0.8650
vn -0.8170 0.5452 -0.1877
vn -0.3743 -0.0560 0.9256
vn 0.5128 0.4974 0.6998
vn 0.8090 -0.0063 0.5878
vn -0.0109 -0.4214 -0.9068
vn -0.8417 -0.0900 -0.5324
vn -0.8215 -0.5095 -0.2560
vn -0.9137 -0.1410 0.3813
vn -0.5615 -0.2370 0.7928
vn 0.5419 -0.4214 0.7272
vn 0.8591 -0.4214 -0.2906
vn 0.1647 -0.8973 -0.4094
vn -0.0068 -0.8270 -0.5622
vn -0.5625 -0.8080 -0.1753
vn -0.4008 -0.9018 0.1614
vn -0.3348 -0.8152 0.4726
vn 0.5632 -0.8040 -0.1905
vn 0.2374 -0.8703 0.4315
vn 0.3257 -0.8384 0.4371
vn 0.8159 0.0303 0.5774
vn -0.1786 -0.1132 0.9774
vn -0.2488 -0.1281 -0.9601
vn 0.7996 0.0627 -0.5972
vn 0.3729 0.7535 0.5415
vn -0.3101 0.8450 0.4357
vn -0.6506 0.7335 -0.1967
vn -0.0672 0.8287 -0.5556
vn 0.4530 0.8805 -0.1393
vn 0.4108 0.8990 -0.1516
vn -0.2716 0.8970 -0.3488
vn -0.0421 0.9958 0.0816
vn -0.1304 0.9198 0.3701
vn 0.6866 0.6919 -0.2235
vn 0.8008 0.0273 -0.5984
vn -0.0417 0.6913 -0.7214
vn -0.7850 0.5797 -0.2183
vn -0.4572 0.6095 0.6477
vn -0.1900 0.0803 0.9785
vn 0.4311 0.6620 0.6131
vn 0.8170 -0.0052 0.5766
vn -0.0059 -0.5654 -0.8248
vn -0.8402 -0.1469 -0.5220
vn -0.6859 -0.6911 -0.2280
vn -0.8642 0.0588 0.4997
vn -0.8578 -0.1148 0.5010
vn -0.4178 -0.6706 0.6130
vn 0.5071 -0.5928 0.6256
vn 0.7774 -0.5604 -0.2856
vn 0.1324 -0.9427 -0.3063
vn 0.0131 -0.9055 -0.4240
vn -0.3819 -0.9127 -0.1457
vn -0.2457 -0.9655 0.0862
vn -0.2110 -0.9253 0.3151
vn 0.4260 -0.8891 -0.1675
vn 0.1920 -0.9436 0.2696
vn 0.2571 -0.9253 0.2788
vn 0.7262 -0.0531 0.6854
vn -0.4200 -0.0449 0.9064
vn -0.1380 -0.1332 -0.9814
vn 0.8758 -0.0580 -0.4792
vn 0.5350 0.6836 0.4964
vn -0.1779 0.8745 0.4512
vn -0.6421 0.7512 -0.1528
vn -0.0434 0.8205 -0.5700
vn 0.4996 0.8226 -0.2716
vn 0.3541 0.8833 -0.3072
vn -0.2073 0.8653 0.4563
vn -0.8893 0.4064 -0.2098
vn -0.0121 -0.3386 -0.9409
vn -0.8636 -0.1190 -0.4899
vn -0.5811 -0.4113 0.7023
vn 0.5577 -0.3389 0.7577
vn 0.8898 -0.3451 -0.2986
vn 0.1128 -0.9481 -0.2973
vn -0.0125 -0.9051 -0.4250
vn -0.4271 -0.8927 -0.1439
vn -0.3577 -0.9246 0.1311
vn -0.3620 -0.8586 0.3629
vn 0.4255 -0.8936 -0.1429
vn 0.1671 -0.9311 0.3243
vn 0.2370 -0.9124 0.3338
usemtl None
s off
f 159/161/77 165/162/77 166/163/77
f 158/164/78 166/163/78 167/165/78
f 163/166/79 153/167/79 169/168/79
f 164/169/80 169/168/80 165/162/80
f 152/170/81 155/171/81 170/172/81
f 167/165/82 152/170/82 171/173/82
f 153/167/83 167/174/83 171/175/83
f 154/176/84 153/167/84 156/177/84
f 155/171/85 154/176/85 170/178/85
f 170/178/86 154/176/86 156/179/86
f 156/177/87 153/167/87 171/180/87
f 171/173/88 170/181/88 156/182/88
f 171/173/89 152/170/89 170/181/89
f 165/162/90 154/176/90 155/171/90
f 165/162/91 169/168/91 154/176/91
f 169/168/92 153/167/92 154/176/92
f 168/183/93 167/174/93 153/167/93
f 167/165/94 166/163/94 152/170/94
f 166/163/95 155/171/95 152/170/95
f 166/163/96 165/162/96 155/171/96
f 164/169/97 163/166/97 169/168/97
f 153/167/98 163/166/98 168/183/98
f 163/166/99 161/184/99 168/183/99
f 168/183/100 161/184/100 167/174/100
f 161/184/101 158/185/101 167/174/101
f 158/164/102 159/161/102 166/163/102
f 159/161/103 164/169/103 165/162/103
f 160/186/104 162/187/104 164/169/104
f 162/187/105 163/166/105 164/169/105
f 162/188/106 161/184/106 163/166/106
f 162/189/107 157/190/107 161/184/107
f 157/190/108 158/185/108 161/184/108
f 159/161/109 160/191/109 164/169/109
f 157/192/110 160/193/110 158/164/110
f 160/193/111 159/161/111 158/164/111
f 180/194/112 186/195/112 187/196/112
f 179/197/113 187/196/113 188/198/113
f 184/199/114 174/200/114 190/201/114
f 185/202/115 190/201/115 186/195/115
f 172/203/116 176/204/116 191/205/116
f 173/206/117 172/203/117 192/207/117
f 174/200/118 173/208/118 192/209/118
f 175/210/119 174/200/119 177/211/119
f 176/204/120 175/210/120 191/212/120
f 191/212/121 175/210/121 177/213/121
f 177/211/122 174/200/122 192/214/122
f 192/207/123 191/215/123 177/216/123
f 192/207/124 172/203/124 191/215/124
f 186/195/125 175/210/125 176/204/125
f 186/195/126 190/201/126 175/210/126
f 190/201/127 174/200/127 175/210/127
f 189/217/128 173/208/128 174/200/128
f 188/198/129 172/203/129 173/206/129
f 188/198/130 187/196/130 172/203/130
f 187/196/131 176/204/131 172/203/131
f 187/196/132 186/195/132 176/204/132
f 185/202/133 184/199/133 190/201/133
f 174/200/134 184/199/134 189/217/134
f 184/199/135 182/218/135 189/217/135
f 189/217/136 188/219/136 173/208/136
f 189/217/137 182/218/137 188/219/137
f 182/218/138 179/220/138 188/219/138
f 179/197/139 180/194/139 187/196/139
f 180/194/140 185/202/140 186/195/140
f 181/221/141 183/222/141 185/202/141
f 183/222/142 184/199/142 185/202/142
f 183/223/143 182/218/143 184/199/143
f 183/224/144 178/225/144 182/218/144
f 178/225/145 179/220/145 182/218/145
f 180/194/146 181/226/146 185/202/146
f 178/227/147 181/228/147 179/197/147
f 181/228/148 180/194/148 179/197/148
f 200/229/149 196/230/149 193/231/149
f 199/232/150 193/231/150 206/233/150
f 204/234/151 194/235/151 195/236/151
f 205/237/152 195/236/152 196/230/152
f 193/231/153 196/230/153 207/238/153
f 206/233/154 193/231/154 197/239/154
f 194/235/155 206/240/155 197/241/155
f 195/236/156 194/235/156 197/242/156
f 196/230/157 195/236/157 207/243/157
f 207/243/158 195/236/158 197/244/158
f 197/239/159 193/231/159 207/245/159
f 202/246/160 206/240/160 194/235/160
f 205/237/161 204/234/161 195/236/161
f 194/235/162 204/234/162 202/246/162
f 202/246/163 199/247/163 206/240/163
f 199/232/164 200/229/164 193/231/164
f 200/229/165 205/237/165 196/230/165
f 201/248/166 203/249/166 205/237/166
f 203/249/167 204/234/167 205/237/167
f 203/250/168 202/246/168 204/234/168
f 203/251/169 198/252/169 202/246/169
f 198/252/170 199/247/170 202/246/170
f 200/229/171 201/253/171 205/237/171
f 198/254/172 201/255/172 199/232/172
f 201/255/173 200/229/173 199/232/173
