# Blender v2.83.1 OBJ File: 'thrue level two.blend'
# www.blender.org
mtllib leveltwo.mtl
o streetlamps_Cube.023
v -15.237617 1.642328 -9.811092
v -15.237617 -0.179446 -9.811092
v -15.338500 1.642328 -9.811092
v -15.338500 -0.179446 -9.811092
v -15.237617 1.642328 -9.902075
v -15.237617 -0.179446 -9.902075
v -15.338500 1.642328 -9.902075
v -15.338500 -0.179446 -9.902075
v -15.338500 1.782601 -9.811092
v -15.237617 1.782601 -9.811092
v -15.338500 1.782601 -9.902075
v -15.237617 1.782601 -9.902075
v -15.294743 1.703171 -8.907118
v -15.281375 1.703171 -8.907118
v -15.294743 1.721759 -8.907118
v -15.281375 1.721759 -8.907118
v -15.254436 1.665716 -10.285996
v -15.321681 1.665716 -10.285998
v -15.254436 1.759213 -10.285996
v -15.321681 1.759213 -10.285998
v 4.979441 1.642328 -9.811094
v 4.979441 -0.179446 -9.811094
v 4.878557 1.642328 -9.811094
v 4.878557 -0.179446 -9.811094
v 4.979441 1.642328 -9.902075
v 4.979441 -0.179446 -9.902075
v 4.878557 1.642328 -9.902075
v 4.878557 -0.179446 -9.902075
v 4.878557 1.782601 -9.811094
v 4.979441 1.782601 -9.811094
v 4.878557 1.782601 -9.902075
v 4.979441 1.782601 -9.902075
v 4.922315 1.703171 -8.907119
v 4.935683 1.703171 -8.907119
v 4.922315 1.721759 -8.907119
v 4.935683 1.721759 -8.907119
v 4.962620 1.665716 -10.285998
v 4.895379 1.665716 -10.285998
v 4.962620 1.759213 -10.285998
v 4.895379 1.759213 -10.285998
v 25.196499 1.642328 -9.811096
v 25.196499 -0.179446 -9.811096
v 25.095619 1.642328 -9.811096
v 25.095619 -0.179446 -9.811096
v 25.196499 1.642328 -9.902077
v 25.196499 -0.179446 -9.902077
v 25.095619 1.642328 -9.902077
v 25.095619 -0.179446 -9.902077
v 25.095619 1.782601 -9.811096
v 25.196499 1.782601 -9.811096
v 25.095619 1.782601 -9.902077
v 25.196499 1.782601 -9.902077
v 25.139374 1.703171 -8.907122
v 25.152740 1.703171 -8.907122
v 25.139374 1.721759 -8.907122
v 25.152740 1.721759 -8.907122
v 25.179680 1.665716 -10.285999
v 25.112434 1.665716 -10.285999
v 25.179680 1.759213 -10.285999
v 25.112434 1.759213 -10.285999
vt 0.375000 0.000000
vt 0.375000 0.250000
vt 0.625000 0.250000
vt 0.625000 0.000000
vt 0.375000 0.750000
vt 0.375000 0.750000
vt 0.375000 1.000000
vt 0.375000 1.000000
vt 0.375000 0.500000
vt 0.375000 0.750000
vt 0.625000 0.750000
vt 0.625000 0.500000
vt 0.625000 1.000000
vt 0.625000 0.750000
vt 0.125000 0.500000
vt 0.125000 0.750000
vt 0.375000 0.750000
vt 0.375000 0.500000
vt 0.625000 0.500000
vt 0.625000 0.750000
vt 0.875000 0.750000
vt 0.875000 0.500000
vt 0.375000 0.250000
vt 0.375000 0.500000
vt 0.625000 0.500000
vt 0.625000 0.250000
vt 0.375000 0.000000
vt 0.375000 0.250000
vt 0.375000 0.500000
vt 0.375000 0.750000
vt 0.125000 0.500000
vt 0.125000 0.750000
vt 0.375000 0.750000
vt 0.375000 1.000000
vt 0.375000 0.500000
vt 0.375000 0.500000
vt 0.375000 0.250000
vt 0.375000 0.500000
vt 0.125000 0.750000
vt 0.125000 0.750000
vt 0.375000 0.000000
vt 0.375000 0.250000
vt 0.125000 0.500000
vt 0.125000 0.500000
vt 0.625000 0.500000
vt 0.625000 0.250000
vt 0.375000 0.750000
vt 0.375000 0.750000
vt 0.375000 0.000000
vt 0.375000 0.250000
vt 0.625000 0.250000
vt 0.625000 0.000000
vt 0.375000 0.750000
vt 0.375000 0.750000
vt 0.375000 1.000000
vt 0.375000 1.000000
vt 0.375000 0.500000
vt 0.375000 0.750000
vt 0.625000 0.750000
vt 0.625000 0.500000
vt 0.625000 1.000000
vt 0.625000 0.750000
vt 0.125000 0.500000
vt 0.125000 0.750000
vt 0.375000 0.750000
vt 0.375000 0.500000
vt 0.625000 0.500000
vt 0.625000 0.750000
vt 0.875000 0.750000
vt 0.875000 0.500000
vt 0.375000 0.250000
vt 0.375000 0.500000
vt 0.625000 0.500000
vt 0.625000 0.250000
vt 0.375000 0.000000
vt 0.375000 0.250000
vt 0.375000 0.500000
vt 0.375000 0.750000
vt 0.125000 0.500000
vt 0.125000 0.750000
vt 0.375000 0.750000
vt 0.375000 1.000000
vt 0.375000 0.500000
vt 0.375000 0.500000
vt 0.375000 0.250000
vt 0.375000 0.500000
vt 0.125000 0.750000
vt 0.125000 0.750000
vt 0.375000 0.000000
vt 0.375000 0.250000
vt 0.125000 0.500000
vt 0.125000 0.500000
vt 0.625000 0.500000
vt 0.625000 0.250000
vt 0.375000 0.750000
vt 0.375000 0.750000
vt 0.375000 0.000000
vt 0.375000 0.250000
vt 0.625000 0.250000
vt 0.625000 0.000000
vt 0.375000 0.750000
vt 0.375000 0.750000
vt 0.375000 1.000000
vt 0.375000 1.000000
vt 0.375000 0.500000
vt 0.375000 0.750000
vt 0.625000 0.750000
vt 0.625000 0.500000
vt 0.625000 1.000000
vt 0.625000 0.750000
vt 0.125000 0.500000
vt 0.125000 0.750000
vt 0.375000 0.750000
vt 0.375000 0.500000
vt 0.625000 0.500000
vt 0.625000 0.750000
vt 0.875000 0.750000
vt 0.875000 0.500000
vt 0.375000 0.250000
vt 0.375000 0.500000
vt 0.625000 0.500000
vt 0.625000 0.250000
vt 0.375000 0.000000
vt 0.375000 0.250000
vt 0.375000 0.500000
vt 0.375000 0.750000
vt 0.125000 0.500000
vt 0.125000 0.750000
vt 0.375000 0.750000
vt 0.375000 1.000000
vt 0.375000 0.500000
vt 0.375000 0.500000
vt 0.375000 0.250000
vt 0.375000 0.500000
vt 0.125000 0.750000
vt 0.125000 0.750000
vt 0.375000 0.000000
vt 0.375000 0.250000
vt 0.125000 0.500000
vt 0.125000 0.500000
vt 0.625000 0.500000
vt 0.625000 0.250000
vt 0.375000 0.750000
vt 0.375000 0.750000
vn 0.0000 0.0000 -1.0000
vn 0.0000 -0.9977 0.0672
vn -1.0000 0.0000 0.0000
vn 0.0000 0.0000 1.0000
vn 1.0000 0.0000 0.0000
vn 0.0000 -1.0000 0.0000
vn 0.0000 1.0000 0.0000
vn 0.0000 -0.9981 -0.0608
vn -0.9988 0.0000 0.0483
vn 0.0000 0.9977 0.0672
vn 0.9988 0.0000 0.0483
vn 0.9990 0.0000 -0.0438
vn 0.0000 0.9981 -0.0608
vn -0.9990 0.0000 -0.0438
vn 0.9988 0.0000 0.0484
usemtl None
s off
f 7/1/1 5/2/1 6/3/1 8/4/1
f 1/5/2 14/6/2 13/7/2 3/8/2
f 3/9/3 7/10/3 8/11/3 4/12/3
f 1/5/4 3/8/4 4/13/4 2/14/4
f 5/15/5 1/16/5 2/17/5 6/18/5
f 8/19/6 6/20/6 2/21/6 4/22/6
f 9/23/7 10/24/7 12/25/7 11/26/7
f 7/1/8 18/27/8 17/28/8 5/2/8
f 3/9/3 9/29/3 11/30/3 7/10/3
f 5/15/5 12/31/5 10/32/5 1/16/5
f 14/6/4 16/33/4 15/34/4 13/7/4
f 3/9/9 13/35/9 15/36/9 9/29/9
f 9/23/10 15/37/10 16/38/10 10/24/10
f 10/32/11 16/39/11 14/40/11 1/16/11
f 18/27/1 20/41/1 19/42/1 17/28/1
f 5/15/12 17/43/12 19/44/12 12/31/12
f 12/25/13 19/45/13 20/46/13 11/26/13
f 11/30/14 20/47/14 18/48/14 7/10/14
f 27/49/1 25/50/1 26/51/1 28/52/1
f 21/53/2 34/54/2 33/55/2 23/56/2
f 23/57/3 27/58/3 28/59/3 24/60/3
f 21/53/4 23/56/4 24/61/4 22/62/4
f 25/63/5 21/64/5 22/65/5 26/66/5
f 28/67/6 26/68/6 22/69/6 24/70/6
f 29/71/7 30/72/7 32/73/7 31/74/7
f 27/49/8 38/75/8 37/76/8 25/50/8
f 23/57/3 29/77/3 31/78/3 27/58/3
f 25/63/5 32/79/5 30/80/5 21/64/5
f 34/54/4 36/81/4 35/82/4 33/55/4
f 23/57/9 33/83/9 35/84/9 29/77/9
f 29/71/10 35/85/10 36/86/10 30/72/10
f 30/80/11 36/87/11 34/88/11 21/64/11
f 38/75/1 40/89/1 39/90/1 37/76/1
f 25/63/12 37/91/12 39/92/12 32/79/12
f 32/73/13 39/93/13 40/94/13 31/74/13
f 31/78/14 40/95/14 38/96/14 27/58/14
f 47/97/1 45/98/1 46/99/1 48/100/1
f 41/101/2 54/102/2 53/103/2 43/104/2
f 43/105/3 47/106/3 48/107/3 44/108/3
f 41/101/4 43/104/4 44/109/4 42/110/4
f 45/111/5 41/112/5 42/113/5 46/114/5
f 48/115/6 46/116/6 42/117/6 44/118/6
f 49/119/7 50/120/7 52/121/7 51/122/7
f 47/97/8 58/123/8 57/124/8 45/98/8
f 43/105/3 49/125/3 51/126/3 47/106/3
f 45/111/5 52/127/5 50/128/5 41/112/5
f 54/102/4 56/129/4 55/130/4 53/103/4
f 43/105/9 53/131/9 55/132/9 49/125/9
f 49/119/10 55/133/10 56/134/10 50/120/10
f 50/128/15 56/135/15 54/136/15 41/112/15
f 58/123/1 60/137/1 59/138/1 57/124/1
f 45/111/12 57/139/12 59/140/12 52/127/12
f 52/121/13 59/141/13 60/142/13 51/122/13
f 51/126/14 60/143/14 58/144/14 47/106/14
o sign_stub_Cube.020
v -5.192625 -0.076015 -9.716364
v -5.330748 0.118965 -9.867136
v -5.058115 -0.076015 -9.716364
v -4.920001 0.118965 -9.867136
v -5.192625 -0.076015 -9.581854
v -5.330748 0.118965 -9.431082
v -5.058115 -0.076015 -9.581854
v -4.920001 0.118965 -9.431082
v -5.330748 0.455675 -9.867136
v -4.920001 0.455675 -9.867136
v -4.920001 0.455675 -9.431082
v -5.330748 0.455675 -9.431082
vt 0.375000 0.000000
vt 0.625000 0.000000
vt 0.625000 0.250000
vt 0.375000 0.250000
vt 0.625000 0.500000
vt 0.375000 0.500000
vt 0.625000 0.750000
vt 0.375000 0.750000
vt 0.625000 1.000000
vt 0.375000 1.000000
vt 0.125000 0.500000
vt 0.125000 0.750000
vt 0.625000 0.750000
vt 0.625000 1.000000
vt 0.625000 0.250000
vt 0.625000 0.500000
vn 0.0000 -0.6117 -0.7911
vn 0.8160 -0.5780 0.0000
vn 0.0000 -0.6117 0.7911
vn -0.8160 -0.5780 0.0000
vn 0.0000 -1.0000 0.0000
vn -1.0000 0.0000 0.0000
vn 1.0000 0.0000 0.0000
vn 0.0000 1.0000 0.0000
vn 0.0000 0.0000 -1.0000
vn 0.0000 0.0000 1.0000
usemtl None
s off
f 61/145/16 62/146/16 64/147/16 63/148/16
f 63/148/17 64/147/17 68/149/17 67/150/17
f 67/150/18 68/149/18 66/151/18 65/152/18
f 65/152/19 66/151/19 62/153/19 61/154/19
f 63/155/20 67/150/20 65/152/20 61/156/20
f 62/153/21 66/151/21 72/157/21 69/158/21
f 68/149/22 64/147/22 70/159/22 71/160/22
f 69/158/23 72/157/23 71/160/23 70/159/23
f 64/147/24 62/153/24 69/158/24 70/159/24
f 66/151/25 68/149/25 71/160/25 72/157/25
o path_Plane.002
v -5.106122 0.000000 -4.496129
v 16.147501 0.000000 -3.030607
v 26.245716 0.000000 -8.570442
v 3.069146 0.000000 -3.304496
v -15.466705 0.000000 -4.642611
v -16.570107 0.000000 -2.895967
vt 0.683251 0.529718
vt 0.425806 0.942929
vt 0.467166 0.509663
vt 0.672650 0.068569
vt 0.542576 0.496265
vt 0.434228 0.055424
vn 0.0000 1.0000 0.0000
usemtl None
s off
f 74/161/26 75/162/26 73/163/26
f 73/163/26 78/164/26 76/165/26
f 76/165/26 74/161/26 73/163/26
f 73/163/26 77/166/26 78/164/26
