# Blender v2.83.1 OBJ File: 'thrue level three.blend'
# www.blender.org
mtllib levelthreeg.mtl
o level_scene.001_Plane.012
v 4.785145 0.000000 26.166641
v 4.785145 0.000000 -40.833229
v 4.785145 0.000000 -2.729593
v -9.997265 0.000000 26.166641
v 4.785145 0.000000 -17.391724
v 4.785145 0.000000 11.384232
v -9.997265 0.000000 -33.140144
v -9.997265 0.000000 2.762794
v -9.997265 0.000000 11.384232
v -9.997265 0.000000 -18.180584
v -23.029186 3.321666 2.296818
v -23.963871 0.000000 -21.973114
v -19.758522 0.000000 20.784397
v -28.016672 0.000000 -27.649448
v -21.302126 3.321666 13.292870
v -24.340994 0.000000 -6.292889
v -31.718367 3.321666 6.648659
v -33.339073 1.039212 -12.977705
v -26.704702 0.000000 20.331192
v -36.389496 2.607826 -18.386574
v -29.022068 0.000000 15.531288
v -33.134426 3.321666 -3.885038
v -36.676590 0.000000 11.863270
v -50.943661 3.326545 2.066177
v -29.919548 0.000000 20.183186
v -46.263103 0.000000 -18.428207
v -32.239807 0.000000 16.418804
v -38.281570 0.000000 7.393074
v 18.464142 -4.686909 10.499779
v 23.199249 0.000000 -11.438253
v 25.379669 0.000000 -40.833229
v 20.221809 -4.686909 1.266876
v 28.107773 -4.686909 2.803650
v 35.331604 -4.686909 -14.912809
v 37.259514 -4.686909 -28.405159
v 31.707436 -4.686909 -4.460590
v -113.474030 0.000000 -39.037838
v 4.785252 0.000000 -157.297119
v 4.785252 0.000000 -60.323380
v -54.344391 0.000000 -39.037842
v 4.785252 0.000000 -97.552490
v -24.779570 0.000000 -39.037842
v 4.785252 0.000000 -127.117310
v -83.909210 0.000000 -39.037842
v 4.785252 0.000000 -67.987663
v -113.474030 0.000000 -53.820244
v -17.115276 0.000000 -39.037865
v 4.785252 0.000000 -141.899719
v -69.126801 0.000000 -39.037842
v 4.785252 0.000000 -82.770081
v -9.997158 0.000000 -98.167488
v -39.561977 0.000000 -39.037842
v 4.785252 0.000000 -112.334908
v -9.997162 0.000000 -157.297119
v -98.691620 0.000000 -39.037838
v 4.785252 0.000000 -51.010620
v -54.344391 0.000000 -53.820251
v -83.909210 0.000000 -53.820251
v -9.997158 0.000000 -127.732300
v -9.997154 0.000000 -67.513863
v -24.779570 0.000000 -53.820255
v -39.561977 0.000000 -53.820251
v -9.997158 0.000000 -82.296257
v -9.997158 0.000000 -141.242676
v -98.691620 0.000000 -53.820251
v -69.126801 0.000000 -53.820251
v -9.997158 0.000000 -112.949898
v -17.115301 0.000000 -53.820236
v -89.604202 0.000000 -66.852173
v -9.997154 0.000000 -60.938354
v -111.496155 0.000000 -51.301346
v -65.334274 0.000000 -67.786850
v -108.091789 0.000000 -63.581505
v -43.375736 0.000000 -68.398117
v -53.964687 0.000000 -67.811783
v -100.600250 0.000000 -65.125107
v -77.403549 0.000000 -67.723618
v -33.273720 0.000000 -69.948410
v -35.109695 1.881419 -106.297249
v -22.956223 10.949307 -145.003448
v -25.039656 6.702878 -125.479111
v -36.262108 0.000000 -81.209404
v -36.850784 0.148648 -91.761765
v -22.712391 7.779735 -135.847137
v -31.159557 5.465428 -116.862518
v -93.956047 0.000000 -75.541351
v -73.166489 0.000000 -77.134773
v -107.638580 0.000000 -70.527679
v -57.235413 0.000000 -78.644104
v -64.228630 0.000000 -77.319489
v -102.838669 0.000000 -72.845047
v -83.422348 0.000000 -76.957413
v -53.301903 0.000000 -82.216476
v -52.739716 2.459757 -109.250359
v -29.746889 11.604493 -138.140869
v -37.432182 9.974401 -125.112625
v -54.885757 0.000000 -90.185272
v -56.539562 0.000000 -99.959457
v -33.018147 11.323525 -132.845581
v -43.440968 6.851567 -116.719162
v -95.873245 0.000000 -78.850861
v -76.767242 0.000000 -80.844742
v -107.490570 0.000000 -73.742531
v -63.299976 0.000000 -82.955391
v -68.846153 0.000000 -81.257614
v -103.726189 0.000000 -76.062790
v -86.203270 0.000000 -80.455849
v -61.053268 0.000000 -86.954391
v -61.287704 0.000000 -111.700310
v -35.359062 12.598882 -135.262482
v -44.386711 10.292790 -123.679543
v -62.266457 0.000000 -93.974716
v -63.463417 0.000000 -102.763519
v -38.999378 12.175704 -130.724579
v -51.652309 6.046794 -116.367790
v -97.807159 6.526289 -25.358841
v 16.142792 -2.829239 -138.445908
v 15.826126 -2.829239 -87.026985
v 21.299789 -1.923398 -114.591576
v -75.869125 6.526289 -20.623737
v 17.454464 0.000000 -62.051697
v 15.926922 -2.829239 -127.687881
v -60.653412 6.526289 -18.443317
v 16.348804 0.000000 -74.434494
v -35.853981 0.000000 -27.176086
v 21.670670 -1.923398 -101.008240
v -88.574257 6.526289 -23.601177
v -90.111031 6.526289 -15.715216
v 24.452965 0.000000 -127.981377
v 25.376099 0.000000 -51.010620
v 25.049622 -2.829239 -84.602081
v 29.517220 -1.923398 -105.291275
v -66.560684 6.526289 -8.871855
v 30.316116 -2.829239 -64.509331
v 30.866547 -1.923398 -118.629196
v -55.097511 6.526289 -7.197594
v 27.173195 -2.829239 -76.133987
v 23.906250 -2.829239 -93.347137
v -82.846786 6.526289 -12.115549
v 38.455132 0.000000 -62.141594
v 4.785145 -3.537941 -40.833229
v 25.379669 -3.537941 -40.833229
v 4.785252 -3.537941 -51.010620
v 25.376099 -3.537941 -51.010620
vt 0.125000 0.875000
vt 0.000000 0.875000
vt 0.125000 0.875000
vt 0.250000 0.875000
vt 1.000000 0.625000
vt 1.000000 0.500000
vt 1.000000 0.500000
vt 1.000000 0.625000
vt 0.250000 1.000000
vt 0.375000 1.000000
vt 0.250000 1.000000
vt 0.125000 1.000000
vt 1.000000 0.375000
vt 1.000000 0.250000
vt 1.000000 0.375000
vt 0.875000 0.250000
vt 0.875000 0.375000
vt 0.875000 0.250000
vt 0.250000 0.875000
vt 0.125000 0.875000
vt 0.875000 0.375000
vt 0.875000 0.375000
vt 0.875000 0.500000
vt 0.875000 0.500000
vt 0.625000 0.875000
vt 0.625000 0.875000
vt 0.750000 0.875000
vt 0.875000 0.000000
vt 0.875000 0.000000
vt 0.891725 0.016725
vt 0.875000 0.375000
vt 0.875000 0.500000
vt 0.875000 0.375000
vt 0.875000 0.000000
vt 0.875000 0.000000
vt 0.875000 0.125000
vt 0.875000 0.125000
vt 0.875000 0.125000
vt 0.875000 0.000000
vt 0.875000 0.250000
vt 1.000000 0.250000
vt 1.000000 0.125000
vt 1.000000 0.250000
vt 0.875000 0.125000
vt 0.875000 0.125000
vt 0.875000 0.000000
vt 0.625000 1.000000
vt 0.625000 1.000000
vt 0.500000 1.000000
vt 0.500000 1.000000
vt 0.500000 0.875000
vt 0.375000 0.875000
vt 0.500000 0.875000
vt 0.875000 0.500000
vt 1.000000 0.859375
vt 1.000000 0.812500
vt 0.875000 0.625000
vt 0.875000 0.250000
vt 0.875000 0.375000
vt 0.875000 0.500000
vt 0.000000 1.000000
vt 0.125000 1.000000
vt 1.000000 0.125000
vt 1.000000 0.000000
vt 1.000000 0.125000
vt 1.000000 0.250000
vt 1.000000 0.250000
vt 1.000000 0.375000
vt 0.500000 0.875000
vt 0.875000 0.250000
vt 0.875000 0.250000
vt 0.875000 0.750000
vt 0.812500 0.875000
vt 0.750000 0.875000
vt 0.625000 0.875000
vt 0.750000 0.875000
vt 0.875000 0.500000
vt 0.875000 0.625000
vt 0.875000 0.125000
vt 0.875000 0.000000
vt 1.000000 0.125000
vt 1.000000 0.250000
vt 1.000000 0.125000
vt 1.000000 0.000000
vt 0.875000 0.625000
vt 0.875000 0.750000
vt 0.750000 1.000000
vt 0.750000 1.000000
vt 0.875000 0.812500
vt 0.875000 1.000000
vt 0.812500 1.000000
vt 0.812500 1.000000
vt 0.875000 0.500000
vt 0.875000 0.125000
vt 1.000000 0.500000
vt 0.750000 1.000000
vt 0.875000 0.250000
vt 0.500000 1.000000
vt 0.375000 1.000000
vt 1.000000 0.125000
vt 0.500000 0.875000
vt 0.625000 0.875000
vt 0.250000 0.875000
vt 0.375000 0.875000
vt 0.875000 0.375000
vt 0.875000 0.625000
vt 0.750000 0.875000
vt 0.812500 0.875000
vt 0.875000 0.125000
vt 0.375000 1.000000
vt 0.250000 1.000000
vt 0.375000 0.875000
vt 0.125000 1.000000
vt 0.000000 1.000000
vt 0.812500 0.875000
vt 0.875000 0.812500
vt 1.000000 0.375000
vt 1.000000 0.375000
vt 0.000000 0.875000
vt 0.000000 0.875000
vt 0.875000 0.375000
vt 0.875000 0.250000
vt 0.000000 0.875000
vt 0.125000 0.875000
vt 0.250000 0.875000
vt 0.375000 0.875000
vt 0.875000 0.625000
vt 0.812500 0.875000
vt 0.875000 0.750000
vt 0.000000 1.000000
vt 0.875000 0.812500
vt 0.875000 0.750000
vt 0.625000 1.000000
vt 0.875000 0.625000
vt 0.891725 0.016725
vt 0.812500 1.000000
vt 1.000000 0.000000
vt 0.875000 0.812500
vt 1.000000 0.750000
vt 0.875000 0.625000
vt 1.000000 0.500000
vt 1.000000 0.375000
vt 0.875000 0.500000
vt 1.000000 0.000000
vt 1.000000 0.000000
vt 1.000000 0.000000
vt 0.875000 1.000000
vt 0.812500 1.000000
vt 1.000000 0.375000
vt 1.000000 0.500000
vn 0.3723 0.9037 0.2114
vn 0.0000 1.0000 0.0000
vn 0.1627 0.9846 -0.0634
vn 0.0226 0.9503 -0.3104
vn 0.2411 0.8922 -0.3818
vn 0.4794 0.8734 0.0861
vn -0.0081 1.0000 0.0014
vn 0.1093 0.9389 0.3264
vn -0.1744 0.9354 0.3076
vn -0.1210 0.9743 0.1897
vn 0.3905 0.9106 0.1354
vn 0.1435 0.9783 -0.1495
vn -0.0482 0.8861 0.4611
vn 0.2437 0.9699 0.0021
vn 0.0297 0.9135 -0.4057
vn 0.0347 0.9919 0.1224
vn 0.3042 0.9523 0.0229
vn 0.2255 0.9734 -0.0399
vn -0.0803 0.9672 -0.2410
vn -0.0378 0.9856 0.1646
vn 0.0377 0.9366 -0.3484
vn 0.2620 0.9648 -0.0231
vn 0.6001 0.7999 0.0072
vn -0.1491 0.9386 0.3111
vn 0.1142 0.9935 -0.0015
vn -0.4320 0.8884 0.1551
vn -0.1808 0.9808 0.0731
vn 0.2514 0.9178 0.3072
vn 0.0655 0.9930 0.0983
vn 0.1150 0.9809 0.1566
vn -0.1274 0.9856 0.1116
vn 0.3525 0.9352 0.0338
vn 0.6271 0.7736 0.0912
vn 0.2293 0.9348 0.2712
vn 0.1120 0.9353 0.3356
vn -0.0681 0.8906 0.4496
vn 0.2417 0.9703 0.0000
vn 0.4079 0.8989 -0.1599
vn -0.3543 0.8557 0.3771
vn -0.0041 1.0000 0.0085
vn 0.0749 0.9918 -0.1039
vn 0.2446 0.9594 0.1403
vn -0.0009 0.9787 -0.2054
vn -0.3151 0.9490 -0.0063
vn 0.0036 1.0000 0.0055
vn -0.0172 0.9583 -0.2854
vn 0.1336 0.9541 0.2679
vn 0.1858 0.9802 0.0686
vn -0.0689 0.8951 0.4406
vn -0.2488 0.9454 -0.2103
vn 0.3169 0.8895 0.3291
vn 0.1127 0.9936 0.0027
vn 0.0837 0.9806 0.1771
vn 0.3241 0.9460 0.0000
vn -0.4453 0.8934 0.0599
vn 0.4049 0.8922 -0.2000
vn 0.1136 0.9760 -0.1857
vn 0.1141 0.9017 0.4171
vn 0.3104 0.9415 0.1310
vn 0.1089 0.9283 0.3556
vn 0.2070 0.9783 0.0058
vn 0.3811 0.8768 0.2934
vn 0.2795 0.9341 0.2222
vn 0.2370 0.9251 0.2967
vn 0.2850 0.9281 -0.2394
vn 0.0000 0.9025 -0.4306
vn -0.2433 0.9257 -0.2895
vn 0.0000 0.0000 1.0000
vn 0.0000 0.0000 -1.0000
usemtl None
s off
f 84/1/1 95/2/1 99/3/1 81/4/1
f 52/5/2 40/6/2 26/7/2 125/8/2
f 43/9/3 53/10/3 119/11/3 122/12/3
f 49/13/4 120/14/4 123/15/4 40/6/4
f 8/16/5 16/17/5 11/18/5
f 59/19/6 64/20/6 84/1/6 81/4/6
f 92/21/2 77/22/2 87/23/2 102/24/2
f 83/25/7 98/26/7 97/27/7
f 73/28/2 46/29/2 71/30/2
f 22/31/8 24/32/8 28/33/8
f 19/34/9 13/35/9 15/36/9 21/37/9
f 21/37/2 27/38/2 25/39/2 19/34/2
f 15/36/10 11/18/10 17/40/10 21/37/10
f 30/41/11 36/42/11 34/43/11
f 76/44/2 91/45/2 88/46/2 73/28/2
f 124/47/12 137/48/12 131/49/12 118/50/12
f 79/51/13 100/52/13 94/53/13
f 12/54/2 7/55/2 47/56/2 14/57/2
f 77/22/2 58/58/2 66/59/2 72/60/2
f 117/61/14 48/62/14 43/9/14 122/12/14
f 55/63/15 116/64/15 127/65/15 44/66/15
f 123/15/2 133/67/2 136/68/2
f 51/69/16 79/51/16 83/25/16
f 76/44/2 69/70/2 86/71/2 91/45/2
f 74/72/2 78/73/2 82/74/2
f 63/75/2 82/74/2 78/73/2 60/76/2
f 72/60/2 66/59/2 57/77/2 75/78/2
f 91/45/2 106/79/2 103/80/2 88/46/2
f 32/81/17 3/82/17 6/83/17 29/84/17
f 90/85/2 72/60/2 75/78/2 89/86/2
f 121/87/18 134/88/18 137/48/18 124/47/18
f 93/89/2 75/78/2 74/72/2 82/74/2
f 56/90/2 130/91/2 121/87/2 39/92/2
f 22/31/19 18/93/19 24/32/19
f 79/51/20 94/53/20 98/26/20 83/25/20
f 44/66/21 127/65/21 120/14/21 49/13/21
f 9/94/22 8/16/22 11/18/22 15/36/22
f 26/7/23 136/68/23 24/95/23
f 45/96/2 39/92/2 121/87/2 124/47/2
f 21/37/24 17/40/24 23/97/24 27/38/24
f 53/10/25 41/98/25 126/99/25 119/11/25
f 17/40/26 28/33/26 23/97/26
f 123/15/2 120/14/2 139/100/2 133/67/2
f 94/53/27 109/101/27 113/102/27 98/26/27
f 96/103/28 85/104/28 81/4/28 99/3/28
f 16/17/2 8/16/2 10/105/2 12/54/2
f 57/77/2 62/106/2 74/72/2 75/78/2
f 97/27/2 98/26/2 112/107/2 108/108/2
f 65/109/2 58/58/2 69/70/2 76/44/2
f 138/110/29 132/111/29 126/99/29 118/50/29
f 58/58/2 77/22/2 69/70/2
f 51/69/30 67/112/30 85/104/30 79/51/30
f 122/12/31 119/11/31 135/113/31 129/114/31
f 60/76/2 78/73/2 70/115/2
f 119/11/2 126/99/2 132/111/2 135/113/2
f 70/115/2 78/73/2 68/116/2
f 34/43/32 35/117/32 31/118/32 30/41/32
f 64/20/33 54/119/33 80/120/33 84/1/33
f 86/71/2 107/121/2 101/122/2
f 99/3/34 110/123/34 114/124/34
f 92/21/2 102/24/2 107/121/2
f 96/103/35 114/124/35 111/125/35
f 73/28/2 71/30/2 65/109/2 76/44/2
f 100/52/36 111/125/36 115/126/36
f 87/23/2 105/127/2 102/24/2
f 97/27/2 108/108/2 93/128/2
f 90/85/2 104/129/2 105/127/2
f 48/62/37 117/61/37 38/130/37
f 40/6/38 123/15/38 26/7/38
f 78/131/2 74/72/2 62/106/2 61/132/2
f 94/53/39 115/126/39 109/101/39
f 93/89/2 89/86/2 75/78/2
f 83/25/40 97/27/40 93/128/40 82/74/40
f 50/133/41 45/96/41 124/47/41 118/50/41
f 20/134/42 24/32/42 18/93/42
f 4/135/2 9/94/2 13/35/2
f 130/91/43 140/136/43 134/88/43 121/87/43
f 122/12/44 129/114/44 117/61/44
f 63/75/45 51/69/45 83/25/45 82/74/45
f 14/57/46 125/8/46 20/134/46
f 36/42/47 30/41/47 32/81/47 33/137/47
f 89/86/2 93/89/2 108/138/2 104/129/2
f 91/45/2 86/71/2 101/122/2 106/79/2
f 41/98/48 50/133/48 118/50/48 126/99/48
f 52/5/2 125/8/2 14/57/2 42/139/2
f 94/53/49 100/52/49 115/126/49
f 20/134/50 26/140/50 24/32/50
f 72/60/2 90/85/2 87/23/2 77/22/2
f 31/118/2 2/141/2 5/142/2 30/41/2
f 10/105/2 7/143/2 12/54/2
f 9/94/51 15/36/51 13/35/51
f 16/17/52 12/54/52 18/93/52
f 30/41/53 5/142/53 3/82/53 32/81/53
f 6/83/54 1/144/54 29/84/54
f 32/81/2 29/84/2 33/137/2
f 86/71/2 69/70/2 92/21/2 107/121/2
f 127/65/2 128/145/2 139/100/2 120/14/2
f 17/40/55 22/31/55 28/33/55
f 26/7/56 123/15/56 136/68/56
f 11/18/57 16/17/57 22/31/57 17/40/57
f 96/103/58 111/125/58 100/52/58 85/104/58
f 67/112/59 59/19/59 81/4/59 85/104/59
f 61/132/2 68/116/2 78/131/2
f 79/51/60 85/104/60 100/52/60
f 14/57/61 20/134/61 18/93/61 12/54/61
f 84/1/62 80/120/62 95/2/62
f 69/70/2 77/22/2 92/21/2
f 98/26/2 113/102/2 112/107/2
f 99/3/63 95/2/63 110/123/63
f 96/103/64 99/3/64 114/124/64
f 87/23/2 90/85/2 105/127/2
f 90/85/2 89/86/2 104/129/2
f 22/31/65 16/17/65 18/93/65
f 55/63/66 37/146/66 116/64/66
f 118/50/2 131/49/2 138/110/2
f 127/65/2 116/64/2 128/145/2
f 47/56/2 42/139/2 14/57/2
f 125/8/67 26/7/67 20/134/67
f 130/91/68 56/90/68 143/147/68 144/148/68
f 2/141/69 31/118/69 142/149/69 141/150/69
o treeheads.001_Icosphere.004
v -17.156422 6.065825 19.456631
v -17.951323 5.845655 17.171906
v -16.455931 6.065823 17.270611
v -16.012054 6.065823 18.618088
v -17.041658 6.702147 17.881554
v -17.259254 4.188246 18.551254
v -17.146608 4.673838 19.468597
v -15.997644 4.673841 18.612461
v -16.878721 4.142558 18.249821
v -18.315897 4.673842 18.640427
v -17.372669 4.147302 18.040665
v -17.889585 4.673840 17.272449
v -16.456823 4.673840 17.255173
v -15.749469 5.429882 18.249821
v -16.725029 5.429882 19.592566
v -18.364775 5.839866 18.954372
v -18.573158 5.284924 18.249821
v -16.725029 5.429882 16.907076
v -16.702955 6.652612 18.582838
v -17.727880 6.652609 18.249821
v -30.163383 7.339376 -33.444267
v -32.355690 7.326294 -34.979362
v -31.715160 7.154083 -37.740063
v -28.899519 7.487391 -37.583530
v -28.027344 7.438936 -35.053730
v -30.007671 8.193976 -36.395607
v -30.323109 5.118304 -35.212166
v -30.101711 5.661374 -33.468861
v -27.957462 5.762080 -35.111610
v -29.612000 5.097516 -35.791500
v -32.328239 5.647359 -35.001511
v -30.549040 5.089988 -36.173504
v -31.560041 5.739394 -37.591496
v -28.858749 5.810297 -37.659531
v -27.522219 6.704391 -35.776066
v -29.326782 6.586831 -33.220058
v -31.652805 6.452248 -33.660717
v -32.842361 6.391701 -35.711067
v -29.396860 6.726624 -38.283779
v -29.349155 8.114312 -35.083324
v -31.290535 8.081568 -35.685894
v 6.683481 4.190271 -22.331135
v 5.636744 4.236079 -24.788773
v 7.023085 4.179310 -24.975975
v 7.814041 4.176192 -23.530155
v 6.189648 4.892207 -23.886486
v 6.314575 3.080355 -23.404285
v 6.428076 3.419947 -22.487659
v 7.579124 3.406698 -23.340889
v 6.695547 3.044120 -23.704662
v 5.035217 3.552837 -23.562416
v 6.202173 3.051404 -23.915077
v 5.690619 3.420351 -24.685669
v 7.123356 3.406946 -24.699329
v 5.218821 4.241197 -23.007351
v 6.886765 4.790184 -23.376350
vt 0.679375 0.157461
vt 0.636363 0.236191
vt 0.818181 0.236191
vt 0.861193 0.157461
vt 0.985060 0.289045
vt 0.315738 0.157461
vt 0.318592 0.288606
vt 0.454545 0.236191
vt 0.497556 0.157461
vt 0.864252 0.314921
vt 0.682434 0.314921
vt 0.727272 0.393651
vt 0.954545 0.393651
vt 0.106898 0.289045
vt 0.181818 0.393651
vt 0.500616 0.314921
vt 0.386671 0.432483
vt 0.590909 0.393651
vt 0.522419 0.432483
vt 0.318182 0.393651
vt 0.863635 0.393651
vt 0.909090 0.472382
vt 0.181818 0.236191
vt 0.133920 0.157461
vt 0.000000 0.157461
vt 0.500000 0.078731
vt 0.409090 0.078731
vt 0.283701 0.078731
vt 0.136363 0.078731
vt 0.045454 0.078731
vt 0.636363 0.078731
vt 0.863635 0.078731
vt 0.772726 0.078731
vt 0.679375 0.157461
vt 0.636363 0.236191
vt 0.818181 0.236191
vt 0.861193 0.157461
vt 0.954545 0.236191
vt 0.315738 0.157461
vt 0.318592 0.288606
vt 0.454545 0.236191
vt 0.497556 0.157461
vt 0.864252 0.314921
vt 0.682434 0.314921
vt 0.727272 0.393651
vt 1.000000 0.314921
vt 0.954545 0.393651
vt 0.136979 0.314921
vt 0.181818 0.393651
vt 0.500616 0.314921
vt 0.386671 0.432483
vt 0.590909 0.393651
vt 0.522419 0.432483
vt 0.318182 0.393651
vt 0.863635 0.393651
vt 0.909090 0.472382
vt 0.181818 0.236191
vt 0.133920 0.157461
vt 0.045454 0.236191
vt 0.000000 0.157461
vt 0.500000 0.078731
vt 0.409090 0.078731
vt 0.283701 0.078731
vt 0.136363 0.078731
vt 0.045454 0.078731
vt 0.636363 0.078731
vt 0.863635 0.078731
vt 0.772726 0.078731
vt 0.679375 0.157461
vt 0.658666 0.274305
vt 0.840484 0.274305
vt 0.861193 0.157461
vt 0.985060 0.289045
vt 0.315738 0.157461
vt 0.318592 0.288606
vt 0.476848 0.274305
vt 0.497556 0.157461
vt 0.727272 0.393651
vt 0.932540 0.431766
vt 0.106898 0.289045
vt 0.181818 0.393651
vt 0.351338 0.412450
vt 0.590909 0.393651
vt 0.522419 0.432483
vt 0.863635 0.393651
vt 0.155061 0.192210
vt 0.000000 0.157461
vt 0.500000 0.078731
vt 0.409090 0.078731
vt 0.283701 0.078731
vt 0.136363 0.078731
vt 0.045454 0.078731
vt 0.636363 0.078731
vt 0.863635 0.078731
vt 0.772726 0.078731
vn 0.8089 0.0164 0.5877
vn -0.3529 0.0435 0.9347
vn -0.2410 -0.0956 -0.9658
vn 0.8089 0.0164 -0.5877
vn 0.4741 0.5971 0.6470
vn -0.3665 0.7566 0.5415
vn -0.8469 0.4948 -0.1948
vn -0.0493 0.6678 -0.7427
vn 0.6391 0.7398 -0.2105
vn 0.5941 0.7701 -0.2325
vn -0.3353 0.7862 -0.5191
vn -0.0271 0.9961 0.0835
vn -0.1598 0.8559 0.4918
vn 0.8240 0.4974 -0.2714
vn 0.8090 -0.0063 -0.5878
vn -0.0167 0.5015 -0.8650
vn -0.8170 0.5452 -0.1877
vn -0.3743 -0.0560 0.9256
vn 0.5128 0.4974 0.6998
vn 0.8090 -0.0063 0.5878
vn -0.0109 -0.4214 -0.9068
vn -0.8417 -0.0900 -0.5324
vn -0.8215 -0.5095 -0.2560
vn -0.9137 -0.1410 0.3813
vn -0.5615 -0.2370 0.7928
vn 0.5419 -0.4214 0.7272
vn 0.8591 -0.4214 -0.2906
vn 0.1647 -0.8973 -0.4094
vn -0.0068 -0.8270 -0.5622
vn -0.5625 -0.8080 -0.1753
vn -0.4008 -0.9018 0.1614
vn -0.3348 -0.8152 0.4726
vn 0.5632 -0.8040 -0.1905
vn 0.2374 -0.8703 0.4315
vn 0.3257 -0.8384 0.4371
vn 0.8159 0.0303 0.5774
vn -0.1786 -0.1132 0.9774
vn -0.2488 -0.1281 -0.9601
vn 0.7996 0.0627 -0.5972
vn 0.3729 0.7535 0.5415
vn -0.3101 0.8450 0.4357
vn -0.6506 0.7335 -0.1967
vn -0.0672 0.8287 -0.5556
vn 0.4530 0.8805 -0.1393
vn 0.4108 0.8990 -0.1516
vn -0.2716 0.8970 -0.3488
vn -0.0421 0.9958 0.0816
vn -0.1304 0.9198 0.3701
vn 0.6866 0.6919 -0.2235
vn 0.8008 0.0273 -0.5984
vn -0.0417 0.6913 -0.7214
vn -0.7850 0.5797 -0.2183
vn -0.4572 0.6095 0.6477
vn -0.1900 0.0803 0.9785
vn 0.4311 0.6620 0.6131
vn 0.8170 -0.0052 0.5766
vn -0.0059 -0.5654 -0.8248
vn -0.8402 -0.1469 -0.5220
vn -0.6859 -0.6911 -0.2280
vn -0.8642 0.0588 0.4997
vn -0.8578 -0.1148 0.5010
vn -0.4178 -0.6706 0.6130
vn 0.5071 -0.5928 0.6256
vn 0.7774 -0.5604 -0.2856
vn 0.1324 -0.9427 -0.3063
vn 0.0131 -0.9055 -0.4240
vn -0.3819 -0.9127 -0.1457
vn -0.2457 -0.9655 0.0862
vn -0.2110 -0.9253 0.3151
vn 0.4260 -0.8891 -0.1675
vn 0.1920 -0.9436 0.2696
vn 0.2571 -0.9253 0.2788
vn 0.7262 -0.0531 0.6854
vn -0.4200 -0.0449 0.9064
vn -0.1380 -0.1332 -0.9814
vn 0.8758 -0.0580 -0.4792
vn 0.5350 0.6836 0.4964
vn -0.1779 0.8745 0.4512
vn -0.6421 0.7512 -0.1528
vn -0.0434 0.8205 -0.5700
vn 0.4996 0.8226 -0.2716
vn 0.3541 0.8833 -0.3072
vn -0.2073 0.8653 0.4563
vn -0.8893 0.4064 -0.2098
vn -0.0121 -0.3386 -0.9409
vn -0.8636 -0.1190 -0.4899
vn -0.5811 -0.4113 0.7023
vn 0.5577 -0.3389 0.7577
vn 0.8898 -0.3451 -0.2986
vn 0.1128 -0.9481 -0.2973
vn -0.0125 -0.9051 -0.4250
vn -0.4271 -0.8927 -0.1439
vn -0.3577 -0.9246 0.1311
vn -0.3620 -0.8586 0.3629
vn 0.4255 -0.8936 -0.1429
vn 0.1671 -0.9311 0.3243
vn 0.2370 -0.9124 0.3338
usemtl None
s off
f 152/151/70 158/152/70 159/153/70
f 151/154/71 159/153/71 160/155/71
f 156/156/72 146/157/72 162/158/72
f 157/159/73 162/158/73 158/152/73
f 145/160/74 148/161/74 163/162/74
f 160/155/75 145/160/75 164/163/75
f 146/157/76 160/164/76 164/165/76
f 147/166/77 146/157/77 149/167/77
f 148/161/78 147/166/78 163/168/78
f 163/168/79 147/166/79 149/169/79
f 149/167/80 146/157/80 164/170/80
f 164/163/81 163/171/81 149/172/81
f 164/163/82 145/160/82 163/171/82
f 158/152/83 147/166/83 148/161/83
f 158/152/84 162/158/84 147/166/84
f 162/158/85 146/157/85 147/166/85
f 161/173/86 160/164/86 146/157/86
f 160/155/87 159/153/87 145/160/87
f 159/153/88 148/161/88 145/160/88
f 159/153/89 158/152/89 148/161/89
f 157/159/90 156/156/90 162/158/90
f 146/157/91 156/156/91 161/173/91
f 156/156/92 154/174/92 161/173/92
f 161/173/93 154/174/93 160/164/93
f 154/174/94 151/175/94 160/164/94
f 151/154/95 152/151/95 159/153/95
f 152/151/96 157/159/96 158/152/96
f 153/176/97 155/177/97 157/159/97
f 155/177/98 156/156/98 157/159/98
f 155/178/99 154/174/99 156/156/99
f 155/179/100 150/180/100 154/174/100
f 150/180/101 151/175/101 154/174/101
f 152/151/102 153/181/102 157/159/102
f 150/182/103 153/183/103 151/154/103
f 153/183/104 152/151/104 151/154/104
f 173/184/105 179/185/105 180/186/105
f 172/187/106 180/186/106 181/188/106
f 177/189/107 167/190/107 183/191/107
f 178/192/108 183/191/108 179/185/108
f 165/193/109 169/194/109 184/195/109
f 166/196/110 165/193/110 185/197/110
f 167/190/111 166/198/111 185/199/111
f 168/200/112 167/190/112 170/201/112
f 169/194/113 168/200/113 184/202/113
f 184/202/114 168/200/114 170/203/114
f 170/201/115 167/190/115 185/204/115
f 185/197/116 184/205/116 170/206/116
f 185/197/117 165/193/117 184/205/117
f 179/185/118 168/200/118 169/194/118
f 179/185/119 183/191/119 168/200/119
f 183/191/120 167/190/120 168/200/120
f 182/207/121 166/198/121 167/190/121
f 181/188/122 165/193/122 166/196/122
f 181/188/123 180/186/123 165/193/123
f 180/186/124 169/194/124 165/193/124
f 180/186/125 179/185/125 169/194/125
f 178/192/126 177/189/126 183/191/126
f 167/190/127 177/189/127 182/207/127
f 177/189/128 175/208/128 182/207/128
f 182/207/129 181/209/129 166/198/129
f 182/207/130 175/208/130 181/209/130
f 175/208/131 172/210/131 181/209/131
f 172/187/132 173/184/132 180/186/132
f 173/184/133 178/192/133 179/185/133
f 174/211/134 176/212/134 178/192/134
f 176/212/135 177/189/135 178/192/135
f 176/213/136 175/208/136 177/189/136
f 176/214/137 171/215/137 175/208/137
f 171/215/138 172/210/138 175/208/138
f 173/184/139 174/216/139 178/192/139
f 171/217/140 174/218/140 172/187/140
f 174/218/141 173/184/141 172/187/141
f 193/219/142 189/220/142 186/221/142
f 192/222/143 186/221/143 199/223/143
f 197/224/144 187/225/144 188/226/144
f 198/227/145 188/226/145 189/220/145
f 186/221/146 189/220/146 200/228/146
f 199/223/147 186/221/147 190/229/147
f 187/225/148 199/230/148 190/231/148
f 188/226/149 187/225/149 190/232/149
f 189/220/150 188/226/150 200/233/150
f 200/233/151 188/226/151 190/234/151
f 190/229/152 186/221/152 200/235/152
f 195/236/153 199/230/153 187/225/153
f 198/227/154 197/224/154 188/226/154
f 187/225/155 197/224/155 195/236/155
f 195/236/156 192/237/156 199/230/156
f 192/222/157 193/219/157 186/221/157
f 193/219/158 198/227/158 189/220/158
f 194/238/159 196/239/159 198/227/159
f 196/239/160 197/224/160 198/227/160
f 196/240/161 195/236/161 197/224/161
f 196/241/162 191/242/162 195/236/162
f 191/242/163 192/237/163 195/236/163
f 193/219/164 194/243/164 198/227/164
f 191/244/165 194/245/165 192/222/165
f 194/245/166 193/219/166 192/222/166
