# Blender v2.83.1 OBJ File: 'thrue level three.blend'
# www.blender.org
mtllib levelthreew.mtl
o wireframe_Cube.006
v -21.067501 0.157601 -7.651088
v -21.067501 3.360712 -7.651088
v -21.067501 0.157601 -16.348911
v -21.067501 3.360712 -16.348911
v -20.932501 0.157601 -7.520621
v -20.932501 3.360712 -7.520621
v -20.932501 3.360712 -16.479380
v -20.932501 0.157601 -16.479380
v -21.067501 0.157601 -16.479380
v -21.067501 3.360712 -16.479380
v -21.067501 3.360712 -7.520621
v -21.067501 0.157601 -7.520621
v -11.741848 3.360712 -16.479380
v -11.741848 0.157601 -16.479380
v -11.606849 3.360712 -16.348911
v -11.606849 0.157601 -16.348911
v -11.606849 3.360712 -16.479380
v -11.606849 0.157601 -16.479380
v -21.067501 0.157601 -12.085273
v -21.067501 0.157601 -11.914727
v -21.067501 3.360712 -11.914727
v -21.067501 3.360712 -12.085273
v -16.235968 0.157601 -16.479380
v -16.438381 0.157601 -16.479380
v -16.438381 3.360712 -16.479380
v -16.235968 3.360712 -16.479380
v -16.776152 6.513152 -16.479380
v -15.898194 6.513152 -16.479380
v -16.438381 6.513152 -16.479380
v -16.235968 6.513152 -16.479380
v -20.932501 3.360712 -7.556341
v -11.741841 3.360712 -7.556341
v -16.776152 6.513152 -7.556341
v -15.898194 6.513152 -7.556341
v -16.438381 6.513152 -7.556341
v -16.235968 6.513152 -7.556341
vt 0.375000 0.622549
vt 0.625000 0.500000
vt 0.375000 0.500000
vt 0.375000 0.500000
vt 0.625000 0.250000
vt 0.375000 0.250000
vt 0.375000 1.000000
vt 0.625000 0.750000
vt 0.375000 0.750000
vt 0.625000 0.500000
vt 0.625000 0.750000
vt 0.375000 0.750000
vt 0.625000 0.250000
vt 0.375000 0.250000
vt 0.625000 0.250000
vt 0.375000 0.250000
vt 0.625000 0.250000
vt 0.375000 0.250000
vt 0.625000 0.250000
vt 0.625000 0.250000
vt 0.375000 0.250000
vt 0.625000 0.250000
vt 0.625000 0.627451
vt 0.375000 0.627451
vt 0.625000 0.250000
vt 0.375000 0.250000
vt 0.625000 0.622549
vt 0.625000 0.250000
vt 0.625000 0.250000
vt 0.625000 0.250000
vt 0.625000 0.250000
vt 0.625000 0.250000
vt 0.625000 0.250000
vt 0.625000 0.250000
vt 0.625000 1.000000
vt 0.625000 0.250000
vn -1.0000 0.0000 0.0000
vn 0.0000 0.0000 -1.0000
vn 0.0000 0.0000 1.0000
vn 1.0000 0.0000 0.0000
vn 0.0000 1.0000 0.0000
vn 0.6043 0.7968 -0.0000
vn -0.6043 0.7968 0.0000
usemtl None
s off
f 19/1/1 4/2/1 3/3/1
f 9/4/2 7/5/2 8/6/2
f 5/7/3 11/8/3 12/9/3
f 10/10/1 3/3/1 4/2/1
f 12/9/1 2/11/1 1/12/1
f 25/13/2 8/6/2 7/5/2
f 18/14/4 15/15/4 16/16/4
f 17/17/2 14/18/2 13/19/2
f 27/20/2 25/13/2 7/5/2
f 13/19/2 23/21/2 26/22/2
f 1/12/1 21/23/1 20/24/1
f 26/22/2 28/25/2 13/19/2
f 24/26/2 26/22/2 23/21/2
f 22/27/1 20/24/1 21/23/1
f 29/28/2 26/22/2 25/13/2
f 30/29/5 34/30/5 28/25/5
f 29/28/5 36/31/5 30/29/5
f 28/25/6 32/32/6 13/19/6
f 27/20/5 35/33/5 29/28/5
f 7/5/7 33/34/7 27/20/7
f 19/1/1 22/27/1 4/2/1
f 9/4/2 10/10/2 7/5/2
f 5/7/3 6/35/3 11/8/3
f 10/10/1 9/4/1 3/3/1
f 12/9/1 11/8/1 2/11/1
f 25/13/2 24/26/2 8/6/2
f 18/14/4 17/17/4 15/15/4
f 17/17/2 18/14/2 14/18/2
f 27/20/2 29/28/2 25/13/2
f 13/19/2 14/18/2 23/21/2
f 1/12/1 2/11/1 21/23/1
f 26/22/2 30/29/2 28/25/2
f 24/26/2 25/13/2 26/22/2
f 22/27/1 19/1/1 20/24/1
f 29/28/2 30/29/2 26/22/2
f 30/29/5 36/31/5 34/30/5
f 29/28/5 35/33/5 36/31/5
f 28/25/6 34/30/6 32/32/6
f 27/20/5 33/34/5 35/33/5
f 7/5/7 31/36/7 33/34/7
