# Blender v2.83.1 OBJ File: 'thrue level three.blend'
# www.blender.org
mtllib lightning.mtl
o lightning_Icosphere.002
v 8.566771 114.906113 15.329912
v -14.022854 62.571129 -16.466057
v -13.998909 61.767609 -16.419125
v 4.249789 69.225288 7.192362
v 8.086975 117.492393 16.716982
v 8.296431 114.534714 16.951052
v 9.113452 117.058098 17.121202
v 3.269922 26.832510 8.974259
v 2.846864 26.305639 9.418195
v 3.009894 26.302141 8.865526
v 0.198575 43.871578 2.220632
v 1.780304 39.179676 3.031022
v 2.220678 39.103069 3.188115
v 2.988202 41.570461 1.047273
v 2.207936 39.550537 3.741120
v -0.380278 43.985611 3.220358
v 1.636165 38.401669 4.181190
v 2.744501 42.341610 3.896399
v -1.236058 42.475639 3.551924
v -0.815876 42.542713 2.399557
v 0.703357 39.311607 3.291082
v 0.575680 38.963322 4.189579
v 2.590721 39.642017 -2.515621
v 4.200394 39.198673 -1.836766
v 2.493193 39.569954 2.033759
v 2.002580 39.589535 1.678357
v -5.193695 23.232431 1.775784
v -3.960186 23.731815 0.585365
v -4.366477 21.948483 2.259890
v -3.359354 22.435875 1.109697
v 3.749520 36.073090 -9.312001
v 6.023263 36.095287 -8.793099
v 3.773896 35.435211 -8.937281
v 5.921685 35.426563 -8.392066
v -4.315753 15.667123 0.264871
v -3.607845 16.019241 -0.426400
v -3.414828 15.506230 0.744058
v -3.012013 15.651010 0.373661
v 3.891791 30.318518 -13.541732
v -2.395084 16.066666 0.777986
v 0.118969 14.972732 0.642509
v 0.216830 8.294233 0.131181
v 4.232959 59.685982 2.998309
v 4.197424 60.037842 2.670233
v 11.061958 40.333214 0.333434
v 11.805019 41.463341 0.887568
v 11.672008 41.554424 0.241375
v 20.536627 32.633442 -3.321820
v 21.484844 33.332264 -2.896079
v 21.377426 33.505703 -3.502533
v 24.738113 31.082401 -9.380645
v 25.776501 30.748596 -9.279441
v 25.764668 31.082729 -9.724769
v 21.175156 35.860737 -19.487734
v 1.070135 41.720722 3.644089
v 1.983019 44.444427 1.408035
v -1.824333 39.756783 4.002143
v -5.180024 42.864285 1.580958
v -5.052919 42.870983 0.716978
v -4.175022 41.762939 1.829413
v -12.270037 35.833668 0.208334
v -12.497900 35.503353 -0.450607
v -10.981616 34.912128 0.453359
v -14.955694 31.497368 2.918015
v -13.781656 31.395313 3.063895
v -14.059877 31.061817 3.102059
v -16.229673 23.647669 8.120308
v 1.165009 64.941505 2.750429
v 1.409921 67.045319 3.226606
v 4.091740 60.627235 3.375828
v 1.082776 67.239731 3.402426
v 0.884891 65.136452 3.050715
v 1.930393 65.102379 5.092445
v -10.142599 60.283009 -9.229472
v -10.344504 58.773266 -9.516794
v -19.379002 66.226357 -22.213003
v -19.864643 65.319939 -22.763327
v -14.247049 62.571754 -16.931726
v -23.928114 74.613129 -31.943392
v 3.820408 26.703308 15.742030
v 3.554949 26.723547 15.777477
v 3.677127 26.220652 15.769284
v 3.750597 30.826414 19.996475
v -9.549682 58.282230 -10.220674
v -9.346486 59.797646 -9.896850
v -19.363867 64.935303 -23.382969
v -18.878252 65.839676 -22.808308
v -8.531076 61.726673 -19.537302
v -8.555022 62.530193 -19.584234
v -9.036262 62.365864 -19.885998
v 4.266959 74.357819 -28.592196
vt 0.664080 0.078731
vt 0.637615 0.078730
vt 0.636541 0.078730
vt 0.465116 0.078731
vt 0.500000 0.078731
vt 0.409090 0.078731
vt 0.454545 0.000000
vt 0.681818 0.078731
vt 0.636363 0.000000
vt 0.590909 0.078731
vt 0.680525 0.078731
vt 0.590909 0.078731
vt 0.624573 0.078731
vt 0.789690 0.078731
vt 0.790205 0.078731
vt 0.790782 0.078731
vt 0.113634 0.078730
vt 0.093090 0.078730
vt 0.088514 0.078730
vt 0.120761 0.078730
vt 0.061122 0.078730
vt 0.070124 0.078730
vt 0.092207 0.078730
vt 0.060970 0.078731
vt 0.120912 0.078731
vt 0.671990 0.078731
vt 0.103040 0.078730
vt 0.081288 0.078730
vt 0.120912 0.078731
vt 0.090150 0.078730
vt 0.103040 0.078730
vt 0.081155 0.078730
vt 0.772726 0.078731
vt 0.863635 0.078731
vt 0.772727 0.078731
vt 0.074159 0.078730
vt 0.092553 0.078730
vt 0.109948 0.078730
vt 0.093137 0.078730
vt 0.136041 0.078171
vt 0.110577 0.078731
vt 0.112131 0.078731
vt 0.136363 0.078731
vt 0.089746 0.078731
vt 0.045455 0.078731
vt 0.772726 0.078731
vt 0.503581 0.078731
vt 0.863635 0.078731
vt 0.409090 0.078731
vt 0.455670 0.078731
vt 0.500000 0.078731
vt 0.066085 0.078731
vt 0.074190 0.078731
vt 0.048164 0.078731
vt 0.071482 0.078731
vt 0.074190 0.078731
vt 0.059254 0.078731
vt 0.048772 0.078731
vt 0.048164 0.078731
vt 0.071482 0.078731
vt 0.070789 0.078731
vt 0.136041 0.078171
vt 0.110577 0.078731
vt 0.136041 0.078171
vt 0.285087 0.078731
vt 0.318182 0.078731
vt 0.281545 0.078731
vt 0.500000 0.078731
vt 0.409091 0.078731
vt 0.500000 0.078731
vt 0.318182 0.078731
vt 0.227595 0.078171
vt 0.045454 0.078731
vt 0.136363 0.078730
vt 0.045454 0.078731
vt 0.498594 0.078731
vt 0.411342 0.078731
vt 0.461190 0.078731
vt 0.793227 0.078731
vt 0.772726 0.078731
vt 0.113348 0.078731
vt 0.136363 0.078731
vt 0.846762 0.078731
vt 0.846762 0.078731
vt 0.060970 0.078731
vt 0.061122 0.078730
vt 0.811529 0.078731
vt 0.861627 0.078731
vt 0.819150 0.078731
vt 0.109948 0.078730
vt 0.095002 0.078730
vt 0.120761 0.078730
vt 0.845485 0.078731
vt 0.774437 0.078731
vt 0.790782 0.078731
vt 0.789690 0.078731
vt 0.120912 0.078731
vt 0.845485 0.078731
vt 0.638222 0.078730
vt 0.846147 0.078731
vt 0.136363 0.078731
vt 0.045454 0.078731
vt 0.634532 0.078731
vt 0.671990 0.078731
vt 0.601305 0.078731
vt 0.601305 0.078731
vt 0.601305 0.078731
vt 0.637485 0.078730
vt 0.637144 0.078730
vt 0.671990 0.078731
vt 0.627829 0.078731
vt 0.074159 0.078730
vt 0.109948 0.078730
vt 0.074159 0.078730
vt 0.045455 0.078731
vt 0.045454 0.078730
vt 0.045454 0.078731
vt 0.045454 0.078731
vt 0.045454 0.078731
vt 0.045454 0.078731
vt 0.136363 0.078731
vt 0.045455 0.078731
vt 0.045454 0.078731
vt 0.090622 0.078452
vt 0.110577 0.078731
vt 0.045454 0.078731
vt 0.136363 0.078731
vt 0.409090 0.078731
vt 0.136363 0.078731
vt 0.419638 0.078731
vt 0.863635 0.078731
vt 0.232369 0.078731
vt 0.281482 0.078731
vt 0.447900 0.078731
vt 0.237320 0.061328
vt 0.136363 0.078731
vt 0.637544 0.078730
vt 0.074189 0.078731
vt 0.126316 0.061328
vn -0.9292 -0.2978 -0.2187
vn 0.5201 -0.2240 0.8242
vn -0.3478 0.0495 0.9363
vn 0.4898 0.4809 -0.7272
vn 0.7020 0.2781 -0.6556
vn 0.9611 -0.2340 -0.1467
vn 0.0153 -0.0882 0.9960
vn 0.7340 0.0760 0.6749
vn 0.0864 -0.2161 0.9725
vn 0.8181 0.3735 -0.4374
vn -0.5675 -0.3353 -0.7520
vn -0.2228 0.0379 -0.9741
vn -0.9320 0.1468 -0.3313
vn 0.7644 -0.6430 -0.0464
vn 0.2466 -0.3960 -0.8845
vn -0.8435 0.5366 0.0227
vn -0.0906 -0.5399 -0.8368
vn -0.8900 0.0075 0.4559
vn -0.7676 -0.5879 -0.2554
vn 0.9277 -0.2603 0.2675
vn -0.0382 0.7173 -0.6958
vn 0.7796 -0.0209 -0.6260
vn 0.7345 -0.1888 -0.6518
vn 0.8028 0.4627 -0.3761
vn -0.0805 -0.5256 -0.8469
vn -0.4912 0.7982 0.3488
vn -0.8151 -0.0012 0.5793
vn -0.6056 -0.0633 0.7933
vn 0.6677 0.3635 0.6497
vn -0.7451 -0.0762 0.6626
vn -0.9436 -0.2072 -0.2584
vn 0.9540 -0.2879 -0.0831
vn 0.9715 -0.1943 0.1357
vn 0.9734 -0.1665 0.1571
vn 0.3077 0.2029 0.9296
vn -0.0925 -0.9324 0.3494
vn 0.6035 -0.0424 -0.7962
vn 0.0844 0.0685 -0.9941
vn -0.4534 -0.2188 0.8641
vn -0.2606 -0.3687 -0.8922
vn -0.4356 -0.8167 -0.3785
vn -0.0118 0.1961 0.9805
vn 0.4128 0.7810 -0.4687
vn 0.9733 -0.1593 0.1653
vn 0.1529 -0.9525 -0.2635
vn -0.9902 -0.0117 -0.1390
vn -0.7202 -0.2153 0.6596
vn -0.9440 0.1842 -0.2738
vn -0.9880 -0.1045 -0.1136
vn 0.7776 -0.2892 0.5583
vn -0.1135 -0.1099 0.9874
vn 0.8556 -0.3185 0.4080
vn 0.3679 0.8813 -0.2967
vn 0.8199 0.1031 -0.5632
vn 0.6082 0.2420 0.7560
vn -0.7057 0.0604 -0.7059
vn 0.1749 0.5859 -0.7913
vn 0.9857 -0.0504 -0.1608
vn -0.9994 -0.0322 0.0102
vn 0.4870 0.1188 -0.8653
vn -0.1438 -0.8587 -0.4920
vn 0.1858 0.5295 -0.8278
vn -0.4889 -0.3153 0.8133
vn 0.9703 -0.0496 -0.2366
vn -0.9181 -0.0173 -0.3959
vn 0.7960 -0.1186 0.5935
vn -0.3012 0.0788 -0.9503
vn 0.9023 0.3877 -0.1887
vn -0.3200 -0.2391 0.9168
vn 0.6271 0.7712 0.1095
vn 0.6378 0.7699 -0.0228
vn -0.0457 -0.4738 0.8795
vn 0.3789 -0.7988 0.4673
vn -0.1509 0.8806 -0.4493
vn 0.4232 -0.7193 -0.5509
vn 0.7489 0.5490 0.3710
vn 0.0131 0.1606 0.9869
vn 0.5212 -0.3627 -0.7725
vn -0.4651 0.2404 -0.8520
vn -0.1318 0.9734 -0.1874
vn 0.2644 -0.5709 -0.7773
vn -0.1882 -0.0020 0.9821
vn 0.2221 -0.9747 0.0243
vn -0.6887 0.7150 -0.1203
vn -0.0552 0.5535 0.8310
vn -0.0544 0.5577 0.8282
vn -0.0789 -0.5214 -0.8497
vn 0.8089 0.5051 -0.3008
vn 0.5956 -0.5625 -0.5735
vn 0.0736 0.8463 -0.5277
vn -0.3219 0.2771 -0.9053
vn -0.7346 -0.0441 0.6771
vn -0.0676 -0.8645 0.4981
vn 0.7612 0.0363 -0.6474
vn -0.1506 0.9491 -0.2766
vn 0.5263 0.8503 0.0094
vn -0.5896 -0.8074 0.0247
vn -0.8453 0.1398 0.5157
vn 0.7398 0.6405 0.2062
vn -0.0463 -0.9989 -0.0073
vn 0.0662 0.9952 -0.0728
vn 0.8127 -0.0098 -0.5826
vn -0.9350 -0.2315 0.2685
vn -0.4201 -0.5764 -0.7009
vn 0.6702 -0.3282 -0.6656
vn 0.8067 0.4459 -0.3878
vn 0.4947 0.0654 0.8666
vn 0.5327 0.0652 0.8438
vn 0.7280 -0.2241 -0.6480
vn -0.7960 0.0609 0.6022
vn -0.8891 -0.0557 0.4543
vn -0.1576 0.0238 0.9872
vn 0.8963 -0.3345 0.2913
vn 0.3787 0.3994 0.8349
vn -0.8532 -0.0192 0.5212
vn -0.7958 0.1486 0.5871
vn -0.9375 -0.2130 -0.2752
vn 0.9014 -0.4231 -0.0921
vn 0.9923 -0.0682 0.1033
vn -0.1386 -0.0284 0.9899
vn -0.2451 -0.9259 0.2874
vn 0.5045 -0.0010 -0.8634
vn -0.0899 0.0930 -0.9916
vn -0.3784 0.3980 0.8357
vn -0.1409 -0.2867 -0.9476
vn -0.2333 -0.7916 -0.5647
vn 0.1008 0.1757 0.9793
vn 0.8921 0.3482 -0.2880
vn 0.9137 -0.0261 0.4055
vn -0.0253 -0.9247 -0.3800
vn -0.9860 -0.0132 -0.1660
vn -0.4893 -0.2676 0.8301
vn -0.7226 0.2349 -0.6502
vn -0.9881 -0.0651 -0.1394
vn 0.9699 -0.2393 0.0451
vn -0.4643 0.0345 0.8850
vn 0.9678 0.0040 0.2518
vn 0.0941 0.8879 -0.4502
vn 0.7832 0.1159 -0.6109
vn -0.7119 0.0572 -0.6999
vn -0.1875 -0.6594 0.7280
vn 0.8049 0.0295 -0.5926
vn -0.7259 0.0161 -0.6876
vn 0.9899 -0.0722 0.1216
vn -0.2956 0.0879 -0.9513
vn 0.9126 0.3866 -0.1334
vn -0.6836 -0.3577 0.6362
vn 0.7859 0.5045 0.3576
vn 0.6573 0.7473 0.0973
vn -0.0122 -0.4337 0.9010
vn 0.1292 0.9133 0.3862
vn -0.3164 -0.9341 0.1654
vn -0.6450 0.5024 -0.5759
vn -0.2582 -0.9054 -0.3370
vn 0.1696 0.5908 0.7888
vn 0.0264 0.2001 0.9794
vn 0.4102 -0.2768 -0.8690
vn -0.2194 0.9753 -0.0247
vn 0.3197 -0.3620 -0.8757
vn -0.2183 0.0209 0.9757
vn -0.6914 0.7160 -0.0962
vn 0.1854 0.4863 0.8539
vn 0.1533 -0.6894 -0.7080
vn 0.4182 0.1539 -0.8952
vn 0.1609 0.7971 -0.5820
vn -0.6152 0.2809 -0.7366
vn -0.7379 -0.0297 0.6743
vn -0.0808 -0.8580 0.5073
vn 0.7556 0.0597 -0.6523
vn 0.8294 -0.0957 -0.5504
vn 0.0316 0.9994 -0.0139
vn 0.5802 0.8135 -0.0404
vn -0.5399 -0.8414 -0.0227
vn -0.9639 -0.2362 0.1229
vn -0.7466 0.6613 0.0733
vn 0.8160 0.0141 -0.5778
vn -0.3779 -0.6554 -0.6540
usemtl None
s off
f 44/1/1 45/2/1 43/3/1
f 4/4/2 7/5/2 6/6/2
f 5/7/3 6/6/3 7/5/3
f 1/8/4 5/9/4 7/10/4
f 69/11/5 4/12/5 70/13/5
f 34/14/6 39/15/6 32/16/6
f 37/17/7 41/18/7 40/19/7
f 29/20/8 40/19/8 30/21/8
f 37/17/9 40/19/9 29/20/9
f 38/22/10 42/23/10 36/24/10
f 36/24/11 42/23/11 35/25/11
f 44/1/12 47/26/12 45/2/12
f 19/27/13 20/28/13 57/29/13
f 63/30/14 65/31/14 66/32/14
f 8/33/15 12/34/15 13/35/15
f 62/36/16 64/37/16 61/38/16
f 66/32/17 67/39/17 64/37/17
f 71/40/18 72/41/18 73/42/18
f 77/43/19 79/44/19 86/45/19
f 80/46/20 83/47/20 82/48/20
f 81/49/21 83/50/21 80/51/21
f 78/52/22 86/45/22 87/53/22
f 3/54/23 86/45/23 78/52/23
f 2/55/24 87/53/24 85/56/24
f 90/57/25 91/58/25 88/59/25
f 89/60/26 91/61/26 90/57/26
f 76/62/27 75/63/27 74/64/27
f 18/65/28 4/66/28 73/67/28
f 13/68/29 17/69/29 8/70/29
f 6/71/30 71/72/30 4/66/30
f 10/73/31 17/74/31 12/75/31
f 82/48/32 8/33/32 80/46/32
f 14/76/33 18/77/33 15/78/33
f 15/79/34 13/35/34 14/80/34
f 15/81/35 55/82/35 17/74/35
f 34/14/36 26/83/36 33/84/36
f 28/85/37 21/86/37 30/21/37
f 44/87/38 56/88/38 68/89/38
f 19/27/39 58/90/39 60/91/39
f 20/28/40 12/75/40 21/86/40
f 21/86/41 17/74/41 22/92/41
f 22/92/42 55/82/42 57/29/42
f 23/93/43 14/94/43 24/95/43
f 25/96/44 14/94/44 13/35/44
f 25/96/45 12/34/45 26/83/45
f 26/83/46 56/88/46 23/93/46
f 35/25/47 29/20/47 27/97/47
f 28/85/48 57/29/48 20/28/48
f 33/84/49 23/93/49 31/98/49
f 30/21/50 22/92/50 29/20/50
f 27/97/51 22/92/51 57/29/51
f 34/14/52 24/95/52 25/96/52
f 32/16/53 23/93/53 24/95/53
f 36/24/54 30/21/54 38/22/54
f 38/22/55 37/17/55 42/23/55
f 36/24/56 27/97/56 28/85/56
f 39/15/57 31/98/57 32/16/57
f 44/1/58 43/3/58 14/99/58
f 33/84/59 31/98/59 39/100/59
f 38/22/60 30/21/60 40/19/60
f 37/17/61 38/22/61 41/18/61
f 38/22/62 40/19/62 41/18/62
f 37/17/63 35/25/63 42/23/63
f 4/12/64 1/8/64 7/10/64
f 72/101/65 56/102/65 55/82/65
f 70/13/66 14/103/66 43/3/66
f 50/104/67 45/2/67 47/26/67
f 46/105/68 44/1/68 70/13/68
f 46/105/69 43/3/69 45/2/69
f 52/106/70 50/104/70 49/107/70
f 49/107/71 47/26/71 46/105/71
f 49/107/72 45/2/72 48/108/72
f 51/109/73 49/107/73 48/108/73
f 51/109/74 50/104/74 53/110/74
f 53/110/75 52/106/75 54/111/75
f 55/82/76 11/112/76 16/113/76
f 55/82/77 19/27/77 57/29/77
f 63/30/78 59/114/78 60/91/78
f 11/112/79 56/102/79 20/28/79
f 59/114/80 16/113/80 11/112/80
f 59/114/81 20/28/81 60/91/81
f 63/30/82 58/90/82 61/38/82
f 20/28/83 19/27/83 60/91/83
f 61/38/84 59/114/84 62/36/84
f 65/31/85 61/38/85 64/37/85
f 65/31/86 64/37/86 67/39/86
f 64/37/87 63/30/87 66/32/87
f 68/115/88 70/116/88 44/117/88
f 66/32/89 65/31/89 67/39/89
f 74/64/90 69/118/90 85/119/90
f 71/40/91 1/120/91 69/118/91
f 74/64/92 72/41/92 71/40/92
f 75/121/93 68/115/93 72/101/93
f 85/56/94 68/115/94 84/122/94
f 90/57/95 2/55/95 89/60/95
f 87/123/96 74/64/96 85/119/96
f 86/45/97 75/121/97 77/43/97
f 79/124/98 77/125/98 76/62/98
f 76/62/99 87/123/99 79/124/99
f 82/126/100 9/127/100 10/73/100
f 80/51/101 9/128/101 81/49/101
f 85/56/102 3/54/102 2/55/102
f 81/129/103 82/126/103 83/130/103
f 90/57/104 3/54/104 78/52/104
f 3/54/105 84/122/105 86/45/105
f 2/55/106 78/52/106 87/53/106
f 89/60/107 3/54/107 88/59/107
f 91/58/108 89/60/108 88/59/108
f 8/33/109 10/131/109 12/34/109
f 76/62/110 77/125/110 75/63/110
f 73/67/111 72/132/111 18/65/111
f 72/132/112 55/133/112 18/65/112
f 15/134/113 17/69/113 13/68/113
f 17/69/114 9/128/114 8/70/114
f 5/135/115 71/72/115 6/71/115
f 71/72/116 73/67/116 4/66/116
f 10/73/117 9/127/117 17/74/117
f 82/48/118 10/131/118 8/33/118
f 14/76/119 4/4/119 18/77/119
f 15/81/120 18/136/120 55/82/120
f 34/14/121 25/96/121 26/83/121
f 28/85/122 20/28/122 21/86/122
f 44/87/123 14/94/123 56/88/123
f 19/27/124 16/113/124 58/90/124
f 20/28/125 56/102/125 12/75/125
f 21/86/126 12/75/126 17/74/126
f 22/92/127 17/74/127 55/82/127
f 23/93/128 56/88/128 14/94/128
f 25/96/129 24/95/129 14/94/129
f 25/96/130 13/35/130 12/34/130
f 26/83/131 12/34/131 56/88/131
f 35/25/132 37/17/132 29/20/132
f 28/85/133 27/97/133 57/29/133
f 33/84/134 26/83/134 23/93/134
f 30/21/135 21/86/135 22/92/135
f 27/97/136 29/20/136 22/92/136
f 34/14/137 32/16/137 24/95/137
f 32/16/138 31/98/138 23/93/138
f 36/24/139 28/85/139 30/21/139
f 36/24/140 35/25/140 27/97/140
f 39/15/141 34/14/141 33/84/141
f 4/12/142 69/11/142 1/8/142
f 72/101/143 68/115/143 56/102/143
f 70/13/144 4/12/144 14/103/144
f 50/104/145 48/108/145 45/2/145
f 46/105/146 47/26/146 44/1/146
f 46/105/147 70/13/147 43/3/147
f 52/106/148 53/110/148 50/104/148
f 49/107/149 50/104/149 47/26/149
f 49/107/150 46/105/150 45/2/150
f 54/137/151 51/109/151 53/110/151
f 51/109/152 52/106/152 49/107/152
f 51/109/153 48/108/153 50/104/153
f 54/111/154 52/106/154 51/109/154
f 55/82/155 56/102/155 11/112/155
f 55/82/156 16/113/156 19/27/156
f 63/30/157 62/36/157 59/114/157
f 59/114/158 58/90/158 16/113/158
f 59/114/159 11/112/159 20/28/159
f 63/30/160 60/91/160 58/90/160
f 61/38/161 58/90/161 59/114/161
f 65/31/162 63/30/162 61/38/162
f 64/37/163 62/36/163 63/30/163
f 68/115/164 69/138/164 70/116/164
f 74/64/165 71/40/165 69/118/165
f 71/40/166 5/139/166 1/120/166
f 74/64/167 75/63/167 72/41/167
f 75/121/168 84/122/168 68/115/168
f 85/56/169 69/138/169 68/115/169
f 87/53/170 86/45/170 79/44/170
f 90/57/171 78/52/171 2/55/171
f 87/123/172 76/62/172 74/64/172
f 86/45/173 84/122/173 75/121/173
f 82/126/174 81/129/174 9/127/174
f 80/51/175 8/70/175 9/128/175
f 85/56/176 84/122/176 3/54/176
f 90/57/177 88/59/177 3/54/177
f 89/60/107 2/55/107 3/54/107
