# Blender v2.83.1 OBJ File: 'thrue level two.blend'
# www.blender.org
mtllib path2.mtl
o newfloor_Plane
v -3.751166 0.000000 -18.650278
v 15.004454 0.000000 15.428772
v -5.106122 0.000000 -4.496129
v 17.669813 0.000000 -1.102837
v 16.147501 0.000000 -3.030607
v 4.036266 0.000000 -10.761046
v -15.644062 0.000000 -10.602663
v 26.245716 0.000000 -8.570442
v 25.434963 0.000000 -10.469984
v 3.069146 0.000000 -3.304496
v -15.466705 0.000000 -4.642611
v 4.045688 0.063769 -10.653166
v -15.381424 0.063769 -10.518579
v 26.112598 0.190299 -9.449543
v 25.169056 0.190299 -10.405834
v -16.838840 0.063769 -9.751453
v 5.503613 0.063769 -9.479532
v -16.570107 0.000000 -2.895967
v -16.315737 0.000000 -0.862828
v 3.084624 0.000000 -1.247852
v -16.617699 0.085440 -2.102753
v -16.235928 0.085440 -0.893085
v 2.579041 0.085440 -1.272914
v 2.564334 0.085440 -2.486799
v 17.532228 0.085440 -1.114506
v 16.047472 0.085440 -2.247601
v 5.513196 0.000000 -9.379902
v 26.390804 0.000000 -9.344610
v -17.120476 0.000000 -9.699903
v -16.712009 0.000000 -2.118437
v 3.069092 0.000000 -2.529917
v 16.159039 0.000000 -2.255787
vt 0.072450 0.477744
vt 0.088510 0.984828
vt 0.088510 0.984828
vt 0.451464 0.524274
vt 0.411808 0.983038
vt 0.451464 0.524274
vt 0.773660 0.044704
vt 0.715223 0.044846
vt 0.715223 0.044846
vt 0.927988 0.501146
vt 0.755790 0.534688
vt 0.927988 0.501146
vt 0.000000 0.500000
vt 0.072450 0.477744
vt 0.090979 0.035253
vt 0.414367 0.024902
vt 0.414367 0.024902
vt 0.090979 0.035253
vt 0.411808 0.983038
vt 1.000000 0.500000
vt 0.773660 0.044704
vt 0.558699 0.497323
vt 0.732921 0.534829
vt 0.558699 0.497323
vt 0.732921 0.534829
vt 0.755790 0.534688
vt 0.425806 0.942929
vt 0.467166 0.509663
vt 0.434228 0.055424
vt 0.672650 0.068569
vt 0.542576 0.496265
vt 0.683251 0.529718
vn 0.0128 0.3354 -0.9420
vn -0.0060 0.8420 0.5395
vn -0.6752 0.7062 0.2131
vn -0.0103 0.2247 0.9744
vn 0.0000 1.0000 0.0000
vn -0.0061 1.0000 0.0076
vn -0.0107 0.6567 0.7541
vn -0.0035 0.8610 -0.5086
vn -0.1436 0.9513 -0.2728
vn 0.6076 0.6037 -0.5161
vn -0.0194 0.3566 -0.9341
vn 0.0191 0.3178 0.9480
vn 0.0208 0.1222 -0.9923
vn 0.4581 0.6556 -0.6002
vn 0.0008 0.8608 -0.5089
vn -0.0015 0.4812 0.8766
vn -0.0099 0.1197 0.9928
vn -0.0061 1.0000 0.0061
vn -0.0066 0.8419 0.5395
vn -0.0048 0.8039 -0.5947
vn -0.2747 0.8501 -0.4493
vn 0.4487 0.7763 -0.4428
vn -0.0196 0.2014 -0.9793
vn 0.0184 0.3799 0.9248
vn 0.0151 0.5204 -0.8538
vn 0.4581 0.6557 -0.6002
usemtl None
s off
f 6/1/1 15/2/1 9/3/1
f 27/4/2 14/5/2 17/6/2
f 19/7/3 21/8/3 30/9/3
f 20/10/4 25/11/4 23/12/4
f 9/3/5 1/13/5 6/1/5
f 17/6/6 15/2/6 12/14/6
f 13/15/5 17/6/5 12/14/5
f 27/4/7 16/16/7 29/17/7
f 6/1/8 13/15/8 12/14/8
f 7/18/9 16/16/9 13/15/9
f 9/3/10 14/5/10 28/19/10
f 19/7/5 2/20/5 20/10/5
f 22/21/5 24/22/5 21/8/5
f 26/23/5 23/12/5 25/11/5
f 30/9/11 24/22/11 31/24/11
f 19/7/12 23/12/12 22/21/12
f 31/24/13 26/23/13 32/25/13
f 32/25/14 25/11/14 4/26/14
f 8/27/5 27/4/5 3/28/5
f 3/28/5 29/17/5 11/29/5
f 18/30/5 31/24/5 10/31/5
f 5/32/5 31/24/5 32/25/5
f 6/1/15 12/14/15 15/2/15
f 27/4/16 28/19/16 14/5/16
f 19/7/3 22/21/3 21/8/3
f 20/10/17 4/26/17 25/11/17
f 7/18/5 6/1/5 1/13/5
f 17/6/18 14/5/18 15/2/18
f 13/15/5 16/16/5 17/6/5
f 27/4/19 17/6/19 16/16/19
f 6/1/20 7/18/20 13/15/20
f 7/18/21 29/17/21 16/16/21
f 9/3/22 15/2/22 14/5/22
f 4/26/5 20/10/5 2/20/5
f 22/21/5 23/12/5 24/22/5
f 26/23/5 24/22/5 23/12/5
f 30/9/23 21/8/23 24/22/23
f 19/7/24 20/10/24 23/12/24
f 31/24/25 24/22/25 26/23/25
f 32/25/26 26/23/26 25/11/26
f 8/27/5 28/19/5 27/4/5
f 3/28/5 27/4/5 29/17/5
f 18/30/5 30/9/5 31/24/5
f 5/32/5 10/31/5 31/24/5
