# Blender v2.83.1 OBJ File: 'thrue level three.blend'
# www.blender.org
mtllib path3.mtl
o street_Plane.009
v -8.019333 -0.150000 24.729790
v 2.807335 -0.150000 24.729790
v 2.807335 -0.150000 -17.098532
v 2.807335 -0.150000 -31.880939
v 2.807335 -0.150000 11.408657
v 2.807335 -0.150000 -2.316114
v -8.019333 -0.150000 -33.140144
v -8.019333 -0.150000 -2.857149
v -8.019333 -0.150000 11.408661
v -8.019333 -0.150000 -17.639561
v -111.496155 -0.150000 -51.301346
v -111.496155 -0.150000 -40.537498
v -24.779570 -0.150000 -51.301346
v -17.115276 -0.150000 -51.301346
v 2.807335 -0.150000 -141.432663
v 2.807335 -0.150000 -154.778198
v -69.126801 -0.150000 -40.537498
v -54.344391 -0.150000 -40.537498
v 2.807335 -0.150000 -82.303024
v 2.807335 -0.150000 -97.085434
v -8.019333 -0.150000 -97.085434
v -39.561977 -0.150000 -40.537498
v -24.779570 -0.150000 -40.537498
v 2.807335 -0.150000 -111.867851
v 2.807335 -0.150000 -126.650253
v -98.691620 -0.150000 -40.537498
v -83.909210 -0.150000 -40.537498
v 2.807335 -0.150000 -59.856319
v 2.807335 -0.150000 -67.520607
v -8.019333 -0.150000 -126.650253
v -8.019333 -0.150000 -67.520607
v -17.115276 -0.150000 -40.537498
v -8.019333 -0.150000 -154.778198
v -54.344391 -0.150000 -51.301346
v -83.909210 -0.150000 -51.301346
v -39.561977 -0.150000 -51.301346
v -8.019333 -0.150000 -82.303024
v -8.019333 -0.150000 -141.432663
v -98.691620 -0.150000 -51.301346
v -69.126801 -0.150000 -51.301346
v -8.019333 -0.150000 -111.867844
v 2.807335 -0.150000 -53.557465
v -8.019283 -0.150000 -60.938358
vt 0.891725 0.250000
vt 0.891725 0.125000
vt 0.983275 0.125000
vt 0.983275 0.250000
vt 0.891725 0.625000
vt 0.891725 0.500000
vt 0.983275 0.500000
vt 0.983275 0.625000
vt 0.891725 0.375000
vt 0.983275 0.375000
vt 0.891725 0.016725
vt 0.983275 0.016725
vt 0.872014 0.987217
vt 0.891725 0.500000
vt 0.983275 0.500000
vt 0.891725 0.125000
vt 0.891725 0.016725
vt 0.983275 0.016725
vt 0.983275 0.125000
vt 0.891725 0.250000
vt 0.983275 0.250000
vt 0.983275 0.375000
vt 0.891725 0.375000
vt 0.125000 0.891725
vt 0.125000 0.983275
vt 0.016725 0.983275
vt 0.016725 0.891725
vt 0.882884 0.882884
vt 0.987217 0.872014
vt 0.250000 0.891725
vt 0.375000 0.891725
vt 0.375000 0.983275
vt 0.250000 0.983275
vt 0.823241 0.895538
vt 0.812500 0.983275
vt 0.750000 0.983275
vt 0.750000 0.891725
vt 0.625000 0.983275
vt 0.625000 0.891725
vt 0.500000 0.983275
vt 0.500000 0.891725
vt 0.891725 0.750000
vt 0.983275 0.750000
vt 0.983275 0.812500
vt 0.895538 0.823241
vt 0.889291 0.889291
vn 0.0000 1.0000 0.0000
usemtl None
s off
f 8/1/1 9/2/1 5/3/1 6/4/1
f 36/5/1 34/6/1 18/7/1 22/8/1
f 10/9/1 8/1/1 6/4/1 3/10/1
f 9/2/1 1/11/1 2/12/1 5/3/1
f 42/13/1 7/14/1 4/15/1
f 39/16/1 11/17/1 12/18/1 26/19/1
f 35/20/1 27/21/1 17/22/1 40/23/1
f 38/24/1 15/25/1 16/26/1 33/27/1
f 14/28/1 32/29/1 42/13/1
f 30/30/1 41/31/1 24/32/1 25/33/1
f 43/34/1 28/35/1 29/36/1 31/37/1
f 43/34/1 42/13/1 28/35/1
f 25/33/1 15/25/1 38/24/1 30/30/1
f 19/38/1 37/39/1 31/37/1 29/36/1
f 34/6/1 40/23/1 17/22/1 18/7/1
f 7/14/1 10/9/1 3/10/1 4/15/1
f 20/40/1 24/32/1 41/31/1 21/41/1
f 13/42/1 23/43/1 32/44/1 14/45/1
f 20/40/1 21/41/1 37/39/1 19/38/1
f 36/5/1 22/8/1 23/43/1 13/42/1
f 42/13/1 32/29/1 7/14/1
f 43/34/1 14/46/1 42/13/1
f 35/20/1 39/16/1 26/19/1 27/21/1
o cementery_Plane.006
v -22.700693 0.000000 -150.454773
v -27.276756 0.000000 -138.822296
v -35.359062 0.000000 -135.262482
v -47.453087 0.000000 -127.597679
v -38.999378 0.000000 -130.724579
v -34.540298 0.000000 -161.187073
v -45.930527 0.000000 -153.472748
v -49.924335 0.000000 -148.294556
v -59.292694 0.000000 -137.733734
v -55.183014 0.000000 -146.056458
vt 0.000000 0.875000
vt 0.000000 0.875000
vt 0.000000 0.875000
vt 0.000000 0.875000
vt 0.125000 0.875000
vt 0.000000 0.875000
vt 0.000000 0.875000
vt 0.125000 0.875000
vt 0.250000 0.875000
vt 0.250000 0.875000
vn 0.0000 1.0000 0.0000
usemtl None
s off
f 45/47/2 44/48/2 49/49/2 50/50/2
f 48/51/2 46/52/2 51/53/2 53/54/2
f 46/52/2 45/47/2 50/50/2 51/53/2
f 47/55/2 48/51/2 53/54/2 52/56/2
