# Blender v2.83.1 OBJ File: 'thrue level three.blend'
# www.blender.org
mtllib shower.mtl
o house_shower_Cube.013
v -0.398358 -0.193654 0.307574
v -0.398357 2.391670 -0.711847
v 0.644626 2.314240 -0.711846
v 0.644626 2.391670 -0.711846
v 0.644626 -0.193653 -0.711846
v 0.644625 -0.193654 0.307574
v 0.644625 2.391670 0.307574
v -0.398357 -0.193654 -0.711847
v -0.396819 0.029896 0.311047
v 0.644625 -0.055053 0.307574
v 0.644625 -0.014869 0.300837
v 0.644625 0.083325 0.273888
v -0.398358 -0.033748 0.298153
v 0.617479 2.320639 0.302679
v -0.397957 2.381591 0.309953
v -0.322160 0.094523 0.290442
v -0.322160 2.304643 0.290442
v -0.277315 2.207840 -0.228556
v -0.277315 2.153102 -0.228556
v -0.170524 2.298065 -0.230994
v -0.170524 2.234448 -0.230994
v 0.619697 0.075327 0.305127
v 0.644625 2.315840 0.273888
v 0.644626 0.081726 -0.711846
v -0.277315 2.207840 -0.187913
v -0.277315 2.153102 -0.187913
v -0.170524 2.276860 -0.183757
v -0.253316 2.313995 -0.711847
v -0.252083 2.315595 0.250766
v -0.260710 1.337372 -0.084012
v -0.260710 1.218872 -0.084012
v -0.260710 1.337372 -0.381022
v -0.260710 1.218872 -0.381022
v -0.252083 0.083080 0.250766
v -0.250851 0.081480 -0.711847
v -0.176489 1.337372 -0.084012
v -0.176489 1.218872 -0.084012
v -0.176489 1.337372 -0.381022
v -0.176489 1.218872 -0.381022
v 0.096444 2.067161 -0.230994
v 0.134921 2.117825 -0.230994
v 0.122096 2.100936 -0.183757
v -0.022411 1.952753 -0.210090
v 0.332357 2.009430 -0.357282
v 0.273810 2.009430 -0.062897
vt 0.498665 0.000000
vt 0.375000 0.250000
vt 0.375000 0.000000
vt 0.375000 0.500000
vt 0.375000 0.750000
vt 0.125000 0.500000
vt 0.507636 0.756250
vt 0.507636 0.993750
vt 0.505029 0.998733
vt 0.602132 0.585697
vt 0.527234 0.585697
vt 0.527234 0.545553
vt 0.602132 0.545553
vt 0.498665 1.000000
vt 0.497687 0.750000
vt 0.502857 0.750000
vt 0.625000 0.000000
vt 0.504366 0.000000
vt 0.602132 0.545553
vt 0.577166 0.545553
vt 0.577166 0.545553
vt 0.602132 0.545553
vt 0.625000 0.750000
vt 0.625000 0.500000
vt 0.875000 0.500000
vt 0.875000 0.750000
vt 0.602132 0.585697
vt 0.527234 0.545553
vt 0.527234 0.585697
vt 0.125000 0.750000
vt 0.375000 1.000000
vt 0.621730 0.506250
vt 0.621730 0.506250
vt 0.625000 0.250000
vt 0.621730 0.743750
vt 0.507636 0.506250
vt 0.507636 0.743750
vt 0.507636 0.506250
vt 0.621730 0.756250
vt 0.624720 0.999465
vt 0.621730 0.993750
vt 0.527234 0.585697
vt 0.507636 0.743750
vt 0.621730 0.743750
vt 0.527234 0.545553
vt 0.602132 0.545553
vt 0.602132 0.585697
vt 0.527234 0.585697
vt 0.602132 0.585697
vt 0.577166 0.545553
vt 0.602132 0.545553
vt 0.527234 0.545553
vt 0.527234 0.545553
vn -1.0000 0.0000 -0.0000
vn 0.0000 -1.0000 -0.0000
vn -0.0084 0.3126 0.9498
vn 1.0000 0.0000 0.0000
vn -0.0055 0.1653 0.9862
vn -0.9927 -0.0004 0.1206
vn 0.0078 -0.0453 0.9989
vn 0.4724 0.7933 0.3840
vn -0.0048 1.0000 0.0049
vn -0.0228 0.0000 -0.9997
vn -0.0042 0.0315 0.9995
vn 0.0000 -0.0000 -1.0000
vn 0.0011 -0.1986 0.9801
vn -0.0120 -0.0009 0.9999
vn 0.0030 -0.0699 0.9976
vn -0.0143 0.0005 0.9999
vn 0.6526 -0.6824 0.3293
vn 0.2577 0.0003 0.9662
vn -0.0083 -0.2534 0.9673
vn 0.0258 0.0000 -0.9997
vn -0.0003 1.0000 -0.0016
vn -0.0389 0.0000 0.9992
vn -0.5879 0.7864 0.1898
vn 0.9997 0.0000 -0.0258
vn 1.0000 -0.0082 -0.0010
vn 1.0000 0.0081 0.0010
vn 0.9997 0.0010 0.0258
vn -1.0000 0.0001 0.0002
vn 0.0003 -1.0000 0.0016
vn 0.0000 1.0000 0.0000
vn 0.0000 0.0000 1.0000
vn 0.4933 0.8576 0.1455
vn -0.4024 -0.6561 0.6384
vn 0.1714 -0.9846 0.0341
vn -0.5532 0.4107 0.7248
vn -0.4016 0.2720 -0.8745
usemtl None
s off
f 13/1/1 8/2/1 1/3/1
f 5/4/2 6/5/2 8/6/2
f 22/7/3 16/8/3 9/9/3
f 36/10/4 37/11/4 39/12/4 38/13/4
f 13/14/5 10/15/5 11/16/5
f 15/17/6 13/1/6 9/18/6
f 9/9/7 11/16/7 22/7/7
f 6/5/4 5/4/4 11/16/4 10/15/4
f 20/19/8 27/20/8 42/21/8 41/22/8
f 7/23/9 4/24/9 2/25/9 15/26/9
f 18/27/10 20/19/10 21/28/10 19/29/10
f 8/6/2 6/5/2 1/30/2
f 1/31/11 6/5/11 10/15/11 13/14/11
f 4/24/12 3/32/12 28/33/12 2/34/12
f 7/23/4 23/35/4 3/32/4 4/24/4
f 9/9/13 13/14/13 11/16/13
f 11/16/4 5/4/4 24/36/4 12/37/4
f 8/6/12 35/38/12 24/36/12 5/4/12
f 11/16/4 12/37/4 23/35/4 7/23/4
f 7/23/14 14/39/14 22/7/14 11/16/14
f 15/40/15 14/39/15 7/23/15
f 16/8/16 22/7/16 14/39/16 17/41/16
f 26/42/17 19/29/17 21/28/17 27/20/17
f 17/41/18 15/40/18 9/9/18 16/8/18
f 14/39/19 15/40/19 17/41/19
f 23/35/20 12/37/20 34/43/20 29/44/20
f 33/45/12 32/46/12 38/13/12 39/12/12
f 12/37/21 24/36/21 35/38/21 34/43/21
f 25/47/1 18/27/1 19/29/1 26/42/1
f 27/20/22 25/47/22 26/42/22
f 27/20/23 20/19/23 18/27/23 25/47/23
f 29/44/24 34/43/24 31/48/24 30/49/24
f 28/33/25 29/44/25 30/49/25 32/46/25
f 35/38/26 33/45/26 31/48/26 34/43/26
f 28/33/27 32/46/27 33/45/27 35/38/27
f 15/17/28 2/34/28 8/2/28 13/1/28
f 3/32/29 23/35/29 29/44/29 28/33/29
f 28/33/12 35/38/12 8/6/12 2/34/12
f 32/46/30 30/49/30 36/10/30 38/13/30
f 31/48/2 33/45/2 39/12/2 37/11/2
f 30/49/31 31/48/31 37/11/31 36/10/31
f 41/22/32 42/21/32 45/50/32 44/51/32
f 27/20/33 21/28/33 40/52/33 42/21/33
f 21/28/12 20/19/12 41/22/12 40/52/12
f 44/51/34 45/50/34 43/53/34
f 42/21/35 40/52/35 43/53/35 45/50/35
f 40/52/36 41/22/36 44/51/36 43/53/36
