# Blender v2.83.1 OBJ File: 'thrue level three.blend'
# www.blender.org
mtllib shower.mtl
o shower_Cube.013
v -0.405601 -0.243905 -0.550168
v 0.613820 2.341419 -0.550168
v 0.613820 2.263989 0.492815
v 0.613820 2.341419 0.492815
v 0.613820 -0.243905 0.492815
v -0.405600 -0.243905 0.492815
v -0.405600 2.341419 0.492815
v 0.613820 -0.243905 -0.550168
v -0.409074 -0.020356 -0.548629
v -0.405600 -0.105304 0.492815
v -0.398863 -0.065121 0.492815
v -0.371915 0.033073 0.492815
v -0.396179 -0.084000 -0.550168
v -0.400706 2.270388 0.465668
v -0.407979 2.331340 -0.549768
v -0.388468 0.044271 -0.473970
v -0.388468 2.254391 -0.473970
v 0.130530 2.157588 -0.429126
v 0.130530 2.102850 -0.429126
v 0.130530 2.157588 -0.291931
v 0.130530 2.102850 -0.291931
v -0.403153 0.025075 0.467887
v -0.371915 2.265589 0.492815
v 0.613820 0.031474 0.492815
v 0.089887 2.157588 -0.429126
v 0.089887 2.102850 -0.429126
v 0.089887 2.139342 -0.291931
v 0.613820 2.263744 -0.405127
v -0.348792 2.265343 -0.403894
v -0.014014 1.287120 -0.412521
v -0.014014 1.168621 -0.412521
v 0.282996 1.287120 -0.412521
v 0.282996 1.168621 -0.412521
v -0.348792 0.032828 -0.403894
v 0.613820 0.031229 -0.402662
v -0.014014 1.287120 -0.328300
v -0.014014 1.168621 -0.328300
v 0.282996 1.287120 -0.328300
v 0.282996 1.168621 -0.328300
v 0.130530 1.958915 -0.062227
v 0.130530 2.002506 -0.029121
v 0.089887 1.987976 -0.040156
v 0.112543 1.860476 -0.164492
v 0.239190 1.909241 0.140756
v -0.014104 1.909241 0.090382
vt 0.498665 0.000000
vt 0.375000 0.250000
vt 0.375000 0.000000
vt 0.375000 0.500000
vt 0.375000 0.750000
vt 0.125000 0.500000
vt 0.507636 0.756250
vt 0.507636 0.993750
vt 0.505029 0.998733
vt 0.602132 0.585697
vt 0.527234 0.585697
vt 0.527234 0.545553
vt 0.602132 0.545553
vt 0.498665 1.000000
vt 0.497687 0.750000
vt 0.502857 0.750000
vt 0.625000 0.000000
vt 0.504366 0.000000
vt 0.602132 0.545553
vt 0.577166 0.545553
vt 0.577166 0.545553
vt 0.602132 0.545553
vt 0.625000 0.750000
vt 0.625000 0.500000
vt 0.875000 0.500000
vt 0.875000 0.750000
vt 0.602132 0.585697
vt 0.527234 0.545553
vt 0.527234 0.585697
vt 0.125000 0.750000
vt 0.375000 1.000000
vt 0.621730 0.506250
vt 0.621730 0.506250
vt 0.625000 0.250000
vt 0.621730 0.743750
vt 0.507636 0.506250
vt 0.507636 0.743750
vt 0.507636 0.506250
vt 0.621730 0.756250
vt 0.624720 0.999465
vt 0.621730 0.993750
vt 0.527234 0.585697
vt 0.507636 0.743750
vt 0.621730 0.743750
vt 0.527234 0.545553
vt 0.602132 0.545553
vt 0.602132 0.585697
vt 0.527234 0.585697
vt 0.602132 0.585697
vt 0.577166 0.545553
vt 0.602132 0.545553
vt 0.527234 0.545553
vt 0.527234 0.545553
vn 0.0000 0.0000 -1.0000
vn 0.0000 -1.0000 0.0000
vn -0.9498 0.3126 -0.0084
vn 0.0000 0.0000 1.0000
vn -0.9862 0.1653 -0.0055
vn -0.1206 -0.0004 -0.9927
vn -0.9989 -0.0453 0.0078
vn -0.3840 0.7933 0.4724
vn -0.0049 1.0000 -0.0048
vn 1.0000 0.0000 -0.0000
vn -0.9995 0.0315 -0.0042
vn -0.9801 -0.1986 0.0011
vn -0.9999 -0.0009 -0.0120
vn -0.9976 -0.0699 0.0030
vn -0.9999 0.0005 -0.0143
vn -0.4066 -0.9056 0.1204
vn -0.9662 0.0003 0.2577
vn -0.9673 -0.2534 -0.0083
vn 0.9997 0.0000 0.0258
vn 0.0016 1.0000 -0.0003
vn -1.0000 0.0000 0.0000
vn -0.2186 0.9737 0.0647
vn 0.0258 0.0000 0.9997
vn 0.0010 -0.0082 1.0000
vn -0.0010 0.0081 1.0000
vn -0.0258 0.0010 0.9997
vn -0.0002 0.0001 -1.0000
vn -0.0016 -1.0000 0.0003
vn 0.0000 1.0000 0.0000
vn -0.1455 0.8576 0.4933
vn -0.6384 -0.6561 -0.4024
vn -0.0341 -0.9846 0.1714
vn -0.7248 0.4107 -0.5532
vn 0.8745 0.2720 -0.4016
usemtl None
s off
f 13/1/1 8/2/1 1/3/1
f 5/4/2 6/5/2 8/6/2
f 22/7/3 16/8/3 9/9/3
f 36/10/4 37/11/4 39/12/4 38/13/4
f 13/14/5 10/15/5 11/16/5
f 15/17/6 13/1/6 9/18/6
f 9/9/7 11/16/7 22/7/7
f 6/5/4 5/4/4 11/16/4 10/15/4
f 20/19/8 27/20/8 42/21/8 41/22/8
f 7/23/9 4/24/9 2/25/9 15/26/9
f 18/27/10 20/19/10 21/28/10 19/29/10
f 8/6/2 6/5/2 1/30/2
f 1/31/11 6/5/11 10/15/11 13/14/11
f 4/24/10 3/32/10 28/33/10 2/34/10
f 7/23/4 23/35/4 3/32/4 4/24/4
f 9/9/12 13/14/12 11/16/12
f 11/16/4 5/4/4 24/36/4 12/37/4
f 8/6/10 35/38/10 24/36/10 5/4/10
f 11/16/4 12/37/4 23/35/4 7/23/4
f 7/23/13 14/39/13 22/7/13 11/16/13
f 15/40/14 14/39/14 7/23/14
f 16/8/15 22/7/15 14/39/15 17/41/15
f 26/42/16 19/29/16 21/28/16 27/20/16
f 17/41/17 15/40/17 9/9/17 16/8/17
f 14/39/18 15/40/18 17/41/18
f 23/35/19 12/37/19 34/43/19 29/44/19
f 33/45/10 32/46/10 38/13/10 39/12/10
f 12/37/20 24/36/20 35/38/20 34/43/20
f 25/47/1 18/27/1 19/29/1 26/42/1
f 27/20/21 25/47/21 26/42/21
f 27/20/22 20/19/22 18/27/22 25/47/22
f 29/44/23 34/43/23 31/48/23 30/49/23
f 28/33/24 29/44/24 30/49/24 32/46/24
f 35/38/25 33/45/25 31/48/25 34/43/25
f 28/33/26 32/46/26 33/45/26 35/38/26
f 15/17/27 2/34/27 8/2/27 13/1/27
f 3/32/28 23/35/28 29/44/28 28/33/28
f 28/33/10 35/38/10 8/6/10 2/34/10
f 32/46/29 30/49/29 36/10/29 38/13/29
f 31/48/2 33/45/2 39/12/2 37/11/2
f 30/49/21 31/48/21 37/11/21 36/10/21
f 41/22/30 42/21/30 45/50/30 44/51/30
f 27/20/31 21/28/31 40/52/31 42/21/31
f 21/28/10 20/19/10 41/22/10 40/52/10
f 44/51/32 45/50/32 43/53/32
f 42/21/33 40/52/33 43/53/33 45/50/33
f 40/52/34 41/22/34 44/51/34 43/53/34
