# Blender v2.83.1 OBJ File: 'thrue.blend'
# www.blender.org
mtllib sign.mtl
o sign_Cube.008
v -0.090992 2.082876 -0.092819
v 0.099831 2.082876 -0.092819
v 0.099831 2.082876 0.080943
v -0.090992 2.082876 0.080943
v -0.090992 2.419278 -0.092819
v 0.099831 2.419278 -0.092819
v 0.099831 2.419278 0.080943
v -0.090992 2.419278 0.080943
v -0.203775 2.502557 -0.195518
v 0.212614 2.502557 -0.195518
v 0.212614 2.502557 0.183642
v -0.203775 2.502557 0.183643
v -0.168103 2.759514 -0.133681
v 0.144705 2.736488 -0.133681
v 0.144705 2.736488 0.121805
v -0.168103 2.759514 0.121805
v -0.043227 3.004590 -0.150226
v 0.268513 2.846015 -0.150226
v 0.268513 2.846015 0.138350
v -0.043227 3.004590 0.138350
v 0.164130 3.189662 -0.195518
v 0.612629 3.170187 -0.195518
v 0.612628 3.170187 0.183642
v 0.164130 3.189662 0.183643
v 0.186541 3.419605 -0.232730
v 0.660942 3.627801 -0.232730
v 0.660942 3.627801 0.220855
v 0.186541 3.419605 0.220855
v 0.153538 3.646757 -0.232730
v 0.283794 4.091657 -0.232730
v 0.283794 4.091657 0.220855
v 0.153538 3.646757 0.220855
v -0.016422 3.730395 -0.195518
v -0.196902 4.073601 -0.195518
v -0.196902 4.073601 0.183642
v -0.016422 3.730395 0.183643
v -0.125217 3.607973 -0.195518
v -0.503611 3.781746 -0.195518
v -0.503611 3.781746 0.183642
v -0.125217 3.607973 0.183643
v -0.279857 3.423608 -0.125147
v -0.533377 3.489045 -0.125147
v -0.533377 3.489045 0.113272
v -0.279857 3.423608 0.113272
vt 0.742257 0.658925
vt 0.742257 0.591075
vt 0.742257 0.658925
vt 0.757743 0.658925
vt 0.757743 0.591075
vt 0.757743 0.591075
vt 0.742257 0.591075
vt 0.742257 0.658925
vt 0.742257 0.658925
vt 0.757743 0.591075
vt 0.757743 0.658925
vt 0.757743 0.591075
vt 0.742257 0.591075
vt 0.742257 0.658925
vt 0.742257 0.658925
vt 0.757743 0.591075
vt 0.757743 0.658925
vt 0.757743 0.591075
vt 0.742257 0.591075
vt 0.742257 0.658925
vt 0.757743 0.658925
vt 0.757743 0.591075
vt 0.742257 0.658925
vt 0.757743 0.658925
vt 0.742257 0.591075
vt 0.757743 0.658925
vt 0.757743 0.591075
vt 0.757743 0.658925
vt 0.757743 0.658925
vt 0.742257 0.591075
vt 0.742257 0.591075
vt 0.742257 0.591075
vt 0.742257 0.658925
vt 0.757743 0.658925
vt 0.757743 0.591075
vt 0.742257 0.591075
vt 0.742257 0.658925
vt 0.742257 0.658925
vt 0.742257 0.591075
vt 0.757743 0.591075
vt 0.757743 0.658925
vt 0.757743 0.658925
vt 0.757743 0.591075
vt 0.742257 0.591075
vn 0.0000 -0.7767 0.6298
vn 0.0000 -0.7767 -0.6298
vn -0.0048 -0.0649 0.9979
vn -0.0057 -0.1324 -0.9912
vn 0.0000 0.0000 1.0000
vn 0.0000 -0.0000 -1.0000
vn -0.1877 0.0549 0.9807
vn -0.0756 -0.0398 -0.9963
vn -0.9953 0.0970 0.0000
vn -0.0048 -0.0649 -0.9979
vn -0.0057 -0.1324 0.9912
vn -0.0756 -0.0398 0.9963
vn -0.1877 0.0549 -0.9807
vn -0.9896 -0.1438 -0.0000
vn -1.0000 0.0000 0.0000
vn -0.6659 0.7461 0.0000
vn -0.4415 -0.8972 0.0000
vn -0.6893 0.7244 0.0000
vn -0.0939 -0.2481 0.9642
vn -0.0672 -0.1321 0.9890
vn -0.5940 -0.8045 -0.0000
vn 0.9604 0.2788 0.0000
vn -0.9949 0.1012 -0.0000
vn -0.0939 -0.2481 -0.9642
vn 0.6857 -0.7279 0.0000
vn 0.0077 0.2448 -0.9695
vn 0.0077 0.2448 0.9695
vn -0.9905 0.1375 0.0000
vn -0.8910 0.4540 0.0000
vn 0.7475 -0.6643 0.0000
vn -0.0375 0.9993 0.0000
vn 0.6626 -0.7490 0.0000
vn 0.0225 -0.1099 0.9937
vn 0.9945 -0.1050 0.0000
vn -0.0672 -0.1321 -0.9890
vn 0.5940 -0.8045 0.0000
vn 0.7759 0.6309 0.0000
vn 0.0225 -0.1099 -0.9937
vn -0.2499 -0.9683 -0.0000
vn 0.7662 -0.6426 0.0000
vn 1.0000 0.0000 0.0000
usemtl None
s off
f 8/1/1 11/2/1 12/3/1
f 5/4/2 10/5/2 6/6/2
f 15/7/3 20/8/3 16/9/3
f 18/10/4 21/11/4 22/12/4
f 27/13/5 32/14/5 28/15/5
f 26/16/6 29/17/6 30/18/6
f 31/19/7 36/20/7 32/14/7
f 30/18/8 33/21/8 34/22/8
f 24/23/9 28/15/9 25/24/9 21/11/9
f 8/1/1 7/25/1 11/2/1
f 5/4/2 9/26/2 10/5/2
f 14/27/10 13/28/10 17/29/10
f 19/30/11 23/31/11 24/23/11
f 27/13/5 31/19/5 32/14/5
f 26/16/6 25/24/6 29/17/6
f 31/19/12 35/32/12 36/20/12
f 30/18/13 29/17/13 33/21/13
f 32/14/14 29/17/14 25/24/14 28/15/14
f 4/33/15 8/1/15 5/4/15 1/34/15
f 17/29/16 20/8/16 24/23/16 21/11/16
f 36/20/17 33/21/17 29/17/17 32/14/17
f 34/22/18 38/35/18 39/36/18 35/32/18
f 44/37/19 40/38/19 39/36/19 43/39/19
f 20/8/20 15/7/20 19/30/20 24/23/20
f 12/3/21 9/26/21 5/4/21 8/1/21
f 10/5/22 14/27/22 15/7/22 11/2/22
f 42/40/23 43/39/23 39/36/23 38/35/23
f 41/41/24 42/40/24 38/35/24 37/42/24
f 18/10/25 22/12/25 23/31/25 19/30/25
f 14/27/26 10/5/26 9/26/26 13/28/26
f 15/7/27 16/9/27 12/3/27 11/2/27
f 40/38/5 36/20/5 35/32/5 39/36/5
f 12/3/28 16/9/28 13/28/28 9/26/28
f 17/29/29 13/28/29 16/9/29 20/8/29
f 36/20/30 40/38/30 37/42/30 33/21/30
f 30/18/31 34/22/31 35/32/31 31/19/31
f 14/27/32 18/10/32 19/30/32 15/7/32
f 28/15/33 24/23/33 23/31/33 27/13/33
f 22/12/34 26/16/34 27/13/34 23/31/34
f 37/42/6 38/35/6 34/22/6 33/21/6
f 18/10/35 14/27/35 17/29/35 21/11/35
f 11/2/36 7/25/36 6/6/36 10/5/36
f 26/16/37 30/18/37 31/19/37 27/13/37
f 1/34/6 5/4/6 6/6/6 2/43/6
f 25/24/38 26/16/38 22/12/38 21/11/38
f 3/44/5 7/25/5 8/1/5 4/33/5
f 41/41/39 44/37/39 43/39/39 42/40/39
f 44/37/40 41/41/40 37/42/40 40/38/40
f 2/43/41 6/6/41 7/25/41 3/44/41
