# Blender v2.83.1 OBJ File: 'thrue.blend'
# www.blender.org
mtllib sign.mtl
o chicken_face.004_Cube.028
v 0.124879 -0.047262 0.137057
v 0.106217 0.281558 0.067910
v -0.128690 -0.046795 0.136224
v -0.113734 0.280930 0.067899
v 0.106562 -0.062865 0.016558
v 0.108185 0.096279 -0.072973
v 0.138835 0.047466 0.141796
v 0.001361 -0.065555 0.173837
v -0.144589 0.044374 0.143552
v -0.115746 -0.051721 0.013813
v -0.079931 0.114473 -0.086131
v -0.007114 0.163328 -0.097456
v 0.017821 -0.157222 -0.023911
v -0.138987 -0.005394 -0.006219
v -0.003904 0.059372 0.278050
v 0.141825 0.015788 -0.019827
v 0.111572 0.179045 -0.029974
v 0.140450 -0.019770 0.147268
v 0.082161 -0.062232 0.161271
v -0.016196 0.318668 0.063701
v -0.147049 -0.021296 0.149214
v -0.127461 -0.061486 0.078628
v 0.124293 -0.063687 0.080658
v 0.135501 0.157080 0.108615
v -0.081636 -0.061535 0.158931
v 0.060609 0.310238 0.059155
v -0.140427 0.154751 0.108793
v -0.108122 0.181006 -0.027145
v -0.003776 0.297635 -0.035597
v -0.052311 0.178477 -0.099835
v 0.052690 0.135170 -0.094543
v 0.009741 -0.144305 0.065263
v 0.072019 -0.142885 -0.001676
v -0.054890 -0.121978 -0.019627
v -0.159662 0.017134 0.056555
v -0.152018 -0.034616 0.026274
v -0.114652 0.046150 -0.050786
v -0.089331 0.057975 0.243246
v 0.081996 0.058855 0.243105
v -0.002557 -0.016489 0.243574
v 0.157374 0.025058 0.050624
v 0.131721 -0.028785 0.001078
v 0.138917 0.064960 -0.032845
v 0.153519 -0.027599 0.071316
v 0.089987 -0.018418 0.214885
v -0.095365 -0.018886 0.214758
v -0.143811 0.091476 0.014575
v -0.162722 -0.030722 0.079031
v 0.053421 -0.122691 -0.056388
v -0.017805 -0.110003 -0.070835
v -0.093276 -0.037574 -0.030941
v -0.068482 -0.122055 0.063946
v 0.080084 -0.126080 0.071433
v 0.084463 -0.039177 -0.049787
v 0.007920 0.289008 -0.001483
v -0.015228 0.290202 -0.002786
v 0.024496 -0.053907 -0.097452
v -0.061214 0.002974 -0.074796
v 0.098052 0.031060 -0.068525
v 0.038675 0.045191 -0.100589
v -0.021809 0.064754 -0.101894
v 0.149334 0.097135 0.013038
v -0.004143 0.240849 0.227486
v -0.004107 0.176259 0.264137
v 0.073396 0.266470 0.192177
v 0.074122 0.158141 0.244150
v -0.082045 0.157687 0.244150
v -0.081473 0.266094 0.192210
v -0.105658 0.233497 0.199014
v 0.038139 0.215169 0.234240
v -0.046284 0.215047 0.234240
v 0.052902 0.094218 0.274734
v -0.078635 0.237316 0.213588
v 0.070537 0.237611 0.213601
v -0.004181 0.325982 0.166785
v -0.004131 0.206229 0.305474
v -0.061099 0.093989 0.274730
v -0.069953 0.226931 0.220372
v 0.101117 0.218964 0.194939
v 0.010403 0.322959 0.143042
v -0.018292 0.322907 0.143067
v -0.108718 0.218255 0.194916
v 0.061201 0.226534 0.220372
v 0.095382 0.237565 0.206075
v 0.076672 0.258663 0.206893
v -0.084739 0.258276 0.206914
v -0.096831 0.241977 0.210315
v 0.008258 0.318803 0.062718
v 0.058118 0.244576 -0.051686
v -0.004667 0.271982 -0.050178
v -0.068721 0.310046 0.059153
v -0.064077 0.251976 -0.049786
v 0.069459 0.282219 0.184638
v -0.004156 0.299677 0.186770
v -0.077555 0.281972 0.184635
v -0.003629 0.344182 0.062554
v -0.003550 0.343767 -0.020094
v -0.003613 0.393590 0.146280
v -0.023942 0.188384 0.251337
v 0.015464 0.188265 0.251337
v -0.025195 0.195653 0.249189
v 0.017016 0.195714 0.249189
v -0.056822 0.096024 0.299655
v -0.004859 0.118348 0.290974
v -0.022457 0.193822 0.257788
v -0.004107 0.172149 0.273762
v 0.013989 0.193711 0.257788
v 0.015428 0.204617 0.259924
v -0.004109 0.186623 0.273750
v 0.048619 0.096236 0.299658
v -0.003921 0.064006 0.302726
v -0.023614 0.204561 0.259924
vt 0.500000 0.562500
vt 0.437500 0.625000
vt 0.437500 0.562500
vt 0.406250 0.437500
vt 0.531250 0.500000
vt 0.508929 0.410714
vt 0.375000 0.125000
vt 0.455357 0.303571
vt 0.437500 0.125000
vt 0.548961 0.437500
vt 0.562500 0.457282
vt 0.562500 0.500000
vt 0.562500 0.250000
vt 0.562500 0.292848
vt 0.548942 0.312500
vt 0.570719 0.442375
vt 0.564078 0.451906
vt 0.570719 0.442375
vt 0.625000 0.562500
vt 0.633929 0.517857
vt 0.375000 0.625000
vt 0.500000 0.625000
vt 0.437500 0.625000
vt 0.524471 0.343750
vt 0.500000 0.312500
vt 0.604484 0.375767
vt 0.604992 0.344412
vt 0.604484 0.375767
vt 0.563541 0.441504
vt 0.564078 0.451906
vt 0.561558 0.439030
vt 0.524480 0.406250
vt 0.500000 0.437500
vt 0.500000 0.375000
vt 0.558375 0.402604
vt 0.565419 0.430131
vt 0.565419 0.430131
vt 0.578271 0.375167
vt 0.561446 0.431461
vt 0.578271 0.375167
vt 0.563977 0.306870
vt 0.545476 0.301240
vt 0.551331 0.375078
vt 0.558375 0.402604
vt 0.551331 0.375078
vt 0.558219 0.347481
vt 0.551331 0.375078
vt 0.565108 0.319885
vt 0.565108 0.319885
vt 0.524471 0.343750
vt 0.500000 0.375000
vt 0.557840 0.406459
vt 0.557840 0.406459
vt 0.577109 0.309206
vt 0.582477 0.312500
vt 0.574154 0.440560
vt 0.566540 0.305990
vt 0.565697 0.297980
vt 0.577109 0.309206
vt 0.778319 0.541865
vt 0.750000 0.562500
vt 0.750549 0.542598
vt 0.723168 0.541716
vt 0.687500 0.562500
vt 0.580592 0.375000
vt 0.604982 0.405458
vt 0.625000 0.312500
vt 0.623929 0.345780
vt 0.604982 0.405458
vt 0.750549 0.542598
vt 0.778319 0.541865
vt 0.187500 0.625000
vt 0.250000 0.625000
vt 0.281250 0.562500
vt 0.312500 0.625000
vt 0.383929 0.625000
vt 0.524480 0.406250
vt 0.565924 0.437917
vt 0.565709 0.312500
vt 0.812500 0.562500
vt 0.582450 0.437500
vt 0.623578 0.404069
vt 0.625000 0.437500
vt 0.562500 0.562500
vt 0.562500 0.625000
vt 0.125000 0.625000
vt 0.375000 0.375000
vt 0.625000 0.250000
vt 0.750000 0.500000
vt 0.778970 0.502466
vt 0.562500 0.187500
vt 0.500000 0.187500
vt 0.500000 0.125000
vt 0.562500 0.125000
vt 0.625000 0.500000
vt 0.437500 0.517857
vt 0.544643 0.553571
vt 0.723168 0.541716
vt 0.721081 0.502189
vt 0.375000 0.562500
vt 0.312500 0.562500
vt 0.250000 0.562500
vt 0.250000 0.500000
vt 0.312500 0.500000
vt 0.625000 0.125000
vt 0.625000 0.187500
vt 0.468750 0.562500
vt 0.812500 0.625000
vt 0.875000 0.625000
vt 0.625000 0.437500
vt 0.625000 0.375000
vt 0.604992 0.344412
vt 0.812500 0.500000
vt 0.187500 0.562500
vt 0.125000 0.562500
vt 0.125000 0.500000
vt 0.187500 0.500000
vt 0.687500 0.625000
vt 0.625000 0.625000
vt 0.625000 0.562500
vt 0.500000 0.500000
vt 0.437500 0.500000
vt 0.437500 0.437500
vt 0.750000 0.625000
vt 0.500000 0.250000
vt 0.437500 0.250000
vt 0.437500 0.187500
vt 0.375000 0.375000
vt 0.375000 0.312500
vt 0.437500 0.312500
vt 0.437500 0.375000
vt 0.531250 0.250000
vt 0.687500 0.500000
vt 0.875000 0.500000
vt 0.875000 0.562500
vt 0.312500 0.625000
vt 0.375000 0.250000
vt 0.375000 0.187500
vt 0.375000 0.500000
vt 0.375000 0.437500
vt 0.558219 0.347481
vt 0.557733 0.343750
vt 0.557733 0.343750
vt 0.547616 0.338120
vt 0.549756 0.375000
vt 0.524790 0.375112
vn -0.9800 -0.0297 -0.1967
vn 0.6387 -0.1782 -0.7485
vn 0.6161 -0.6541 -0.4388
vn -0.9146 -0.0807 0.3962
vn 0.9085 -0.0699 0.4120
vn -0.7786 0.6091 0.1510
vn 0.0108 -0.0332 -0.9994
vn -0.6624 -0.5515 -0.5069
vn 0.7642 0.0538 0.6428
vn 0.8512 0.1458 0.5043
vn -0.2919 -0.6415 0.7094
vn -0.5674 0.3543 0.7433
vn -0.3279 -0.4629 0.8235
vn -0.7576 -0.5287 0.3829
vn -0.4433 0.8193 0.3637
vn 0.5485 0.3651 0.7522
vn 0.7532 0.4474 -0.4822
vn 0.7577 -0.5281 0.3833
vn 0.4403 0.8207 0.3642
vn -0.2032 0.5448 0.8136
vn 0.5230 -0.8376 0.1577
vn -0.9526 -0.1273 0.2762
vn -0.7717 0.0506 0.6340
vn 0.3317 -0.4625 0.8222
vn 0.7027 0.4424 0.5573
vn -0.3599 0.4726 0.8044
vn -0.7920 0.3017 -0.5308
vn -0.1390 0.5991 0.7885
vn 0.2602 -0.4356 0.8617
vn -0.5588 0.0726 0.8261
vn 0.2835 0.2152 0.9345
vn -0.1015 0.2749 0.9561
vn -0.8463 0.3691 0.3842
vn 0.9474 0.1327 -0.2913
vn -0.2949 0.8680 -0.3994
vn 0.2121 0.8316 0.5134
vn -0.8270 0.3396 0.4480
vn 0.1575 0.9860 -0.0552
vn -0.8576 0.1558 0.4901
vn -0.9460 0.1074 -0.3058
vn 0.9488 0.0965 -0.3009
vn -0.9426 0.0537 -0.3297
vn 0.3923 -0.8116 -0.4329
vn -0.7555 -0.4119 -0.5095
vn -0.4061 -0.7798 -0.4764
vn -0.4900 -0.5413 -0.6833
vn -0.5180 -0.8407 0.1576
vn -0.4169 0.2166 0.8827
vn 0.2094 0.5563 0.8041
vn 0.8197 0.4584 -0.3435
vn 0.0965 0.5996 0.7944
vn -0.4198 0.4731 0.7746
vn 0.3336 0.4736 0.8151
vn 0.5438 0.0536 0.8375
vn -0.4536 -0.1453 0.8793
vn 0.3606 0.8475 -0.3895
vn -0.9391 0.1939 -0.2838
vn 0.8178 0.3487 0.4579
vn -0.2155 0.8317 0.5118
vn -0.1569 0.9860 -0.0568
vn 0.7395 0.6488 0.1796
vn 0.8464 0.3688 0.3841
vn -0.9250 0.0352 -0.3784
vn 0.8709 -0.2889 -0.3975
vn 0.4926 0.8561 0.1564
vn 0.9620 0.2671 -0.0566
vn 0.9762 -0.0024 -0.2170
vn -0.9205 0.3348 0.2015
vn -0.3565 -0.1714 -0.9184
vn -0.9582 0.2796 -0.0609
vn -0.5683 -0.8093 -0.1488
vn -0.1880 -0.8198 0.5410
vn 0.8789 0.2213 -0.4227
vn -0.6051 -0.3266 -0.7261
vn 0.4022 -0.0532 -0.9140
vn 0.9600 0.2621 -0.0982
vn -0.7571 -0.6306 -0.1709
vn 0.1968 0.8594 -0.4719
vn -0.1774 0.5404 0.8225
vn 0.6550 -0.6673 0.3544
vn -0.7647 0.2456 -0.5957
vn -0.8373 -0.0375 0.5455
vn 0.9116 0.3531 0.2106
vn -0.9566 0.2731 -0.1020
vn 0.1783 0.3704 -0.9116
vn 0.9831 0.0214 0.1821
vn 0.1473 -0.7924 0.5920
vn -0.9603 0.2055 -0.1885
vn 0.3112 -0.3438 0.8860
vn -0.3554 -0.9344 0.0249
vn -0.4501 -0.1648 -0.8776
vn -0.8504 0.1305 -0.5096
vn 0.6794 -0.3608 -0.6389
vn 0.9574 0.2607 -0.1240
vn -0.1828 0.8794 -0.4396
vn -0.0051 0.4711 -0.8821
vn 0.6838 0.5728 -0.4521
vn -0.7355 0.5172 -0.4376
vn 0.7177 -0.1492 -0.6802
vn -0.1407 -0.0198 -0.9899
vn 0.5455 -0.1948 -0.8151
vn 0.1777 0.5375 0.8243
vn -0.6682 -0.3286 -0.6675
vn 0.0610 -0.5814 -0.8113
vn 0.8428 -0.0286 0.5375
vn 0.2112 -0.9614 0.1761
vn 0.1389 -0.8021 0.5809
vn 0.9864 0.1095 0.1227
vn 0.8030 -0.5682 0.1799
vn 0.8786 -0.4644 -0.1111
vn 0.9436 -0.2352 -0.2330
vn -0.9915 0.1237 0.0392
vn -0.3076 -0.3546 0.8830
vn -0.5644 -0.7603 0.3216
vn 0.8912 0.1153 0.4388
vn 0.0537 0.0473 -0.9974
vn -0.1491 -0.8084 0.5695
vn -0.6825 -0.7003 0.2093
vn 0.5904 0.3065 -0.7467
vn 0.5853 -0.6389 0.4992
vn -0.4979 0.8531 0.1558
vn -0.9812 0.0901 0.1709
vn -0.8973 0.1175 0.4255
vn -0.5117 -0.7178 0.4722
vn 0.7339 -0.6446 -0.2142
vn -0.7532 0.4472 -0.4823
vn 0.4446 0.1826 0.8769
vn -0.9248 0.3717 0.0813
vn 0.2827 0.3360 0.8984
vn -0.2883 0.3357 0.8968
vn 0.2947 0.3630 0.8839
vn 0.9428 -0.1534 0.2961
vn 0.9236 0.3749 0.0803
vn -0.2977 0.3561 0.8857
vn 0.4377 0.2684 0.8581
vn -0.0717 0.2096 0.9751
vn 0.0717 0.2120 0.9746
vn 0.6798 -0.0993 0.7267
vn -0.6740 -0.0927 0.7329
vn -0.4184 0.2820 0.8633
vn 0.0163 0.3995 0.9166
vn -0.0182 0.3989 0.9168
usemtl None
s off
f 35/1/1 36/2/1 48/3/1
f 49/4/2 57/5/2 54/6/2
f 5/7/3 54/8/3 42/9/3
f 67/10/4 82/11/4 27/12/4
f 24/13/5 79/14/5 66/15/5
f 68/16/6 87/17/6 86/18/6
f 57/5/7 61/19/7 60/20/7
f 10/21/8 14/22/8 51/23/8
f 72/24/9 39/25/9 66/15/9
f 75/26/10 80/27/10 98/28/10
f 73/29/11 87/17/11 69/30/11
f 78/31/12 82/11/12 67/10/12
f 77/32/13 38/33/13 15/34/13
f 101/35/14 76/36/14 71/37/14
f 63/38/15 71/39/15 76/40/15
f 83/41/16 66/42/16 79/14/16
f 64/43/17 101/35/17 112/44/17 109/45/17
f 102/46/18 76/47/18 64/43/18
f 70/48/19 63/38/19 76/49/19
f 63/38/20 78/31/20 71/39/20
f 15/34/21 72/24/21 110/50/21 111/51/21
f 101/35/22 99/52/22 105/53/22 112/44/22
f 77/32/23 67/10/23 38/33/23
f 72/24/24 15/34/24 39/25/24
f 65/54/25 79/14/25 93/55/25
f 68/16/26 78/31/26 95/56/26
f 69/30/27 95/56/27 82/11/27
f 65/54/28 83/41/28 74/57/28
f 74/57/29 79/14/29 84/58/29
f 73/29/30 82/11/30 78/31/30
f 74/57/31 84/58/31 85/59/31
f 73/29/32 86/18/32 87/17/32
f 74/57/33 85/59/33 65/54/33
f 55/60/34 90/61/34 29/62/34
f 56/63/35 90/61/35 92/64/35
f 80/27/36 94/65/36 93/55/36
f 81/66/37 94/65/37 75/26/37
f 80/27/38 26/67/38 88/68/38
f 81/66/39 75/26/39 98/69/39
f 29/62/40 56/63/40 97/70/40
f 55/60/41 29/62/41 97/71/41
f 35/1/42 14/22/42 36/2/42
f 33/72/43 13/73/43 49/74/43
f 34/75/44 10/21/44 51/23/44
f 13/73/45 34/75/45 50/76/45
f 10/21/46 36/2/46 14/22/46
f 77/32/47 15/34/47 111/51/47 103/77/47
f 101/35/48 71/37/48 78/78/48 99/52/48
f 63/38/49 70/48/49 83/79/49
f 65/54/50 84/58/50 79/14/50
f 68/16/51 73/29/51 78/31/51
f 69/30/52 68/16/52 95/56/52
f 65/54/53 93/55/53 83/41/53
f 74/57/54 83/41/54 79/14/54
f 73/29/55 69/30/55 82/11/55
f 55/60/56 89/80/56 90/61/56
f 56/63/57 29/62/57 90/61/57
f 80/27/58 75/26/58 94/65/58
f 81/66/59 95/81/59 94/65/59
f 81/66/60 20/82/60 91/83/60
f 68/16/6 69/30/6 87/17/6
f 65/54/61 85/59/61 84/58/61
f 73/29/62 68/16/62 86/18/62
f 14/22/63 35/1/63 47/84/63 37/85/63
f 5/86/64 33/72/64 49/87/64 54/8/64
f 26/67/65 80/27/65 93/55/65 2/88/65
f 97/70/66 96/89/66 88/90/66 55/60/66
f 62/91/67 41/92/67 16/93/67 43/94/67
f 4/95/68 27/12/68 82/11/68 95/81/68
f 57/5/69 50/96/69 58/97/69 61/19/69
f 97/98/70 56/63/70 20/99/70 96/89/70
f 36/2/71 10/21/71 22/100/71 48/3/71
f 52/101/72 32/102/72 8/103/72 25/104/72
f 62/91/73 43/94/73 6/105/73 17/106/73
f 37/85/74 58/97/74 51/107/74 14/22/74
f 60/20/75 31/108/75 6/109/75 59/110/75
f 80/27/76 88/68/76 96/111/76 98/112/76
f 10/21/77 34/75/77 52/101/77 22/100/77
f 26/113/78 89/80/78 55/60/78 88/90/78
f 95/81/79 78/31/79 63/38/79 94/65/79
f 53/114/80 23/115/80 1/116/80 19/117/80
f 30/118/81 11/119/81 28/120/81 92/64/81
f 9/121/82 21/122/82 46/123/82 38/33/82
f 2/88/83 93/55/83 79/14/83 24/13/83
f 96/111/84 20/82/84 81/66/84 98/28/84
f 12/124/85 90/61/85 89/80/85 31/108/85
f 7/125/86 18/126/86 44/127/86 41/92/86
f 8/128/87 19/129/87 45/130/87 40/131/87
f 28/120/88 47/84/88 27/12/88 4/95/88
f 40/131/89 45/130/89 39/25/89 15/34/89
f 34/75/90 13/73/90 32/102/90 52/101/90
f 11/119/91 61/19/91 58/97/91 37/85/91
f 37/85/92 47/84/92 28/120/92 11/119/92
f 54/8/93 59/132/93 16/93/93 42/9/93
f 24/13/94 62/91/94 17/106/94 2/88/94
f 91/133/95 20/99/95 56/63/95 92/64/95
f 30/118/96 92/64/96 90/61/96 12/124/96
f 89/80/97 26/113/97 2/134/97 17/135/97
f 92/64/98 28/120/98 4/95/98 91/133/98
f 59/132/99 6/105/99 43/94/99 16/93/99
f 30/118/100 12/124/100 61/19/100 11/119/100
f 60/20/101 59/110/101 54/6/101 57/5/101
f 93/55/102 94/65/102 63/38/102 83/79/102
f 50/76/103 34/75/103 51/107/103 58/97/103
f 49/136/104 13/73/104 50/96/104 57/5/104
f 45/130/105 18/126/105 7/125/105 39/25/105
f 13/73/106 33/72/106 53/114/106 32/102/106
f 32/102/107 53/114/107 19/117/107 8/103/107
f 7/125/108 41/92/108 62/91/108 24/13/108
f 18/126/109 1/137/109 23/138/109 44/127/109
f 33/72/110 5/86/110 23/115/110 53/114/110
f 41/92/111 44/127/111 42/9/111 16/93/111
f 47/84/112 35/1/112 9/121/112 27/12/112
f 38/33/113 46/123/113 40/131/113 15/34/113
f 52/101/114 25/104/114 3/139/114 22/100/114
f 66/15/115 39/25/115 7/125/115 24/13/115
f 12/124/116 31/108/116 60/20/116 61/19/116
f 25/140/117 8/128/117 40/131/117 46/123/117
f 48/3/118 22/100/118 3/139/118 21/122/118
f 31/108/119 89/80/119 17/135/119 6/109/119
f 19/129/120 1/137/120 18/126/120 45/130/120
f 95/81/121 81/66/121 91/83/121 4/95/121
f 35/1/122 48/3/122 21/122/122 9/121/122
f 27/12/123 9/121/123 38/33/123 67/10/123
f 3/139/124 25/140/124 46/123/124 21/122/124
f 23/138/125 5/7/125 42/9/125 44/127/125
f 102/46/126 64/43/126 109/45/126 108/141/126
f 70/48/127 102/46/127 100/142/127 83/79/127
f 101/35/14 64/43/14 76/36/14
f 102/46/18 70/48/18 76/47/18
f 99/52/128 77/32/128 103/77/128 105/53/128
f 100/142/129 72/24/129 66/15/129
f 99/52/130 67/10/130 77/32/130
f 66/15/131 83/79/131 100/142/131
f 100/142/132 102/46/132 108/141/132 107/143/132
f 72/24/133 100/142/133 107/143/133 110/50/133
f 99/52/134 78/78/134 67/10/134
f 104/144/135 107/143/135 106/145/135
f 110/50/136 104/146/136 111/51/136
f 111/51/137 104/146/137 103/77/137
f 108/141/138 109/45/138 106/145/138 107/143/138
f 109/45/139 112/44/139 105/53/139 106/145/139
f 104/146/140 106/145/140 105/53/140
f 107/143/141 104/144/141 110/50/141
f 103/77/142 104/146/142 105/53/142
