# Blender v2.83.1 OBJ File: 'thrue level three.blend'
# www.blender.org
mtllib standardcar.mtl
o Cube
v -1.015779 -0.010436 2.154106
v -0.900000 1.018711 1.223789
v -1.015779 -0.010436 -2.154106
v -0.900000 1.057100 -1.420009
v 1.015779 -0.010436 2.154106
v 0.900000 1.018711 1.223789
v 1.015779 -0.010436 -2.154106
v 0.900000 1.057100 -1.420009
v -1.015779 -0.010436 -1.306782
v -1.015779 -0.010436 1.306782
v -1.015779 0.721555 2.154106
v -0.900000 0.957600 2.250000
v -0.900000 1.457600 0.750000
v -0.900000 1.457600 -0.750000
v -0.900000 0.957600 -2.250000
v -1.015779 0.721555 -2.154106
v 0.300000 -0.042400 -2.250000
v -0.300000 -0.042400 -2.250000
v -0.300000 1.057100 -1.420009
v 0.300000 1.057100 -1.420009
v 0.900000 0.957600 -2.250000
v 1.015779 0.721555 -2.154106
v 1.015779 -0.010436 1.306782
v 1.015779 -0.010436 -1.306782
v 0.900000 1.457600 -0.750000
v 0.900000 1.457600 0.750000
v 0.900000 0.957600 2.250000
v 1.015779 0.721555 2.154106
v -0.300000 -0.042400 2.250000
v 0.300000 -0.042400 2.250000
v 0.300000 1.018711 1.223789
v -0.300000 1.018711 1.223789
v 0.300000 1.457600 -0.750000
v 0.300000 1.457600 0.750000
v -0.300000 1.457600 -0.750000
v -0.300000 1.457600 0.750000
v -0.300000 -0.042400 -0.750000
v -0.300000 -0.042400 0.750000
v 0.300000 -0.042400 -0.750000
v 0.300000 -0.042400 0.750000
v 0.300000 0.753520 2.250000
v -0.300000 0.753520 2.250000
v 0.300000 0.957600 2.250000
v -0.300000 0.957600 2.250000
v 1.015779 0.721555 -1.306782
v 1.015779 0.721555 1.306782
v 0.900000 0.957600 -0.750000
v 0.900000 0.957600 0.750000
v -0.300000 0.753520 -2.250000
v 0.300000 0.753520 -2.250000
v -0.300000 0.957600 -2.250000
v 0.300000 0.957600 -2.250000
v -1.015779 0.721555 1.306782
v -1.015779 0.721555 -1.306782
v -0.900000 0.957600 0.750000
v -0.900000 0.957600 -0.750000
v -0.900000 -0.042400 1.158641
v -0.900000 -0.042400 2.250000
v -0.900000 0.753520 -2.250000
v -0.900000 -0.042400 -2.250000
v 0.900000 0.753520 -2.250000
v 0.900000 -0.042400 -2.250000
v 0.900000 -0.042400 -1.158641
v 0.900000 0.753520 2.250000
v 0.900000 -0.042400 2.250000
v -0.900000 -0.042400 -1.158641
v -0.900000 0.753520 2.250000
v 0.900000 -0.042400 1.158641
v 0.900000 0.753520 1.158641
v 0.900000 0.753520 -1.158641
v -0.900000 0.753520 -1.158641
v -0.900000 0.753520 1.158641
vt 0.541667 0.166667
vt 0.625000 0.166667
vt 0.625000 0.250000
vt 0.541667 0.250000
vt 0.541667 0.416667
vt 0.625000 0.416667
vt 0.625000 0.500000
vt 0.541667 0.500000
vt 0.541667 0.666667
vt 0.625000 0.666667
vt 0.625000 0.750000
vt 0.541667 0.750000
vt 0.541667 0.916667
vt 0.625000 0.916667
vt 0.625000 1.000000
vt 0.541667 1.000000
vt 0.291667 0.666667
vt 0.375000 0.666667
vt 0.375000 0.750000
vt 0.291667 0.750000
vt 0.791667 0.666667
vt 0.875000 0.666667
vt 0.875000 0.750000
vt 0.791667 0.750000
vt 0.708333 0.666667
vt 0.708333 0.750000
vt 0.708333 0.500000
vt 0.708333 0.583333
vt 0.625000 0.583333
vt 0.791667 0.500000
vt 0.791667 0.583333
vt 0.875000 0.500000
vt 0.875000 0.583333
vt 0.125000 0.666667
vt 0.208333 0.666667
vt 0.208333 0.750000
vt 0.125000 0.750000
vt 0.125000 0.500000
vt 0.208333 0.500000
vt 0.208333 0.583333
vt 0.125000 0.583333
vt 0.291667 0.500000
vt 0.291667 0.583333
vt 0.375000 0.500000
vt 0.375000 0.583333
vt 0.375000 0.916667
vt 0.458333 0.916667
vt 0.458333 1.000000
vt 0.375000 1.000000
vt 0.458333 0.750000
vt 0.458333 0.833333
vt 0.375000 0.833333
vt 0.541667 0.833333
vt 0.625000 0.833333
vt 0.378347 0.671994
vt 0.454987 0.671994
vt 0.454987 0.744673
vt 0.378347 0.744673
vt 0.458333 0.666667
vt 0.378347 0.505327
vt 0.454987 0.505327
vt 0.454987 0.578006
vt 0.378347 0.578006
vt 0.458333 0.583333
vt 0.458333 0.500000
vt 0.541667 0.583333
vt 0.375000 0.416667
vt 0.458333 0.416667
vt 0.375000 0.250000
vt 0.458333 0.250000
vt 0.458333 0.333333
vt 0.375000 0.333333
vt 0.541667 0.333333
vt 0.625000 0.333333
vt 0.378347 0.171994
vt 0.454987 0.171994
vt 0.454987 0.244673
vt 0.378347 0.244673
vt 0.458333 0.166667
vt 0.378347 0.005327
vt 0.454987 0.005327
vt 0.454987 0.078006
vt 0.378347 0.078006
vt 0.375000 0.083333
vt 0.458333 0.083333
vt 0.375000 0.166667
vt 0.458333 0.000000
vt 0.541667 0.000000
vt 0.541667 0.083333
vt 0.625000 0.000000
vt 0.625000 0.083333
vt 0.375000 0.000000
vn -1.0000 -0.0000 0.0000
vn 0.0000 0.9929 -0.1190
vn 1.0000 -0.0000 0.0000
vn 0.0000 0.9982 0.0594
vn 0.0000 -1.0000 -0.0000
vn 0.0000 0.7336 0.6796
vn 0.0000 0.8583 -0.5131
vn 0.0000 1.0000 0.0000
vn 0.0000 0.0000 1.0000
vn 0.0000 0.0000 -1.0000
vn -0.2661 -0.9639 -0.0000
vn -0.6379 0.0000 -0.7701
vn 0.6379 0.0000 -0.7701
vn 0.2661 -0.9639 0.0000
vn 0.6379 0.0000 0.7701
vn -0.6379 0.0000 0.7701
vn 0.2661 0.9639 0.0000
vn 0.7879 0.0000 0.6158
vn 0.7879 0.0000 -0.6158
vn -0.2661 0.9639 0.0000
vn -0.7879 0.0000 -0.6158
vn -0.7879 0.0000 0.6158
usemtl None
s off
f 56/1/1 14/2/1 4/3/1 15/4/1
f 52/5/2 20/6/2 8/7/2 21/8/2
f 48/9/3 26/10/3 6/11/3 27/12/3
f 44/13/4 32/14/4 2/15/4 12/16/4
f 40/17/5 68/18/5 65/19/5 30/20/5
f 36/21/6 13/22/6 2/23/6 32/24/6
f 26/10/6 34/25/6 31/26/6 6/11/6
f 34/25/6 36/21/6 32/24/6 31/26/6
f 8/7/7 20/27/7 33/28/7 25/29/7
f 25/29/8 33/28/8 34/25/8 26/10/8
f 20/27/7 19/30/7 35/31/7 33/28/7
f 33/28/8 35/31/8 36/21/8 34/25/8
f 19/30/7 4/32/7 14/33/7 35/31/7
f 35/31/8 14/33/8 13/22/8 36/21/8
f 57/34/5 38/35/5 29/36/5 58/37/5
f 38/35/5 40/17/5 30/20/5 29/36/5
f 60/38/5 18/39/5 37/40/5 66/41/5
f 66/41/5 37/40/5 38/35/5 57/34/5
f 18/39/5 17/42/5 39/43/5 37/40/5
f 37/40/5 39/43/5 40/17/5 38/35/5
f 17/42/5 62/44/5 63/45/5 39/43/5
f 39/43/5 63/45/5 68/18/5 40/17/5
f 29/46/9 42/47/9 67/48/9 58/49/9
f 42/47/9 44/13/9 12/16/9 67/48/9
f 65/19/9 64/50/9 41/51/9 30/52/9
f 30/52/9 41/51/9 42/47/9 29/46/9
f 64/50/9 27/12/9 43/53/9 41/51/9
f 41/51/9 43/53/9 44/13/9 42/47/9
f 27/12/4 6/11/4 31/54/4 43/53/4
f 43/53/4 31/54/4 32/14/4 44/13/4
f 23/55/3 46/56/3 28/57/3 5/58/3
f 69/59/3 48/9/3 27/12/3 64/50/3
f 7/60/3 22/61/3 45/62/3 24/63/3
f 63/45/3 70/64/3 69/59/3 68/18/3
f 61/65/3 21/8/3 47/66/3 70/64/3
f 70/64/3 47/66/3 48/9/3 69/59/3
f 21/8/3 8/7/3 25/29/3 47/66/3
f 47/66/3 25/29/3 26/10/3 48/9/3
f 17/67/10 50/68/10 61/65/10 62/44/10
f 50/68/10 52/5/10 21/8/10 61/65/10
f 60/69/10 59/70/10 49/71/10 18/72/10
f 18/72/10 49/71/10 50/68/10 17/67/10
f 59/70/10 15/4/10 51/73/10 49/71/10
f 49/71/10 51/73/10 52/5/10 50/68/10
f 15/4/2 4/3/2 19/74/2 51/73/2
f 51/73/2 19/74/2 20/6/2 52/5/2
f 9/75/1 54/76/1 16/77/1 3/78/1
f 71/79/1 56/1/1 15/4/1 59/70/1
f 1/80/1 11/81/1 53/82/1 10/83/1
f 57/84/1 72/85/1 71/79/1 66/86/1
f 67/87/1 12/88/1 55/89/1 72/85/1
f 72/85/1 55/89/1 56/1/1 71/79/1
f 12/88/1 2/90/1 13/91/1 55/89/1
f 55/89/1 13/91/1 14/2/1 56/1/1
f 1/80/11 10/83/11 57/84/11 58/92/11
f 3/78/12 16/77/12 59/70/12 60/69/12
f 22/61/13 7/60/13 62/44/13 61/65/13
f 7/60/14 24/63/14 63/45/14 62/44/14
f 5/58/15 28/57/15 64/50/15 65/19/15
f 9/75/11 3/78/11 60/69/11 66/86/11
f 11/81/16 1/80/16 58/92/16 67/87/16
f 23/55/14 5/58/14 65/19/14 68/18/14
f 28/57/17 46/56/17 69/59/17 64/50/17
f 45/62/17 22/61/17 61/65/17 70/64/17
f 24/63/18 45/62/18 70/64/18 63/45/18
f 46/56/19 23/55/19 68/18/19 69/59/19
f 16/77/20 54/76/20 71/79/20 59/70/20
f 53/82/20 11/81/20 67/87/20 72/85/20
f 10/83/21 53/82/21 72/85/21 57/84/21
f 54/76/22 9/75/22 66/86/22 71/79/22
