# Blender v2.83.1 OBJ File: 'thrue.blend'
# www.blender.org
mtllib stor.mtl
o Cone
v 1.563663 -0.306030 -1.246980
v 0.781832 5.693970 -0.623490
v 0.867767 -0.306030 1.801938
v 0.433884 5.693970 0.900969
v -0.867768 -0.306030 1.801938
v -0.433884 5.693970 0.900969
v -1.756760 -0.306030 -0.400969
v -1.563663 -0.306030 -1.246979
v -0.781832 5.693970 -0.623490
v 1.949856 -0.306030 0.445042
v 0.974928 5.693970 0.222521
v -1.988906 -0.145160 1.318016
v -1.119790 3.143487 0.230363
v -0.974928 5.693970 0.222521
v 0.000000 -0.306030 -2.000000
v -1.119790 2.529851 -0.300727
v -2.327670 -0.145160 1.318016
v -3.594127 -0.306030 0.445042
v -2.866650 3.143487 0.285993
v -3.401031 -0.306030 -0.400969
v -2.866650 2.529851 -0.300727
v -2.327670 1.000520 1.318016
v -0.000000 5.693970 -1.000000
v -1.988906 1.000520 1.318016
v 0.474078 6.518311 -0.108205
v -0.475367 6.506358 0.108499
v 0.051623 6.517962 0.499815
v -0.170607 6.516818 -0.473426
v -1.119790 2.529851 0.791549
v -1.408812 -0.306030 1.123490
v -2.866650 2.529851 0.842617
v -3.053082 -0.306030 1.123490
v -1.743638 1.466830 1.250758
v -1.866523 -0.210379 1.250758
v -2.474589 1.466830 1.250758
v -2.570073 -0.210379 1.250758
v -1.988906 1.000520 1.111995
v -1.988906 -0.145160 1.111995
v -2.327670 1.000520 1.111995
v -2.327670 -0.145160 1.111995
vt 0.357143 0.795455
vt 0.285714 1.000000
vt 0.285714 0.875000
vt 1.000000 1.000000
vt 0.857143 1.000000
vt 0.857143 0.500000
vt 1.000000 0.500000
vt 0.214286 0.750000
vt 0.214286 0.500000
vt 0.214286 0.500000
vt 0.214286 0.750000
vt 0.142857 0.500000
vt 0.142857 1.000000
vt 0.285714 0.750000
vt 0.428571 0.500000
vt 0.357143 0.500000
vt 0.428571 1.000000
vt 0.539189 0.298116
vt 0.516017 0.196595
vt 0.539189 0.298116
vt 0.571429 1.000000
vt 0.517429 1.000000
vt 0.714286 1.000000
vt 0.785714 1.000000
vt 0.000000 1.000000
vt 0.053973 1.000000
vt 0.357143 0.727360
vt 0.357143 0.713931
vt 0.357143 0.500000
vt 0.357143 0.547735
vt 0.357143 0.750000
vt 0.357143 0.547735
vt 0.357143 0.716295
vt 0.357143 0.706832
vt 0.357143 0.556272
vt 0.357143 0.556271
vt 0.571429 0.500000
vt 0.937640 0.399638
vt 0.983983 0.196595
vt 0.580943 0.115181
vt 0.285714 0.750000
vt 0.000000 0.500000
vt 0.016017 0.196595
vt 0.275409 0.033767
vt 0.460811 0.298116
vt 0.179108 0.455860
vt 0.714286 0.500000
vt 0.285714 0.500000
vt 1.000000 1.000000
vt 0.854132 0.033767
vt 0.645868 0.033767
vt 0.562360 0.399638
vt 0.750000 0.490000
vt 0.580943 0.115181
vt 0.285714 1.000000
vt 0.357143 0.556271
vt 0.357143 0.716295
vt 0.357143 0.706832
vt 0.357143 0.556272
vn -0.9965 0.0568 0.0621
vn 0.4291 0.1485 -0.8910
vn -0.9963 0.0564 -0.0652
vn 0.0000 0.0353 -0.9994
vn -0.9867 0.1169 0.1126
vn 0.0000 0.6911 -0.7228
vn -0.7729 0.1509 0.6163
vn -0.7734 0.1463 0.6168
vn 0.0000 -1.0000 -0.0000
vn -0.9717 0.0812 -0.2218
vn 0.0000 0.4377 0.8991
vn 0.8709 0.4494 -0.1988
vn -0.3901 0.4376 -0.8101
vn 0.5442 0.0426 0.8379
vn -0.2575 0.0147 0.9662
vn 0.0000 0.3584 0.9336
vn 0.0000 -0.7994 0.6008
vn 0.3035 -0.0222 0.9526
vn -0.2674 0.0000 0.9636
vn 0.0000 -0.7179 0.6961
vn -0.0000 0.1485 0.9889
vn -0.9508 0.2212 -0.2170
vn -0.0241 0.6542 -0.7559
vn -0.7791 0.1478 0.6092
vn -0.4291 0.1485 -0.8910
vn -0.0122 0.9999 0.0016
vn 0.9641 0.1485 -0.2201
vn 0.7732 0.1485 0.6166
vn -0.9588 0.1905 -0.2108
vn 0.0000 0.1428 0.9898
vn 0.0226 0.6732 0.7391
vn 0.3783 0.5708 -0.7287
vn -0.8728 0.1592 0.4614
vn 0.6572 0.5707 0.4924
vn -0.5964 0.5447 0.5896
vn 0.2641 -0.0193 0.9643
vn -0.5445 0.1180 0.8304
vn 0.0270 0.3830 0.9233
vn 0.4816 0.0000 0.8764
vn -0.3614 0.0206 0.9322
vn -0.7931 0.5447 -0.2725
vn -1.0000 0.0000 0.0000
vn 0.0000 0.0000 1.0000
vn 0.0000 1.0000 0.0000
vn 1.0000 0.0000 0.0000
usemtl None
s off
f 29/1/1 14/2/1 13/3/1
f 23/4/2 2/5/2 1/6/2 15/7/2
f 13/3/3 14/2/3 16/8/3
f 7/9/4 20/10/4 21/11/4 16/8/4
f 8/12/5 16/8/5 9/13/5
f 19/14/6 16/8/6 21/11/6
f 5/15/7 29/1/7 30/16/7
f 6/17/8 14/2/8 29/1/8
f 7/18/9 18/19/9 20/20/9
f 16/8/10 14/2/10 9/13/10
f 6/17/11 4/21/11 27/22/11
f 11/23/12 2/5/12 25/24/12
f 23/25/13 9/13/13 28/26/13
f 33/27/14 30/16/14 29/1/14
f 35/28/15 32/29/15 36/30/15
f 33/27/16 31/31/16 35/28/16
f 36/30/17 30/16/17 34/32/17
f 24/33/18 34/32/18 33/27/18
f 22/34/19 36/30/19 17/35/19
f 17/35/20 34/32/20 12/36/20
f 4/21/21 6/17/21 5/15/21 3/37/21
f 8/12/22 7/9/22 16/8/22
f 1/38/9 10/39/9 30/40/9 7/18/9
f 19/14/23 13/41/23 16/8/23
f 5/15/24 6/17/24 29/1/24
f 23/25/25 15/42/25 8/12/25 9/13/25
f 26/43/26 27/44/26 25/45/26 28/46/26
f 11/23/27 10/47/27 1/6/27 2/5/27
f 11/23/28 4/21/28 3/37/28 10/47/28
f 19/14/29 21/11/29 20/10/29 18/48/29
f 35/28/30 22/34/30 24/33/30 33/27/30
f 13/41/31 19/14/31 31/31/31 29/1/31
f 28/49/32 25/24/32 2/5/32 23/4/32
f 10/39/9 3/50/9 30/40/9
f 3/50/9 5/51/9 30/40/9
f 32/29/33 31/31/33 19/14/33 18/48/33
f 7/18/9 8/52/9 15/53/9
f 15/53/9 1/38/9 7/18/9
f 7/18/9 30/40/9 32/54/9 18/19/9
f 11/23/34 25/24/34 27/22/34 4/21/34
f 6/17/35 27/22/35 26/55/35 14/2/35
f 33/27/36 34/32/36 30/16/36
f 35/28/37 31/31/37 32/29/37
f 33/27/38 29/1/38 31/31/38
f 36/30/17 32/29/17 30/16/17
f 24/33/39 12/36/39 34/32/39
f 22/34/40 35/28/40 36/30/40
f 26/55/41 28/26/41 9/13/41 14/2/41
f 17/35/20 36/30/20 34/32/20
f 38/56/42 12/36/42 24/33/42 37/57/42
f 37/57/43 39/58/43 40/59/43 38/56/43
f 40/59/44 17/35/44 12/36/44 38/56/44
f 39/58/45 22/34/45 17/35/45 40/59/45
f 37/57/9 24/33/9 22/34/9 39/58/9
