# Blender v2.83.1 OBJ File: ''
# www.blender.org
mtllib test.mtl
o Cube_Cube.001
v -1.458897 0.000000 -1.512199
v 0.129200 2.000000 -0.716194
v 2.541103 0.000000 -1.512200
v 0.953007 2.000000 -0.716194
v 0.132977 0.067362 0.667214
v 0.129200 2.000000 -0.128792
v 0.949230 0.067362 0.667214
v 0.953007 2.000000 -0.128792
v -1.458897 2.000000 -1.512199
v 2.541103 2.000000 -1.512200
v 0.949230 1.196217 0.667214
v 0.132977 1.196217 0.667214
v 0.445692 2.100629 -0.509374
v 0.636515 2.100629 -0.509374
v 0.636515 2.100629 -0.335612
v 0.445692 2.100629 -0.335612
v 2.541103 2.000000 0.667213
v 2.541103 0.000000 0.667213
v -1.458897 0.000000 0.667214
v -1.458897 2.000000 0.667214
v 0.949230 1.196217 0.557624
v 0.949230 0.067362 0.557624
v 0.132977 0.067362 0.557624
v 0.132977 1.196217 0.557624
v -0.037597 0.490085 0.720933
v -0.037597 1.554258 0.720933
v -1.101770 0.490085 0.720933
v -1.101770 1.554258 0.720933
v -0.037597 0.490085 0.360268
v -0.037597 1.554258 0.360268
v -1.101770 0.490085 0.360268
v -1.101770 1.554258 0.360268
v 2.566341 0.489936 0.692253
v 2.566341 1.463010 0.692253
v 1.593266 0.489936 0.692253
v 1.593266 1.463010 0.692253
v 2.566341 0.489936 -0.838592
v 2.566341 1.463010 -0.838592
v 1.593266 0.489936 -0.838592
v 1.593266 1.463010 -0.838592
v 0.997624 1.248739 1.037409
v 0.997624 1.119109 1.037409
v 0.084582 1.248739 1.037409
v 0.084582 1.119109 1.037409
v 0.997625 1.248739 0.043793
v 0.997625 1.119109 0.043793
v 0.084582 1.248739 0.043793
v 0.084582 1.119109 0.043793
v -0.569684 0.490085 0.720933
v -0.037597 1.186885 0.720933
v -0.569684 1.554258 0.720933
v -1.101770 1.186885 0.720933
v 2.079803 0.489936 0.692253
v 2.566341 0.976473 0.692253
v 2.079803 1.463010 0.692253
v 1.593266 0.976473 0.692253
v 2.079803 0.976473 0.692253
v -0.569684 1.186885 0.720933
v -0.037597 1.186885 1.017262
v -0.037597 1.554258 0.747047
v -0.569684 1.554258 0.747047
v -1.101770 1.554258 0.747047
v -1.101771 1.186885 1.017262
v -0.569684 1.186885 1.017262
v 0.129200 2.100629 -0.716194
v 0.953007 2.100629 -0.716194
v 0.953007 2.100629 -0.128792
v 0.129200 2.100629 -0.128792
v 0.445692 2.437031 -0.509374
v 0.636515 2.437031 -0.509374
v 0.636515 2.437031 -0.335612
v 0.445692 2.437031 -0.335612
v 0.332909 2.520311 -0.612073
v 0.749297 2.520311 -0.612073
v 0.749297 2.520311 -0.232913
v 0.332909 2.520311 -0.232913
v 0.368581 2.777267 -0.550236
v 0.681389 2.754241 -0.550236
v 0.681389 2.754241 -0.294750
v 0.368581 2.777267 -0.294750
v 0.493457 3.022343 -0.566781
v 0.805197 2.863768 -0.566781
v 0.805197 2.863768 -0.278205
v 0.493457 3.022343 -0.278205
v 0.700814 3.207415 -0.612073
v 1.149312 3.187940 -0.612073
v 1.149312 3.187940 -0.232913
v 0.700814 3.207415 -0.232913
v 0.723225 3.437359 -0.649286
v 1.197625 3.645555 -0.649286
v 1.197625 3.645555 -0.195700
v 0.723225 3.437359 -0.195700
v 0.690221 3.664511 -0.649286
v 0.820478 4.109410 -0.649286
v 0.820478 4.109410 -0.195700
v 0.690221 3.664510 -0.195700
v 0.520262 3.748148 -0.612073
v 0.339782 4.091354 -0.612073
v 0.339782 4.091354 -0.232913
v 0.520262 3.748148 -0.232913
v 0.411466 3.625726 -0.612073
v 0.033072 3.799500 -0.612073
v 0.033072 3.799500 -0.232913
v 0.411466 3.625726 -0.232913
v 0.256826 3.441361 -0.541703
v 0.003307 3.506798 -0.541703
v 0.003307 3.506798 -0.303284
v 0.256826 3.441361 -0.303283
v 2.541103 -0.073900 -1.512200
v -1.458897 -0.073900 -1.512199
v 2.541103 -0.073900 0.667213
v -1.458897 -0.073900 0.667214
v 3.541103 0.018475 -2.057053
v -2.458897 0.018475 -2.057053
v 3.541103 0.018475 1.212067
v -2.458897 0.018475 1.212067
v 3.541103 -0.092375 -2.057053
v -2.458897 -0.092375 -2.057053
v 3.541103 -0.092375 1.212067
v -2.458897 -0.092375 1.212067
vt 0.375000 0.000000
vt 0.625000 0.000000
vt 0.625000 0.250000
vt 0.375000 0.250000
vt 0.625000 0.500000
vt 0.375000 0.500000
vt 0.611669 0.506666
vt 0.611669 0.743334
vt 0.611669 0.743334
vt 0.611669 0.506666
vt 0.375000 0.750000
vt 0.625000 0.750000
vt 0.625000 1.000000
vt 0.375000 1.000000
vt 0.125000 0.500000
vt 0.125000 0.750000
vt 0.125000 0.750000
vt 0.125000 0.500000
vt 0.783690 0.700250
vt 0.716310 0.700250
vt 0.716310 0.700250
vt 0.783690 0.700250
vt 0.783690 0.549750
vt 0.875000 0.500000
vt 0.875000 0.750000
vt 0.716310 0.549750
vt 0.742257 0.658925
vt 0.742257 0.591075
vt 0.742257 0.591075
vt 0.742257 0.658925
vt 0.783690 0.549750
vt 0.716310 0.549750
vt 0.388331 0.506666
vt 0.388331 0.743334
vt 0.388331 0.506666
vt 0.388331 0.743334
vt 0.500000 0.250000
vt 0.500000 0.125000
vt 0.500000 0.125000
vt 0.500000 0.250000
vt 0.375000 0.250000
vt 0.625000 0.250000
vt 0.625000 0.500000
vt 0.375000 0.500000
vt 0.625000 0.750000
vt 0.375000 0.750000
vt 0.625000 1.000000
vt 0.500000 1.000000
vt 0.375000 1.000000
vt 0.125000 0.500000
vt 0.125000 0.750000
vt 0.125000 0.625000
vt 0.875000 0.500000
vt 0.875000 0.625000
vt 0.875000 0.750000
vt 0.500000 0.125000
vt 0.625000 0.125000
vt 0.625000 0.250000
vt 0.500000 0.250000
vt 0.375000 0.250000
vt 0.625000 0.500000
vt 0.375000 0.500000
vt 0.625000 0.750000
vt 0.375000 0.750000
vt 0.625000 1.000000
vt 0.500000 1.000000
vt 0.375000 1.000000
vt 0.125000 0.500000
vt 0.125000 0.750000
vt 0.125000 0.625000
vt 0.875000 0.500000
vt 0.875000 0.625000
vt 0.875000 0.750000
vt 0.375000 0.000000
vt 0.625000 0.000000
vt 0.625000 0.250000
vt 0.375000 0.250000
vt 0.625000 0.500000
vt 0.375000 0.500000
vt 0.625000 0.750000
vt 0.375000 0.750000
vt 0.625000 1.000000
vt 0.375000 1.000000
vt 0.125000 0.500000
vt 0.125000 0.750000
vt 0.875000 0.500000
vt 0.875000 0.750000
vt 0.375000 0.125000
vt 0.375000 0.000000
vt 0.500000 0.000000
vt 0.625000 0.000000
vt 0.375000 0.125000
vt 0.375000 0.000000
vt 0.500000 0.000000
vt 0.625000 0.250000
vt 0.625000 0.125000
vt 0.500000 0.000000
vt 0.625000 0.000000
vt 0.875000 0.500000
vt 0.875000 0.625000
vt 0.875000 0.750000
vt 0.625000 1.000000
vt 0.500000 1.000000
vt 0.757743 0.658925
vt 0.757743 0.591075
vt 0.742257 0.591075
vt 0.742257 0.658925
vt 0.757743 0.658925
vt 0.757743 0.591075
vt 0.757743 0.658925
vt 0.742257 0.658925
vt 0.757743 0.658925
vt 0.757743 0.591075
vt 0.742257 0.591075
vt 0.742257 0.591075
vt 0.742257 0.658925
vt 0.757743 0.591075
vt 0.757743 0.591075
vt 0.757743 0.658925
vt 0.757743 0.658925
vt 0.757743 0.591075
vt 0.742257 0.658925
vt 0.742257 0.658925
vt 0.757743 0.658925
vt 0.742257 0.591075
vt 0.742257 0.591075
vt 0.742257 0.591075
vt 0.742257 0.658925
vt 0.757743 0.591075
vt 0.757743 0.658925
vt 0.742257 0.658925
vt 0.757743 0.658925
vt 0.757743 0.591075
vt 0.742257 0.591075
vt 0.757743 0.591075
vt 0.757743 0.591075
vt 0.742257 0.591075
vt 0.742257 0.658925
vt 0.742257 0.591075
vt 0.742257 0.658925
vt 0.757743 0.658925
vt 0.757743 0.591075
vt 0.757743 0.658925
vt 0.375000 0.500000
vt 0.375000 0.750000
vt 0.375000 0.250000
vt 0.375000 0.000000
vt 0.375000 0.500000
vt 0.375000 0.750000
vt 0.375000 0.500000
vt 0.375000 0.250000
vt 0.375000 0.000000
vt 0.375000 0.750000
vt 0.375000 1.000000
vt 0.375000 1.000000
vn -0.0000 0.0000 -1.0000
vn 1.0000 0.0000 -0.0000
vn 0.0000 -1.0000 0.0000
vn -1.0000 0.0000 -0.0000
vn 0.0000 -0.9994 0.0339
vn 0.0000 1.0000 0.0000
vn 0.0000 0.0000 1.0000
vn -0.0000 0.5925 0.8056
vn 0.0000 -0.7767 0.6298
vn -0.9905 0.1375 0.0000
vn 0.0000 -0.7767 -0.6298
vn -0.5940 -0.8045 0.0000
vn 0.5940 -0.8045 0.0000
vn -0.0225 -0.0773 0.9968
vn 0.9604 0.2788 0.0000
vn 0.0077 0.2448 0.9695
vn 0.0077 0.2448 -0.9695
vn -0.0329 -0.1404 -0.9895
vn -0.0225 -0.0773 -0.9968
vn -0.8910 0.4540 0.0000
vn 0.6626 -0.7490 0.0000
vn -0.9953 0.0970 0.0000
vn -0.6659 0.7461 0.0000
vn 0.6857 -0.7279 0.0000
vn -0.0329 -0.1404 0.9895
vn 0.9945 -0.1050 0.0000
vn 0.0225 -0.1099 0.9937
vn 0.0225 -0.1099 -0.9937
vn -0.4415 -0.8972 -0.0000
vn -0.9896 -0.1438 0.0000
vn 0.7759 0.6309 0.0000
vn -0.6893 0.7244 -0.0000
vn -0.0375 0.9993 0.0000
vn -0.1144 -0.0073 0.9934
vn -0.1144 -0.0073 -0.9934
vn -0.0939 -0.2481 0.9642
vn 0.7475 -0.6643 0.0000
vn -0.2499 -0.9683 -0.0000
vn -0.0939 -0.2481 -0.9642
vn 0.7662 -0.6426 -0.0000
vn -0.9949 0.1012 -0.0000
vn 0.0000 0.9994 0.0339
vn -0.0000 -0.9994 -0.0339
vn -0.0185 0.9998 0.0000
vn -0.0000 0.9994 -0.0339
vn 0.0185 -0.9998 0.0000
vn -0.0185 -0.9998 0.0000
vn 0.0185 0.9998 0.0000
usemtl None
s off
f 1/1/1 9/2/1 10/3/1 3/4/1
f 3/4/2 10/3/2 17/5/2 18/6/2
f 11/7/3 12/8/3 24/9/3 21/10/3
f 19/11/4 20/12/4 9/13/4 1/14/4
f 109/15/5 110/16/5 118/17/5 117/18/5
f 2/19/4 6/20/4 68/21/4 65/22/4
f 2/19/6 4/23/6 10/24/6 9/25/6
f 4/23/6 8/26/6 17/5/6 10/24/6
f 8/26/6 6/20/6 20/12/6 17/5/6
f 6/20/6 2/19/6 9/25/6 20/12/6
f 16/27/7 15/28/7 71/29/7 72/30/7
f 8/26/2 4/23/2 66/31/2 67/32/2
f 6/20/7 8/26/7 67/32/7 68/21/7
f 4/23/1 2/19/1 65/22/1 66/31/1
f 11/7/7 7/33/7 18/6/7 17/5/7
f 7/33/7 5/34/7 19/11/7 18/6/7
f 12/8/7 11/7/7 17/5/7 20/12/7
f 5/34/7 12/8/7 20/12/7 19/11/7
f 22/35/7 21/10/7 24/9/7 23/36/7
f 7/33/4 11/7/4 21/10/4 22/35/4
f 12/8/2 5/34/2 23/36/2 24/9/2
f 5/34/6 7/33/6 22/35/6 23/36/6
f 52/37/3 58/38/3 64/39/3 63/40/3
f 27/41/4 52/37/4 28/42/4 32/43/4 31/44/4
f 31/44/1 32/43/1 30/45/1 29/46/1
f 29/46/2 30/45/2 26/47/2 50/48/2 25/49/2
f 27/50/3 31/44/3 29/46/3 25/51/3 49/52/3
f 32/43/6 28/53/6 51/54/6 26/55/6 30/45/6
f 57/56/7 55/57/7 36/58/7 56/59/7
f 35/60/4 56/59/4 36/58/4 40/61/4 39/62/4
f 39/62/1 40/61/1 38/63/1 37/64/1
f 37/64/2 38/63/2 34/65/2 54/66/2 33/67/2
f 35/68/3 39/62/3 37/64/3 33/69/3 53/70/3
f 40/61/6 36/71/6 55/72/6 34/73/6 38/63/6
f 41/74/1 42/75/1 44/76/1 43/77/1
f 43/77/2 44/76/2 48/78/2 47/79/2
f 47/79/7 48/78/7 46/80/7 45/81/7
f 45/81/4 46/80/4 42/82/4 41/83/4
f 43/84/3 47/79/3 45/81/3 41/85/3
f 48/78/6 44/86/6 42/87/6 46/80/6
f 53/88/7 57/56/7 56/59/7 35/60/7
f 33/89/7 54/90/7 57/56/7 53/88/7
f 54/90/7 34/91/7 55/57/7 57/56/7
f 49/92/7 58/38/7 52/37/7 27/41/7
f 25/93/7 50/94/7 58/38/7 49/92/7
f 28/42/4 52/37/4 63/40/4 62/95/4
f 64/39/8 61/96/8 62/95/8 63/40/8
f 59/97/8 60/98/8 61/96/8 64/39/8
f 51/54/6 28/53/6 62/99/6 61/100/6
f 58/38/3 50/94/3 59/97/3 64/39/3
f 26/55/6 51/54/6 61/100/6 60/101/6
f 50/48/2 26/47/2 60/102/2 59/103/2
f 13/104/6 14/105/6 66/31/6 65/22/6
f 14/105/6 15/28/6 67/32/6 66/31/6
f 15/28/6 16/27/6 68/21/6 67/32/6
f 16/27/6 13/104/6 65/22/6 68/21/6
f 72/30/9 71/29/9 75/106/9 76/107/9
f 14/105/1 13/104/1 69/108/1 70/109/1
f 13/104/4 16/27/4 72/30/4 69/108/4
f 15/28/2 14/105/2 70/109/2 71/29/2
f 73/110/10 76/107/10 80/111/10 77/112/10
f 70/109/11 69/108/11 73/110/11 74/113/11
f 69/108/12 72/30/12 76/107/12 73/110/12
f 71/29/13 70/109/13 74/113/13 75/106/13
f 80/111/14 79/114/14 83/115/14 84/116/14
f 75/106/15 74/113/15 78/117/15 79/114/15
f 76/107/16 75/106/16 79/114/16 80/111/16
f 74/113/17 73/110/17 77/112/17 78/117/17
f 82/118/18 81/119/18 85/120/18 86/121/18
f 78/117/19 77/112/19 81/119/19 82/118/19
f 77/112/20 80/111/20 84/116/20 81/119/20
f 79/114/21 78/117/21 82/118/21 83/115/21
f 85/120/22 88/122/22 92/123/22 89/124/22
f 81/119/23 84/116/23 88/122/23 85/120/23
f 83/115/24 82/118/24 86/121/24 87/125/24
f 84/116/25 83/115/25 87/125/25 88/122/25
f 92/123/7 91/126/7 95/127/7 96/128/7
f 87/125/26 86/121/26 90/129/26 91/126/26
f 88/122/27 87/125/27 91/126/27 92/123/27
f 86/121/28 85/120/28 89/124/28 90/129/28
f 93/130/29 96/128/29 100/131/29 97/132/29
f 90/129/1 89/124/1 93/130/1 94/133/1
f 89/124/30 92/123/30 96/128/30 93/130/30
f 91/126/31 90/129/31 94/133/31 95/127/31
f 99/134/32 98/135/32 102/136/32 103/137/32
f 95/127/33 94/133/33 98/135/33 99/134/33
f 96/128/34 95/127/34 99/134/34 100/131/34
f 94/133/35 93/130/35 97/132/35 98/135/35
f 104/138/36 103/137/36 107/139/36 108/140/36
f 100/131/7 99/134/7 103/137/7 104/138/7
f 98/135/1 97/132/1 101/141/1 102/136/1
f 97/132/37 100/131/37 104/138/37 101/141/37
f 107/139/38 106/142/38 105/143/38 108/140/38
f 102/136/39 101/141/39 105/143/39 106/142/39
f 101/141/40 104/138/40 108/140/40 105/143/40
f 103/137/41 102/136/41 106/142/41 107/139/41
f 109/15/3 111/144/3 112/145/3 110/16/3
f 1/1/42 3/4/42 113/146/42 114/147/42
f 112/145/43 111/144/43 119/148/43 120/149/43
f 3/4/44 18/6/44 115/150/44 113/146/44
f 113/146/2 115/150/2 119/148/2 117/151/2
f 114/147/1 113/146/1 117/151/1 118/152/1
f 115/150/7 116/153/7 120/149/7 119/148/7
f 116/153/4 114/154/4 118/155/4 120/149/4
f 18/6/45 19/11/45 116/153/45 115/150/45
f 110/16/46 112/145/46 120/149/46 118/17/46
f 111/144/47 109/15/47 117/18/47 119/148/47
f 19/11/48 1/14/48 114/154/48 116/153/48
