# Blender v2.83.1 OBJ File: 'thrue.blend'
# www.blender.org
mtllib test.mtl
o store.003_Cube.009
v -2.016279 0.000000 -1.512199
v -0.508775 2.011105 -0.463011
v 1.983721 0.000000 -1.512200
v 0.315032 2.011105 -0.463011
v -0.424406 0.067362 0.667214
v -0.508775 2.011105 0.124391
v 0.391847 0.067362 0.667214
v 0.315032 2.011105 0.124391
v -2.016279 0.500000 -1.512199
v 1.983721 0.500000 -1.512200
v 0.391847 1.196217 0.667214
v -0.192283 2.111733 -0.256191
v -0.001460 2.111733 -0.256191
v -0.001460 2.111733 -0.082429
v -0.192283 2.111733 -0.082429
v 1.983721 0.000000 0.667213
v -2.016279 0.000000 0.667214
v -2.016279 0.500000 0.667214
v 0.391847 1.196218 0.557624
v 0.391847 0.067362 0.557624
v -0.424406 0.067362 0.557624
v -0.424406 1.196217 0.557624
v 0.440242 1.248739 1.037409
v 0.440242 1.119109 1.037409
v -0.472801 1.248739 1.037409
v -0.472801 1.119109 1.037409
v 0.440242 1.248739 0.043793
v 0.440242 1.119109 0.043793
v -0.472800 1.248739 0.043793
v -0.472800 1.119109 0.043793
v -0.508775 2.111733 -0.463011
v 0.315032 2.111733 -0.463011
v 0.315032 2.111733 0.124391
v -0.508775 2.111733 0.124391
v 1.983721 0.067362 0.667213
v -2.016279 0.067362 0.667214
v 2.983720 0.018475 -2.057053
v -3.016279 0.018475 -2.057053
v 2.983721 0.018475 1.212067
v -3.016279 0.018475 1.212067
v 2.983720 -0.092375 -2.057053
v -3.016279 -0.092375 -2.057053
v 2.983721 -0.092375 1.212067
v -3.016279 -0.092375 1.212067
v -0.016279 0.000000 -1.512200
v -2.016279 0.067362 -1.512199
v -0.016279 0.500000 -1.512200
v 0.391847 0.500000 0.557624
v -2.016279 0.000000 -0.422493
v -2.016279 0.500000 -0.422493
v -0.016279 0.067362 -1.512200
v -2.016279 0.067362 -0.422493
v 1.983721 0.067362 -1.512200
v 0.391847 0.500000 0.667214
v -0.424406 0.500000 0.667214
v 1.983721 0.500000 0.667213
v -0.424406 0.500000 0.557624
v -1.220342 0.500000 0.667214
v -1.653063 0.500000 0.667214
v -0.602424 0.500000 0.667214
v 1.053099 0.500000 0.667214
v 1.983721 0.500000 -0.822213
v -2.016279 1.196218 -1.512199
v 1.983721 1.196218 -1.512200
v -2.016279 1.196218 0.667214
v -0.016279 1.196218 -1.512200
v -2.016279 1.196218 -0.422493
v -0.424406 1.196218 0.667214
v -1.653063 1.196218 0.667214
v -0.602424 1.196218 0.667214
v 1.053099 1.196218 0.667214
v 1.983720 1.196218 -0.822213
v 0.391847 1.434826 0.667214
v -2.016279 1.434826 -1.512199
v 1.983721 1.434826 -1.512200
v -2.016279 1.434826 0.667214
v -0.016279 1.434826 -1.512200
v -2.016279 1.434826 -0.422493
v -0.424406 1.434826 0.667214
v -1.653063 1.434826 0.667214
v -0.602424 1.434826 0.667214
v 1.053099 1.434826 0.667214
v 1.983720 1.434826 -0.822213
v 1.983720 1.434826 0.667214
v 0.391847 2.053386 0.472378
v -1.821443 2.053387 -1.317363
v 1.788885 2.053387 -1.317364
v -1.821443 2.053387 0.472378
v -0.016279 2.053387 -1.317364
v -1.821443 2.053387 -0.422493
v -0.424406 2.053387 0.472378
v -1.653063 2.053387 0.472378
v -0.602424 2.053387 0.472378
v 1.053099 2.053387 0.472378
v 1.788884 2.053387 -0.822214
v 1.788884 2.053387 0.472378
v -2.953799 -0.068848 1.185242
v 2.953799 -0.068848 1.185242
v -2.953799 -0.068848 -2.025241
v 2.953799 -0.068848 -2.025241
v -0.016279 1.727753 -1.512200
v 1.983721 1.727753 -1.512200
v -2.016279 1.727753 -0.422493
v -2.016279 1.727753 -1.512199
v -2.016279 1.727753 0.667214
v 1.983720 1.727753 -0.822213
v -1.653063 1.727753 0.667214
v -0.424406 1.727753 0.667214
v -0.602424 1.727753 0.667214
v 0.391847 1.727752 0.667214
v 1.053099 1.727753 0.667214
v 1.983720 1.727753 0.667214
v 1.518409 1.434826 0.667214
vt 0.375000 0.875000
vt 0.375000 1.000000
vt 0.375000 0.750000
vt 0.375000 0.500000
vt 0.388331 0.506666
vt 0.388331 0.743334
vt 0.757743 0.658925
vt 0.783690 0.549750
vt 0.783690 0.700250
vt 0.742257 0.658925
vt 0.716310 0.549750
vt 0.742257 0.591075
vt 0.375000 0.000000
vt 0.375000 0.250000
vt 0.375000 0.000000
vt 0.375000 0.750000
vt 0.375000 0.500000
vt 0.757743 0.591075
vt 0.716310 0.700250
vt 0.375000 0.125000
vt 0.783690 0.549750
vt 0.716310 0.549750
vt 0.716310 0.700250
vt 0.375000 1.000000
vt 0.783690 0.700250
vt 0.593750 0.748334
vt 0.531250 0.745001
vt 0.531250 0.745001
vt 0.593750 0.748334
vt 0.611669 0.506666
vt 0.611669 0.506666
vt 0.611669 0.743334
vt 0.611669 0.743334
vt 0.381666 0.503333
vt 0.500000 0.743334
vt 0.500000 0.743334
vt 0.375000 0.375000
vt 0.375000 0.375000
vt 0.375000 0.250000
vt 0.375000 0.250000
vt 0.625000 0.125000
vt 0.625000 0.125000
vt 0.625000 0.000000
vt 0.625000 0.000000
vt 0.611669 0.506666
vt 0.611669 0.743334
vt 0.611669 0.743334
vt 0.611669 0.506666
vt 0.625000 1.000000
vt 0.625000 1.000000
vt 0.625000 0.875000
vt 0.625000 0.875000
vt 0.375000 0.375000
vt 0.375000 0.250000
vt 0.625000 0.000000
vt 0.625000 0.125000
vt 0.500000 0.125000
vt 0.500000 0.000000
vt 0.625000 0.750000
vt 0.375000 0.750000
vt 0.375000 1.000000
vt 0.625000 1.000000
vt 0.375000 0.500000
vt 0.125000 0.500000
vt 0.125000 0.750000
vt 0.500000 0.506666
vt 0.500000 0.506666
vt 0.437500 0.503333
vt 0.437500 0.503333
vt 0.500000 0.506666
vt 0.500000 0.506666
vt 0.437500 0.503333
vt 0.437500 0.503333
vt 0.500000 0.506666
vt 0.388331 0.506666
vt 0.625000 0.750000
vt 0.625000 0.875000
vt 0.500000 0.875000
vt 0.500000 0.750000
vt 0.500000 0.250000
vt 0.375000 0.250000
vt 0.625000 0.250000
vt 0.375000 0.250000
vt 0.375000 0.000000
vt 0.375000 0.750000
vt 0.375000 0.500000
vt 0.381666 0.746667
vt 0.875000 0.500000
vt 0.625000 0.500000
vt 0.875000 0.750000
vt 0.625000 0.250000
vt 0.375000 0.250000
vt 0.625000 0.000000
vt 0.375000 0.000000
vt 0.375000 0.250000
vt 0.375000 0.500000
vt 0.562500 0.746667
vt 0.593750 0.748334
vt 0.375000 0.500000
vt 0.500000 0.743334
vt 0.531250 0.745001
vt 0.000000 1.000000
vt 0.000000 0.000000
vt 1.000000 0.000000
vt 1.000000 1.000000
vt 0.388331 0.743334
vt 0.625000 0.750000
vt 0.500000 0.743334
vt 0.625000 0.250000
vt 0.625000 1.000000
vt 0.625000 0.750000
vt 0.625000 0.250000
vt 0.375000 1.000000
vt 0.500000 1.000000
vt 0.437500 0.503333
vt 0.437500 0.503333
vt 0.437500 0.503333
vt 0.531250 0.745001
vt 0.500000 0.743334
vt 0.625000 0.875000
vt 0.625000 0.750000
vt 0.625000 0.250000
vt 0.625000 0.125000
vt 0.593750 0.748334
vt 0.375000 0.375000
vt 0.375000 0.250000
vt 0.625000 1.000000
vt 0.000000 0.000000
vt 0.000000 0.000000
vt 0.000000 0.000000
vt 0.625000 0.000000
vt 0.000000 0.000000
vt 0.000000 0.000000
vt 0.000000 0.000000
vt 0.000000 0.000000
vt 0.000000 0.000000
vt 0.000000 0.000000
vt 0.000000 0.000000
vt 0.000000 0.000000
vt 0.000000 0.000000
vt 0.000000 0.000000
vt 0.000000 0.000000
vt 0.000000 0.000000
vt 0.000000 0.000000
vt 0.000000 0.000000
vt 0.000000 0.000000
vt 0.000000 0.000000
vt 0.000000 0.000000
vt 0.000000 0.000000
vt 0.000000 0.000000
vt 0.000000 0.000000
vt 0.000000 0.000000
vt 0.000000 0.000000
vt 0.000000 0.000000
vt 0.000000 0.000000
vt 0.000000 0.000000
vn 0.0185 0.9998 0.0000
vn 0.0000 0.0000 1.0000
vn 0.0000 1.0000 0.0000
vn 0.0000 0.9994 0.0339
vn -0.0000 0.9994 -0.0339
vn 1.0000 0.0000 -0.0000
vn -0.0000 0.0000 -1.0000
vn 0.0000 -1.0000 -0.0000
vn -1.0000 0.0000 0.0000
vn -0.0185 0.9998 0.0000
vn -0.0000 0.5134 -0.8581
vn -0.8581 0.5134 0.0000
vn 0.8581 0.5134 0.0000
vn 0.0000 0.5134 0.8581
usemtl None
s off
f 49/1/1 38/2/1 40/3/1
f 16/4/2 7/5/2 5/6/2
f 12/7/3 32/8/3 31/9/3
f 15/10/3 33/11/3 14/12/3
f 1/13/4 37/14/4 38/15/4
f 17/16/5 39/17/5 16/4/5
f 5/6/2 17/16/2 16/4/2
f 12/7/3 13/18/3 32/8/3
f 15/10/3 34/19/3 33/11/3
f 45/20/4 37/14/4 1/13/4
f 17/16/5 40/3/5 39/17/5
f 4/21/6 32/8/6 33/11/6 8/22/6
f 8/22/2 33/11/2 34/19/2 6/23/2
f 40/3/1 17/16/1 49/1/1
f 49/1/1 1/24/1 38/2/1
f 2/25/7 31/9/7 32/8/7 4/21/7
f 69/26/2 70/27/2 81/28/2 80/29/2
f 19/30/8 11/31/8 68/32/8 22/33/8
f 16/4/2 35/34/2 7/5/2
f 81/28/2 70/27/2 68/35/2 79/36/2
f 72/37/6 62/38/6 10/39/6 64/40/6
f 77/41/7 66/42/7 63/43/7 74/44/7
f 110/45/2 108/46/2 79/47/2 73/48/2
f 74/49/9 63/50/9 67/51/9 78/52/9
f 83/53/6 72/37/6 64/40/6 75/54/6
f 9/55/7 47/56/7 51/57/7 46/58/7
f 28/59/6 27/60/6 23/61/6 24/62/6
f 66/42/7 47/56/7 9/55/7 63/43/7
f 29/63/3 25/64/3 23/65/3 27/60/3
f 11/66/2 54/67/2 61/68/2 71/69/2
f 110/70/2 73/71/2 82/72/2 111/73/2
f 54/67/9 48/74/9 20/75/9 7/5/9
f 18/76/9 50/77/9 52/78/9 36/79/9
f 36/79/9 52/78/9 49/1/9 17/16/9
f 34/19/3 15/10/3 12/7/3 31/9/3
f 51/57/7 53/80/7 3/81/7 45/20/7
f 51/57/7 47/56/7 10/82/7 53/80/7
f 6/23/9 34/19/9 31/9/9 2/25/9
f 32/8/3 13/18/3 14/12/3 33/11/3
f 37/14/7 41/83/7 42/84/7 38/15/7
f 40/3/2 44/85/2 43/86/2 39/17/2
f 5/6/2 36/87/2 17/16/2
f 45/20/4 3/81/4 37/14/4
f 46/58/7 51/57/7 45/20/7 1/13/7
f 26/88/8 30/89/8 28/59/8 24/90/8
f 26/91/9 25/92/9 29/63/9 30/89/9
f 24/93/2 23/94/2 25/92/2 26/91/2
f 53/95/6 10/39/6 62/38/6
f 11/31/9 19/30/9 48/74/9 54/67/9
f 3/81/6 53/95/6 35/96/6 16/4/6
f 58/97/2 59/98/2 36/79/2
f 61/68/2 54/67/2 7/5/2
f 56/99/6 35/96/6 62/38/6
f 35/96/6 53/95/6 62/38/6
f 59/98/2 18/76/2 36/79/2
f 36/79/2 5/6/2 58/97/2
f 5/6/2 55/100/2 60/101/2
f 60/101/2 58/97/2 5/6/2
f 7/5/2 35/96/2 61/68/2
f 35/96/2 56/99/2 61/68/2
f 99/102/3 97/103/3 98/104/3 100/105/3
f 5/6/3 7/5/3 20/75/3 21/106/3
f 65/107/2 18/76/2 59/98/2 69/26/2
f 67/51/9 50/77/9 18/76/9 65/107/9
f 55/100/6 5/6/6 21/106/6 57/108/6
f 64/109/7 10/82/7 47/56/7 66/42/7
f 63/50/9 9/110/9 50/77/9 67/51/9
f 70/27/2 60/101/2 55/100/2 68/35/2
f 30/89/7 29/63/7 27/60/7 28/59/7
f 55/100/6 57/108/6 22/33/6 68/32/6
f 78/52/9 67/51/9 65/107/9 76/111/9
f 75/112/7 64/109/7 66/42/7 77/41/7
f 38/2/9 42/113/9 44/85/9 40/3/9
f 76/111/2 65/107/2 69/26/2 80/29/2
f 50/77/9 9/110/9 46/114/9 52/78/9
f 52/78/9 46/114/9 1/24/9 49/1/9
f 39/17/6 43/86/6 41/83/6 37/14/6
f 111/73/2 82/72/2 113/115/2 84/116/2 112/117/2
f 109/118/2 81/28/2 79/36/2 108/119/2
f 103/120/9 78/52/9 76/111/9 105/121/9
f 73/48/2 79/47/2 68/32/2 11/31/2
f 102/122/7 75/112/7 77/41/7 101/123/7
f 107/124/2 80/29/2 81/28/2 109/118/2
f 106/125/6 83/53/6 75/54/6 102/126/6
f 104/127/9 74/49/9 78/52/9 103/120/9
f 73/71/2 11/66/2 71/69/2 82/72/2
f 112/117/6 84/116/6 83/53/6 106/125/6
f 105/121/2 76/111/2 80/29/2 107/124/2
f 14/128/3 12/129/3 15/130/3
f 37/14/10 3/81/10 16/4/10 39/17/10
f 101/123/7 77/41/7 74/44/7 104/131/7
f 14/128/3 13/132/3 12/129/3
f 95/133/3 87/134/3 89/135/3
f 86/136/3 90/137/3 89/135/3
f 95/133/3 89/135/3 94/138/3
f 90/137/3 93/139/3 89/135/3
f 94/138/3 89/135/3 85/140/3
f 88/141/3 92/142/3 90/137/3
f 85/140/3 89/135/3 91/143/3
f 90/137/3 92/142/3 93/139/3
f 94/138/3 96/144/3 95/133/3
f 89/135/3 93/139/3 91/143/3
f 89/135/11 87/134/11 102/145/11 101/146/11
f 90/137/12 86/136/12 104/147/12 103/148/12
f 86/136/11 89/135/11 101/146/11 104/147/11
f 88/141/12 90/137/12 103/148/12 105/149/12
f 87/134/13 95/133/13 106/150/13 102/145/13
f 92/142/14 88/141/14 105/149/14 107/151/14
f 91/143/14 93/139/14 109/152/14 108/153/14
f 85/140/14 91/143/14 108/153/14 110/154/14
f 94/138/14 85/140/14 110/154/14 111/155/14
f 93/139/14 92/142/14 107/151/14 109/152/14
f 96/144/14 94/138/14 111/155/14 112/156/14
f 95/133/13 96/144/13 112/156/13 106/150/13
o left_window_Cube.012
v 2.012908 1.413085 -0.780267
v 2.012908 0.504472 -0.780267
v 2.012908 1.413085 0.686872
v 2.012908 0.504472 0.686872
v 1.039731 1.465502 -0.836024
v 1.039731 0.452056 -0.836024
v 1.095488 1.413085 0.686872
v 1.095488 0.504472 0.686872
v 2.012908 1.465502 0.686872
v 1.039731 1.465502 0.686872
v 1.039731 0.452056 0.686872
v 2.012908 0.452056 0.686872
v 2.012908 1.465502 -0.836024
v 2.012908 0.452056 -0.836024
v 1.975166 1.357016 0.626516
v 1.975166 0.560542 0.626516
v 1.170971 1.357016 0.626516
v 1.170971 0.560542 0.626516
v 1.975166 1.357016 -0.659553
v 1.975166 0.560542 -0.659553
v 1.493132 1.357016 0.489636
v 1.493132 0.560542 0.489636
v 0.688937 1.357016 0.489636
v 0.688937 0.560542 0.489636
v 1.493132 1.357016 -0.796433
v 1.493132 0.560542 -0.796433
vt 0.375000 0.000000
vt 0.625000 0.000000
vt 0.625000 0.250000
vt 0.375000 0.250000
vt 0.375000 0.250000
vt 0.625000 0.250000
vt 0.625000 0.500000
vt 0.375000 0.500000
vt 0.387930 0.735677
vt 0.387930 0.500000
vt 0.387930 0.500000
vt 0.387930 0.735677
vt 0.387930 1.000000
vt 0.387930 0.759153
vt 0.387930 0.759153
vt 0.387930 1.000000
vt 0.125000 0.500000
vt 0.375000 0.500000
vt 0.375000 0.750000
vt 0.125000 0.750000
vt 0.625000 0.500000
vt 0.875000 0.500000
vt 0.875000 0.750000
vt 0.625000 0.750000
vt 0.612070 0.735677
vt 0.612070 0.500000
vt 0.625000 0.500000
vt 0.625000 0.750000
vt 0.375000 0.750000
vt 0.375000 0.500000
vt 0.612070 1.000000
vt 0.612070 0.759153
vt 0.625000 0.750000
vt 0.625000 1.000000
vt 0.375000 1.000000
vt 0.375000 0.750000
vt 0.612070 0.759153
vt 0.612070 0.759153
vt 0.387930 0.759153
vt 0.387930 0.500000
vt 0.387930 0.735677
vt 0.612070 1.000000
vt 0.612070 0.735677
vt 0.612070 0.500000
vt 0.612070 0.500000
vt 0.612070 0.735677
vt 0.612070 1.000000
vt 0.387930 1.000000
vn 0.0000 1.0000 0.0000
vn 0.0000 -1.0000 0.0000
vn 0.0000 0.7326 0.6806
vn 0.8296 0.5584 0.0000
vn 0.0000 0.0000 -1.0000
vn -1.0000 0.0000 0.0000
vn 0.0000 0.0000 1.0000
vn 1.0000 0.0000 0.0000
vn -0.2732 0.0000 0.9620
vn 0.9544 0.0000 0.2984
vn 0.8296 -0.5584 0.0000
vn 0.0000 -0.7327 0.6806
vn 0.6245 0.0000 0.7810
vn 0.2732 0.0000 -0.9620
usemtl None
s off
f 126/157/15 118/158/15 123/159/15 122/160/15
f 119/161/16 127/162/16 125/163/16 124/164/16
f 121/165/17 117/166/17 129/167/17 131/168/17
f 117/169/18 115/170/18 133/171/18 129/172/18
f 119/173/19 118/174/19 126/175/19 127/176/19
f 124/177/20 123/178/20 118/179/20 119/180/20
f 120/181/21 116/182/21 122/183/21 123/184/21
f 117/166/21 121/165/21 124/185/21 125/186/21
f 116/187/22 114/188/22 126/189/22 122/190/22
f 115/170/22 117/169/22 125/191/22 127/192/22
f 114/188/22 115/170/22 127/192/22 126/189/22
f 121/165/21 120/181/21 123/184/21 124/185/21
f 133/171/23 132/193/23 138/194/23 139/195/23
f 131/168/15 129/167/15 135/196/15 137/197/15
f 115/170/24 114/188/24 132/193/24 133/171/24
f 114/188/25 116/187/25 128/198/25 132/193/25
f 116/182/26 120/181/26 130/199/26 128/200/26
f 120/181/27 121/165/27 131/168/27 130/199/27
f 135/196/21 134/201/21 136/202/21 137/197/21
f 139/195/22 138/194/22 134/203/22 135/204/22
f 132/193/16 128/198/16 134/203/16 138/194/16
f 128/200/16 130/199/16 136/202/16 134/201/16
f 130/199/28 131/168/28 137/197/28 136/202/28
f 129/172/15 133/171/15 139/195/15 135/204/15
o right_window_Cube.013
v -0.582609 1.554258 0.720933
v -1.676710 1.554258 0.720933
v -0.582609 1.186886 0.360268
v -0.582609 1.554258 0.360268
v -1.676710 1.186886 0.360268
v -1.676710 1.554258 0.360268
v -1.127066 1.554258 0.360268
v -0.582609 1.192819 1.011956
v -0.582609 1.560192 0.741741
v -1.127066 1.560192 0.741741
v -1.676710 1.554258 0.747047
v -1.676710 1.186885 1.017262
v -1.127066 1.192819 1.011955
v -1.676710 1.186886 0.720933
v -0.582609 1.186885 0.720933
v -1.127066 1.186885 0.720933
v -1.127066 1.186886 0.360268
v -1.548744 0.603365 0.685482
v -1.548744 1.097846 0.685482
v -1.658729 0.493380 0.326263
v -1.658729 1.207831 0.326263
v -0.707693 0.603365 0.685482
v -0.707693 1.097846 0.685482
v -0.597708 0.493380 0.326263
v -0.597708 1.207831 0.326263
v -1.658729 0.493380 0.685482
v -1.658729 1.207831 0.685482
v -0.597708 1.207831 0.685482
v -0.597708 0.493380 0.685482
v -1.548744 0.603365 0.386296
v -1.548744 1.097846 0.386296
v -0.707693 1.097846 0.386296
v -0.707693 0.603365 0.386296
vt 0.500000 0.250000
vt 0.375000 0.500000
vt 0.625000 0.500000
vt 0.625000 0.750000
vt 0.500000 1.000000
vt 0.625000 1.000000
vt 0.875000 0.625000
vt 0.875000 0.750000
vt 0.625000 0.250000
vt 0.375000 0.750000
vt 0.375000 0.500000
vt 0.500000 0.250000
vt 0.875000 0.500000
vt 0.625000 0.125000
vt 0.625000 0.250000
vt 0.500000 0.250000
vt 0.500000 0.125000
vt 0.500000 0.000000
vt 0.625000 0.000000
vt 0.500000 0.000000
vt 0.500000 0.125000
vt 0.875000 0.625000
vt 0.875000 0.750000
vt 0.875000 0.500000
vt 0.625000 1.000000
vt 0.500000 1.000000
vt 0.375000 0.000000
vt 0.625000 0.000000
vt 0.625000 0.250000
vt 0.375000 0.250000
vt 0.625000 0.500000
vt 0.375000 0.500000
vt 0.625000 0.750000
vt 0.375000 0.750000
vt 0.586514 0.974085
vt 0.413486 0.974085
vt 0.413486 0.974085
vt 0.586514 0.974085
vt 0.125000 0.500000
vt 0.125000 0.750000
vt 0.875000 0.500000
vt 0.875000 0.750000
vt 0.625000 1.000000
vt 0.375000 1.000000
vt 0.586514 0.775915
vt 0.413486 0.775915
vt 0.413486 0.775915
vt 0.586514 0.775915
vn 1.0000 0.0000 0.0000
vn -1.0000 0.0000 0.0000
vn 0.0000 -1.0000 0.0000
vn -0.0000 1.0000 0.0000
vn 0.0014 0.5925 0.8056
vn -0.0000 0.5925 0.8056
vn -0.0000 -0.9998 0.0204
vn 0.0054 -0.9999 0.0101
vn 0.0098 0.9995 -0.0295
vn -0.0102 0.9998 -0.0146
vn 0.0000 0.0000 -1.0000
vn 0.0000 0.0000 1.0000
usemtl None
s off
f 153/205/29 144/206/29 145/207/29
f 143/208/30 154/209/30 140/210/30
f 146/211/31 143/208/31 140/212/31
f 153/205/29 145/207/29 141/213/29
f 142/214/30 154/209/30 143/208/30
f 156/215/32 155/216/32 154/209/32 142/214/32
f 145/207/31 146/211/31 141/217/31
f 149/218/33 150/219/33 151/220/33 152/221/33
f 149/218/34 152/221/34 147/222/34 148/223/34
f 154/224/35 147/222/35 152/221/35 155/225/35
f 152/221/36 151/220/36 153/205/36 155/225/36
f 150/219/30 141/213/30 153/205/30 151/220/30
f 146/211/37 149/226/37 148/227/37 140/212/37
f 141/217/38 150/228/38 149/226/38 146/211/38
f 148/229/29 147/230/29 154/209/29 140/210/29
f 144/206/32 153/205/32 155/216/32 156/215/32
f 165/231/30 166/232/30 160/233/30 159/234/30
f 159/234/39 160/233/39 164/235/39 163/236/39
f 163/236/29 164/235/29 167/237/29 168/238/29
f 158/239/29 157/240/29 169/241/29 170/242/29
f 159/243/31 163/236/31 168/238/31 165/244/31
f 164/235/32 160/245/32 166/246/32 167/237/32
f 157/240/40 158/239/40 166/247/40 165/248/40
f 162/249/40 161/250/40 168/238/40 167/237/40
f 161/250/40 157/240/40 165/248/40 168/238/40
f 158/239/40 162/249/40 167/237/40 166/247/40
f 172/251/40 171/252/40 170/242/40 169/241/40
f 162/249/31 158/239/31 170/242/31 171/252/31
f 161/250/30 162/249/30 171/252/30 172/251/30
f 157/240/32 161/250/32 172/251/32 169/241/32
