# Blender v2.83.1 OBJ File: 'thrue.blend'
# www.blender.org
mtllib test.mtl
o chickenbody_Cube.014
v -0.236582 0.909254 0.338890
v -0.245952 0.890044 0.254677
v -0.107122 0.865047 0.541344
v -0.044355 0.861686 0.551570
v -0.117091 0.828058 0.371340
v -0.197149 0.874139 0.444764
v -0.121159 0.793452 0.282323
v -0.222800 0.824792 0.254534
v -0.038502 0.809128 0.385762
v -0.048663 0.817717 0.511929
v -0.041479 0.771012 0.282939
v -0.224784 0.972688 0.321643
v -0.223057 0.972116 0.230071
v -0.108556 0.966202 0.536345
v -0.045558 0.992729 0.548726
v -0.196520 1.014610 0.416738
v -0.111618 1.112769 0.410803
v -0.192287 1.046169 0.230726
v -0.104360 1.111199 0.304263
v -0.051935 1.066574 0.495197
v -0.061974 1.172999 0.403364
v -0.047398 1.205570 0.341390
v -0.243581 0.897078 0.144954
v -0.114193 0.791594 0.160862
v -0.230068 0.875465 0.089330
v -0.077902 0.834900 0.079706
v -0.156553 0.908498 -0.046872
v -0.060115 0.767977 0.130143
v -0.034740 0.811943 0.049330
v -0.040018 0.886289 -0.080472
v -0.005477 0.944912 -0.129535
v -0.224583 0.959418 0.143791
v -0.209116 0.977642 0.085809
v -0.104371 1.085633 0.205019
v -0.153703 1.023427 -0.047398
v -0.086389 1.088978 0.079187
v -0.053150 1.141708 0.134469
v -0.030905 1.105803 -0.096874
v -0.018424 1.121380 -0.023325
v -0.015285 1.092851 -0.145412
v 0.042991 0.869304 0.562149
v 0.107374 0.883357 0.551371
v 0.040555 0.799410 0.397145
v 0.049546 0.816878 0.518254
v 0.044355 0.757975 0.275788
v 0.086416 0.829378 0.406273
v 0.169228 0.866564 0.506714
v 0.125465 0.806495 0.248370
v 0.178762 0.808708 0.354856
v 0.193663 0.858306 0.417046
v 0.187404 0.782011 0.252583
v 0.200951 0.820943 0.288349
v 0.041418 1.017879 0.564539
v 0.109506 0.978652 0.544745
v 0.042175 1.081302 0.512546
v 0.057530 1.176654 0.416451
v 0.059445 1.197731 0.338830
v 0.191727 1.009435 0.445148
v 0.114398 1.074923 0.406005
v 0.197725 1.027022 0.278821
v 0.109206 1.075144 0.314992
v 0.209135 0.976035 0.373382
v 0.211267 0.986686 0.262275
v 0.040872 0.758056 0.146791
v 0.036312 0.824093 0.055166
v 0.046389 0.909841 -0.075455
v 0.107278 0.803055 0.132068
v 0.210735 0.908848 0.072434
v 0.078502 0.835629 0.072701
v 0.122093 0.897013 0.003881
v 0.008021 0.952939 -0.133248
v 0.181741 0.800033 0.192188
v 0.232579 0.900047 0.154230
v 0.076295 1.111456 0.055637
v 0.063461 1.128789 0.119810
v 0.040453 1.111165 -0.107609
v 0.012991 1.108364 0.005527
v 0.173992 1.019762 0.064540
v 0.102823 1.054670 0.195527
v 0.117057 1.007740 -0.015754
v 0.011339 1.087121 -0.166585
v 0.213546 0.974725 0.157518
v -0.000000 0.000000 -0.487330
v -0.000000 0.035710 0.487330
v 0.487330 0.035811 0.451519
v 0.487330 0.035811 -0.451519
v -0.000000 0.808076 -0.487330
v -0.487330 0.035811 -0.451519
v -0.487330 0.035811 0.451519
v -0.487330 0.451519 0.451519
v -0.487330 0.451519 -0.451519
v 0.487330 0.451519 0.451519
v 0.487330 0.451519 -0.451519
v 0.487330 0.487330 0.487330
v -0.000000 0.808076 0.487330
v 0.487330 0.487330 -0.487330
v 0.500208 0.003463 -0.500214
v -0.500208 0.003463 0.500214
v -0.500208 0.003463 -0.500214
v -0.000000 0.003463 -0.500214
v 0.500208 0.003463 0.500214
v -0.000000 0.003463 0.500214
v 0.451620 0.035710 -0.487330
v 0.451620 0.035710 0.487330
v 0.451620 0.468083 -0.487330
v -0.451620 0.035710 0.487330
v -0.451620 0.035710 -0.487330
v -0.451620 0.468083 -0.487330
v 0.451620 0.468083 0.487330
v -0.451620 0.468083 0.487330
v 0.463201 0.035811 -0.451519
v 0.463201 0.035811 0.451519
v 0.463201 0.451519 -0.451519
v -0.463201 0.035811 0.451519
v -0.463201 0.035811 -0.451519
v -0.463201 0.451519 -0.451519
v 0.463201 0.451519 0.451519
v -0.463201 0.451519 0.451519
v -0.487330 0.000000 -0.487330
v -0.000000 0.035710 -0.487330
v 0.487330 0.000000 -0.487330
v 0.487330 0.000000 0.487330
v -0.000000 0.000000 0.487330
v -0.000000 0.765325 0.487330
v -0.487330 0.000000 0.487330
v -0.487330 0.487330 -0.487330
v -0.000000 0.765325 -0.487330
v -0.487330 0.487330 0.487330
v -0.000000 0.765325 -0.462964
v -0.000000 0.035710 -0.462964
v -0.000000 0.765325 0.462964
v -0.000000 0.035710 0.462964
v -0.451620 0.035710 -0.462964
v 0.451620 0.035710 -0.462964
v 0.184870 0.615765 0.462964
v 0.451620 0.468083 -0.462964
v -0.451620 0.468083 -0.462964
v 0.451620 0.035710 0.462964
v 0.451620 0.468083 0.462964
v -0.000000 0.615765 0.462964
v -0.451620 0.035710 0.462964
v -0.451620 0.468083 0.462964
v -0.000000 0.615765 0.393032
v -0.000000 0.194598 0.393032
v 0.184870 0.194598 0.393032
v 0.184870 0.615765 0.393032
v -0.184870 0.194598 0.393032
v -0.184870 0.615765 0.393032
vt 0.000000 0.000000
vt 0.000000 0.000000
vt 0.000000 0.000000
vt 0.000000 0.000000
vt 0.000000 0.000000
vt 0.000000 0.000000
vt 0.000000 0.000000
vt 0.000000 0.000000
vt 0.000000 0.000000
vt 0.000000 0.000000
vt 0.000000 0.000000
vt 0.000000 0.000000
vt 0.000000 0.000000
vt 0.000000 0.000000
vt 0.000000 0.000000
vt 0.000000 0.000000
vt 0.000000 0.000000
vt 0.000000 0.000000
vt 0.000000 0.000000
vt 0.000000 0.000000
vt 0.000000 0.000000
vt 0.000000 0.000000
vt 0.000000 0.000000
vt 0.000000 0.000000
vt 0.000000 0.000000
vt 0.000000 0.000000
vt 0.000000 0.000000
vt 0.000000 0.000000
vt 0.000000 0.000000
vt 0.000000 0.000000
vt 0.000000 0.000000
vt 0.000000 0.000000
vt 0.000000 0.000000
vt 0.000000 0.000000
vt 0.000000 0.000000
vt 0.000000 0.000000
vt 0.000000 0.000000
vt 0.000000 0.000000
vt 0.000000 0.000000
vt 0.000000 0.000000
vt 0.000000 0.000000
vt 0.000000 0.000000
vt 0.000000 0.000000
vt 0.000000 0.000000
vt 0.000000 0.000000
vt 0.000000 0.000000
vt 0.000000 0.000000
vt 0.000000 0.000000
vt 0.000000 0.000000
vt 0.000000 0.000000
vt 0.000000 0.000000
vt 0.000000 0.000000
vt 0.000000 0.000000
vt 0.000000 0.000000
vt 0.000000 0.000000
vt 0.000000 0.000000
vt 0.000000 0.000000
vt 0.000000 0.000000
vt 0.000000 0.000000
vt 0.000000 0.000000
vt 0.000000 0.000000
vt 0.000000 0.000000
vt 0.000000 0.000000
vt 0.000000 0.000000
vt 0.000000 0.000000
vt 0.000000 0.000000
vt 0.000000 0.000000
vt 0.000000 0.000000
vt 0.000000 0.000000
vt 0.000000 0.000000
vt 0.000000 0.000000
vt 0.000000 0.000000
vt 0.000000 0.000000
vt 0.000000 0.000000
vt 0.000000 0.000000
vt 0.000000 0.000000
vt 0.000000 0.000000
vt 0.000000 0.000000
vt 0.000000 0.000000
vt 0.000000 0.000000
vt 0.000000 0.000000
vt 0.000000 0.000000
vt 0.615814 0.740814
vt 0.509186 0.740814
vt 0.509186 0.740814
vt 0.615814 0.740814
vt 0.618387 0.375000
vt 0.615973 0.490840
vt 0.615973 0.490840
vt 0.618387 0.375000
vt 0.500000 0.000000
vt 0.500000 0.250000
vt 0.500000 0.250000
vt 0.500000 0.000000
vt 0.500000 0.375000
vt 0.500000 0.500000
vt 0.500000 0.500000
vt 0.500000 0.375000
vt 0.615973 0.759160
vt 0.618387 0.875000
vt 0.618387 0.875000
vt 0.615973 0.759160
vt 0.508282 0.259160
vt 0.615973 0.259160
vt 0.615973 0.259160
vt 0.508282 0.259160
vt 0.615973 0.990840
vt 0.508282 0.990840
vt 0.508282 0.990840
vt 0.615973 0.990840
vt 0.500000 0.750000
vt 0.500000 0.750000
vt 0.500000 0.875000
vt 0.500000 0.875000
vt 0.500000 1.000000
vt 0.500000 1.000000
vt 0.615814 0.009186
vt 0.615814 0.240814
vt 0.615814 0.240814
vt 0.615814 0.009186
vt 0.509186 0.509186
vt 0.615814 0.509186
vt 0.625000 0.500000
vt 0.509186 0.009186
vt 0.509186 0.240814
vt 0.625000 0.250000
vt 0.625000 0.750000
vt 0.625000 0.000000
vt 0.509186 0.009186
vt 0.509186 0.240814
vt 0.509186 0.509186
vt 0.615814 0.509186
vt 0.505524 0.375000
vt 0.508282 0.490840
vt 0.508282 0.759160
vt 0.505524 0.875000
vt 0.625000 0.875000
vt 0.625000 0.375000
vt 0.625000 1.000000
vt 0.505524 0.375000
vt 0.508282 0.759160
vt 0.508282 0.490840
vt 0.505524 0.875000
vt 0.522481 0.775945
vt 0.600373 0.775945
vt 0.606268 0.875000
vt 0.515647 0.875000
vt 0.600373 0.974055
vt 0.522481 0.974055
vt 0.600373 0.775945
vt 0.606268 0.875000
vn -0.3079 -0.9016 0.3038
vn -0.3454 -0.9332 0.0995
vn -0.2679 -0.8976 0.3501
vn -0.9128 -0.3535 0.2048
vn -0.3965 -0.7853 0.4756
vn -0.6953 0.7172 0.0462
vn -0.5408 0.5155 0.6646
vn -0.8231 0.5680 -0.0022
vn -0.9003 0.4342 0.0291
vn -0.5006 0.5548 0.6645
vn -0.2576 -0.8636 -0.4334
vn -0.3854 -0.8482 -0.3633
vn -0.6150 -0.5723 -0.5425
vn -0.6291 0.7567 -0.1779
vn -0.7099 0.6994 -0.0829
vn -0.6275 0.7756 -0.0680
vn -0.0834 -0.9674 0.2391
vn 0.4337 -0.9001 0.0423
vn 0.5343 -0.8021 0.2667
vn 0.0491 -0.9654 0.2562
vn 0.8146 -0.5326 0.2296
vn 0.3032 -0.6229 0.7211
vn 0.5634 0.8241 0.0588
vn 0.6718 0.6110 0.4188
vn 0.9047 0.4245 0.0360
vn 0.9442 0.3237 0.0606
vn 0.5373 0.5523 0.6374
vn 0.4172 -0.7553 -0.5054
vn 0.3847 -0.7892 -0.4787
vn 0.3933 -0.7276 -0.5620
vn 0.5934 -0.6620 -0.4579
vn 0.0135 0.9968 -0.0786
vn 0.7291 0.6711 0.1342
vn 0.7825 0.5312 -0.3249
vn -0.0695 -0.9921 0.1042
vn -0.1373 -0.9337 0.3308
vn -0.0448 -0.6548 0.7544
vn -0.1607 0.6750 0.7201
vn 0.0006 0.9334 0.3588
vn -0.2686 0.5801 0.7690
vn 0.2237 -0.8322 -0.5074
vn 0.0801 -0.8447 -0.5292
vn 0.2303 -0.7007 -0.6753
vn 0.0849 0.9945 -0.0613
vn 0.1850 0.9703 -0.1560
vn -0.0983 0.9447 -0.3127
vn -0.4071 -0.9005 -0.1529
vn -0.3193 -0.9472 0.0305
vn -0.9326 -0.3563 -0.0582
vn 0.5279 -0.8486 -0.0350
vn 0.9032 -0.4199 -0.0891
vn -0.1709 -0.9836 -0.0581
vn -0.4613 0.8381 -0.2912
vn -0.8183 0.5558 -0.1469
vn -0.9089 0.4106 -0.0721
vn 0.3656 0.9243 -0.1098
vn 0.9159 0.3864 -0.1085
vn 0.8791 0.4685 -0.0873
vn -0.9716 0.2362 0.0157
vn -0.1824 0.0311 0.9827
vn -0.7578 0.0859 0.6468
vn -0.9413 0.1268 0.3128
vn -0.9084 0.0920 -0.4078
vn -0.3195 -0.0365 -0.9469
vn -0.8802 -0.0432 -0.4726
vn -0.9432 0.2220 -0.2472
vn 0.2278 0.0164 0.9736
vn 0.9957 -0.0788 0.0479
vn 0.6951 0.1305 0.7069
vn 0.9651 -0.0359 0.2594
vn 0.7104 0.0467 -0.7023
vn 0.7128 -0.0904 -0.6955
vn 0.8554 -0.0928 -0.5095
vn 0.9307 0.2737 -0.2427
vn -0.9609 0.2766 -0.0121
vn 0.9867 0.0504 0.1542
vn -0.1497 0.0001 0.9887
vn -0.5138 -0.1589 -0.8430
vn -0.1229 -0.9922 0.0201
vn 0.0656 0.9525 -0.2973
vn 0.0000 0.0000 -1.0000
vn -0.5498 -0.8353 -0.0000
vn 0.2597 0.9657 0.0000
vn 0.0000 0.9657 0.2596
vn 1.0000 0.0000 0.0000
vn -0.2597 0.9657 -0.0000
vn -0.0000 0.9657 -0.2596
vn 0.0000 -1.0000 -0.0000
vn -1.0000 -0.0000 0.0000
vn -0.0000 1.0000 0.0000
vn -0.0000 0.0000 1.0000
vn 0.5498 -0.8353 0.0000
usemtl None
s off
f 5/1/1 6/2/1 8/3/1 7/4/1
f 5/1/2 9/5/2 10/6/2 6/2/2
f 5/1/3 7/4/3 11/7/3 9/5/3
f 1/8/4 2/9/4 8/3/4 6/2/4
f 3/10/5 6/2/5 10/6/5 4/11/5
f 16/12/6 17/13/6 19/14/6 18/15/6
f 16/12/7 20/16/7 21/17/7 17/13/7
f 21/17/8 22/18/8 19/14/8 17/13/8
f 16/12/9 18/15/9 13/19/9 12/20/9
f 15/21/10 20/16/10 16/12/10 14/22/10
f 24/23/11 25/24/11 27/25/11 26/26/11
f 27/25/12 30/27/12 29/28/12 26/26/12
f 24/23/13 26/26/13 29/28/13 28/29/13
f 36/30/14 37/31/14 39/32/14 38/33/14
f 34/34/15 37/31/15 36/30/15 33/35/15
f 36/30/16 38/33/16 35/36/16 33/35/16
f 48/37/17 49/38/17 47/39/17 46/40/17
f 43/41/18 46/40/18 47/39/18 44/42/18
f 43/41/19 45/43/19 48/37/19 46/40/19
f 48/37/20 51/44/20 52/45/20 49/38/20
f 47/39/21 49/38/21 52/45/21 50/46/21
f 41/47/22 44/42/22 47/39/22 42/48/22
f 60/49/23 61/50/23 59/51/23 58/52/23
f 55/53/24 58/52/24 59/51/24 56/54/24
f 59/51/25 61/50/25 57/55/25 56/54/25
f 62/56/26 63/57/26 60/49/26 58/52/26
f 54/58/27 58/52/27 55/53/27 53/59/27
f 69/60/28 70/61/28 68/62/28 67/63/28
f 66/64/29 70/61/29 69/60/29 65/65/29
f 64/66/30 65/65/30 69/60/30 67/63/30
f 68/62/31 73/67/31 72/68/31 67/63/31
f 76/69/32 77/70/32 75/71/32 74/72/32
f 75/71/33 79/73/33 78/74/33 74/72/33
f 78/74/34 80/75/34 76/69/34 74/72/34
f 9/5/35 43/41/35 44/42/35 10/6/35
f 9/5/36 11/7/36 45/43/36 43/41/36
f 4/11/37 10/6/37 44/42/37 41/47/37
f 20/16/38 55/53/38 56/54/38 21/17/38
f 56/54/39 57/55/39 22/18/39 21/17/39
f 53/59/40 55/53/40 20/16/40 15/21/40
f 30/27/41 66/64/41 65/65/41 29/28/41
f 28/29/42 29/28/42 65/65/42 64/66/42
f 30/27/43 31/76/43 71/77/43 66/64/43
f 39/32/44 77/70/44 76/69/44 38/33/44
f 75/71/45 77/70/45 39/32/45 37/31/45
f 76/69/46 81/78/46 40/79/46 38/33/46
f 7/4/47 8/3/47 25/24/47 24/23/47
f 7/4/48 24/23/48 28/29/48 11/7/48
f 2/9/49 23/80/49 25/24/49 8/3/49
f 45/43/50 64/66/50 67/63/50 48/37/50
f 72/68/51 73/67/51 52/45/51 51/44/51
f 48/37/52 67/63/52 72/68/52 51/44/52
f 18/15/53 19/14/53 34/34/53 33/35/53
f 22/18/54 37/31/54 34/34/54 19/14/54
f 18/15/55 33/35/55 32/81/55 13/19/55
f 78/74/56 79/73/56 61/50/56 60/49/56
f 61/50/57 79/73/57 75/71/57 57/55/57
f 63/57/58 82/82/58 78/74/58 60/49/58
f 1/8/59 12/20/59 13/19/59 2/9/59
f 3/10/60 4/11/60 15/21/60 14/22/60
f 3/10/61 14/22/61 16/12/61 6/2/61
f 1/8/62 6/2/62 16/12/62 12/20/62
f 25/24/63 33/35/63 35/36/63 27/25/63
f 35/36/64 38/33/64 30/27/64 27/25/64
f 30/27/65 38/33/65 40/79/65 31/76/65
f 32/81/66 33/35/66 25/24/66 23/80/66
f 41/47/67 42/48/67 54/58/67 53/59/67
f 52/45/68 63/57/68 62/56/68 50/46/68
f 47/39/69 58/52/69 54/58/69 42/48/69
f 47/39/70 50/46/70 62/56/70 58/52/70
f 70/61/71 80/75/71 78/74/71 68/62/71
f 76/69/72 80/75/72 70/61/72 66/64/72
f 71/77/73 81/78/73 76/69/73 66/64/73
f 78/74/74 82/82/74 73/67/74 68/62/74
f 2/9/75 13/19/75 32/81/75 23/80/75
f 73/67/76 82/82/76 63/57/76 52/45/76
f 4/11/77 41/47/77 53/59/77 15/21/77
f 40/79/78 81/78/78 71/77/78 31/76/78
f 11/7/79 28/29/79 64/66/79 45/43/79
f 57/55/80 75/71/80 37/31/80 22/18/80
f 92/83/81 85/84/81 112/85/81 117/86/81
f 127/87/82 105/88/82 136/89/82 129/90/82
f 125/91/83 119/92/83 99/93/83 98/94/83
f 83/95/84 121/96/84 97/97/84 100/98/84
f 119/92/84 83/95/84 100/98/84 99/93/84
f 109/99/82 124/100/82 131/101/82 139/102/82
f 107/103/85 108/104/85 137/105/85 133/106/85
f 110/107/85 106/108/85 141/109/85 142/110/85
f 121/96/86 122/111/86 101/112/86 97/97/86
f 122/111/87 123/113/87 102/114/87 101/112/87
f 123/113/87 125/115/87 98/116/87 102/114/87
f 90/117/88 91/118/88 116/119/88 118/120/88
f 86/121/85 85/84/85 122/111/85 121/96/85
f 93/122/85 86/121/85 121/96/85 96/123/85
f 89/124/89 88/125/89 119/92/89 125/91/89
f 88/125/89 91/118/89 126/126/89 119/92/89
f 85/84/85 92/83/85 94/127/85 122/111/85
f 90/117/89 89/124/89 125/91/89 128/128/89
f 91/118/89 90/117/89 128/128/89 126/126/89
f 92/83/85 93/122/85 96/123/85 94/127/85
f 88/125/90 89/124/90 114/129/90 115/130/90
f 85/84/90 86/121/90 111/131/90 112/85/90
f 93/122/88 92/83/88 117/86/88 113/132/88
f 89/124/81 90/117/81 118/120/81 114/129/81
f 91/118/91 88/125/91 115/130/91 116/119/91
f 86/121/91 93/122/91 113/132/91 111/131/91
f 107/103/81 120/133/81 83/95/81 119/92/81
f 120/133/81 103/134/81 121/96/81 83/95/81
f 104/135/91 84/136/91 123/113/91 122/111/91
f 124/100/91 109/99/91 94/127/91 95/137/91
f 103/134/81 105/88/81 96/123/81 121/96/81
f 84/136/91 106/108/91 125/115/91 123/113/91
f 108/104/81 107/103/81 119/92/81 126/126/81
f 109/99/91 104/135/91 122/111/91 94/127/91
f 127/87/81 108/104/81 126/126/81 87/138/81
f 106/108/91 110/107/91 128/139/91 125/115/91
f 105/88/81 127/87/81 87/138/81 96/123/81
f 110/107/91 124/100/91 95/137/91 128/139/91
f 120/133/90 107/103/90 133/106/90 130/140/90
f 104/135/89 109/99/89 139/102/89 138/141/89
f 105/88/89 103/134/89 134/142/89 136/89/89
f 124/100/92 110/107/92 142/110/92 131/101/92
f 103/134/90 120/133/90 130/140/90 134/142/90
f 108/104/92 127/87/92 129/90/92 137/105/92
f 106/108/90 84/136/90 132/143/90 141/109/90
f 84/136/90 104/135/90 138/141/90 132/143/90
f 145/144/91 146/145/91 143/146/91 144/147/91
f 144/147/91 143/146/91 148/148/91 147/149/91
f 135/150/88 140/151/88 143/146/88 146/145/88
o chickencoop_Cube.042
v 0.463201 0.035811 -0.451519
v 0.463201 0.035811 0.451519
v 0.463201 0.451519 -0.451519
v -0.463201 0.035811 0.451519
v -0.463201 0.035811 -0.451519
v -0.463201 0.451519 -0.451519
v 0.463201 0.451519 0.451519
v -0.463201 0.451519 0.451519
v -0.000000 0.765325 -0.462964
v -0.000000 0.035710 -0.462964
v -0.000000 0.765325 0.462964
v -0.000000 0.035710 0.462964
v -0.451620 0.035710 -0.462964
v 0.451620 0.035710 -0.462964
v 0.184870 0.194597 0.462964
v 0.184870 0.615765 0.462964
v 0.451620 0.468083 -0.462964
v -0.184870 0.194597 0.462964
v -0.451620 0.468083 -0.462964
v -0.184870 0.615765 0.462964
v 0.451620 0.035710 0.462964
v -0.000000 0.194597 0.462964
v 0.451620 0.468083 0.462964
v -0.000000 0.615765 0.462964
v -0.451620 0.035710 0.462964
v -0.451620 0.468083 0.462964
v -0.000000 0.615765 0.393032
v -0.000000 0.194598 0.393032
v 0.184870 0.194598 0.393032
v 0.184870 0.615765 0.393032
v -0.184870 0.194598 0.393032
v -0.184870 0.615765 0.393032
vt 0.522481 0.775945
vt 0.505524 0.875000
vt 0.508282 0.759160
vt 0.600373 0.775945
vt 0.618387 0.875000
vt 0.606268 0.875000
vt 0.522481 0.974055
vt 0.515647 0.875000
vt 0.600373 0.974055
vt 0.615973 0.990840
vt 0.600373 0.974055
vt 0.606268 0.875000
vt 0.509186 0.509186
vt 0.615814 0.509186
vt 0.615814 0.740814
vt 0.509186 0.740814
vt 0.509186 0.009186
vt 0.615814 0.009186
vt 0.615814 0.240814
vt 0.509186 0.240814
vt 0.615973 0.490840
vt 0.508282 0.490840
vt 0.505524 0.375000
vt 0.618387 0.375000
vt 0.522481 0.775945
vt 0.515647 0.875000
vt 0.615973 0.759160
vt 0.600373 0.775945
vt 0.508282 0.990840
vt 0.508282 0.259160
vt 0.615973 0.259160
vt 0.522481 0.974055
vn 0.0000 0.0000 1.0000
vn 0.0000 -1.0000 0.0000
vn 1.0000 0.0000 -0.0000
vn -1.0000 0.0000 0.0000
vn -0.0000 0.0000 -1.0000
vn 0.0000 1.0000 0.0000
usemtl None
s off
f 163/152/93 160/153/93 169/154/93
f 164/155/93 159/156/93 172/157/93
f 166/158/93 160/153/93 170/159/93
f 168/160/93 159/156/93 174/161/93
f 180/162/94 175/163/94 172/157/94 168/160/94
f 149/164/95 151/165/95 155/166/95 150/167/95
f 152/168/96 156/169/96 154/170/96 153/171/96
f 165/172/97 162/173/97 158/174/97 157/175/97
f 177/176/98 176/177/98 170/159/98 163/152/98
f 171/178/93 164/155/93 163/152/93 169/154/93
f 177/176/96 163/152/96 164/155/96 178/179/96
f 163/152/93 170/159/93 160/153/93
f 164/155/93 171/178/93 159/156/93
f 166/158/93 173/180/93 160/153/93
f 174/161/93 173/180/93 166/158/93 168/160/93
f 168/160/93 172/157/93 159/156/93
f 158/174/97 161/181/97 167/182/97 157/175/97
f 179/183/95 180/162/95 168/160/95 166/158/95
f 179/183/98 166/158/98 170/159/98 176/177/98
o chickencoop.001_Cube.043
v 0.500208 0.003463 -0.500214
v -0.500208 0.003463 0.500214
v -0.500208 0.003463 -0.500214
v -0.000000 0.003463 -0.500214
v -0.000000 -0.195570 -0.500214
v 0.500208 0.003463 0.500214
v -0.000000 0.003463 0.500214
v -0.500208 -0.195570 0.500214
v -0.000000 -0.195570 0.500214
v -0.500208 -0.195570 -0.500214
v 0.500208 -0.195570 0.500214
v 0.500208 -0.195570 -0.500214
v 0.130772 -0.029106 0.782921
v 0.130772 -0.056468 0.831564
v -0.129028 0.102476 0.560161
v -0.129028 0.127722 0.515279
v 0.129028 0.127722 0.515279
v 0.129028 0.102476 0.560161
v -0.130773 -0.056468 0.831564
v -0.130773 -0.029106 0.782921
v -0.145218 0.063281 0.671192
v -0.145218 0.040874 0.711027
v 0.147682 0.040874 0.711027
v 0.147682 0.063281 0.671193
v -0.129028 0.164656 0.536054
v -0.129028 0.139409 0.580936
v 0.129028 0.139409 0.580936
v 0.129028 0.164656 0.536054
v 0.130773 -0.016439 0.854080
v 0.130772 0.010923 0.805437
v -0.130773 0.010923 0.805437
v -0.130773 -0.016439 0.854080
v -0.145218 0.058383 0.720876
v -0.145218 0.080790 0.681041
v 0.147682 0.080790 0.681042
v 0.147682 0.058383 0.720876
v 0.533170 0.421516 0.533169
v -0.000000 0.772432 0.533170
v 0.533170 0.421516 -0.533169
v -0.533170 0.421516 0.533170
v -0.533170 0.421516 -0.533169
v -0.000000 0.772432 -0.533169
v 0.533170 0.490825 0.533169
v -0.000000 0.841741 0.533170
v 0.533170 0.490825 -0.533169
v -0.533170 0.490825 0.533170
v -0.533170 0.490825 -0.533169
v -0.000000 0.841741 -0.533169
v -0.168189 -0.082569 0.951620
v -0.168189 -0.134597 0.922354
v -0.168189 0.189192 0.468488
v -0.168189 0.137164 0.439223
v 0.168189 -0.082569 0.951620
v 0.168189 -0.134597 0.922354
v 0.168189 0.189192 0.468488
v 0.168189 0.137164 0.439223
vt 0.375000 0.500000
vt 0.375000 0.375000
vt 0.500000 0.375000
vt 0.500000 0.500000
vt 0.375000 0.875000
vt 0.375000 0.750000
vt 0.500000 0.750000
vt 0.500000 0.875000
vt 0.375000 0.250000
vt 0.500000 0.250000
vt 0.500000 1.000000
vt 0.375000 1.000000
vt 0.375000 0.000000
vt 0.500000 0.000000
vt 0.127808 0.635658
vt 0.127808 0.614342
vt 0.127808 0.614342
vt 0.127808 0.635658
vt 0.127808 0.693193
vt 0.372192 0.693193
vt 0.372192 0.693193
vt 0.127808 0.693193
vt 0.372192 0.614342
vt 0.372192 0.635658
vt 0.372192 0.635658
vt 0.372192 0.614342
vt 0.127808 0.556807
vt 0.372192 0.556807
vt 0.372192 0.568193
vt 0.127808 0.568193
vt 0.127808 0.568193
vt 0.127808 0.556807
vt 0.127808 0.681807
vt 0.127808 0.681807
vt 0.372192 0.568193
vt 0.372192 0.681807
vt 0.372192 0.681807
vt 0.372192 0.556807
vt 0.750000 0.500000
vt 0.750000 0.750000
vt 0.875000 0.750000
vt 0.875000 0.500000
vt 0.750000 0.500000
vt 0.750000 0.750000
vt 0.625000 0.750000
vt 0.625000 0.500000
vt 0.875000 0.750000
vt 0.875000 0.500000
vt 0.625000 0.750000
vt 0.625000 0.500000
vt 0.375000 0.000000
vt 0.375000 0.250000
vt 0.625000 0.250000
vt 0.625000 0.000000
vt 0.375000 0.500000
vt 0.625000 0.500000
vt 0.375000 0.750000
vt 0.625000 0.750000
vt 0.375000 1.000000
vt 0.625000 1.000000
vt 0.125000 0.500000
vt 0.125000 0.750000
vt 0.875000 0.750000
vt 0.875000 0.500000
vn 0.0000 0.0000 -1.0000
vn -0.0000 0.0000 1.0000
vn -1.0000 0.0000 -0.0000
vn 1.0000 0.0000 0.0000
vn 0.0000 -0.4903 0.8716
vn -0.0000 0.8716 0.4903
vn -0.0000 0.4903 -0.8716
vn 0.5498 -0.8353 0.0000
vn 0.5498 0.8353 -0.0000
vn -0.5498 0.8353 0.0000
vn -0.5498 -0.8353 -0.0000
vn 0.0000 -0.8716 -0.4903
usemtl None
s off
f 192/184/99 185/185/99 184/186/99 181/187/99
f 189/188/100 191/189/100 186/190/100 187/191/100
f 185/185/99 190/192/99 183/193/99 184/186/99
f 182/194/100 188/195/100 189/188/100 187/191/100
f 190/192/101 188/196/101 182/197/101 183/193/101
f 192/184/102 181/187/102 186/190/102 191/189/102
f 213/198/101 214/199/101 201/200/101 202/201/101
f 209/202/103 212/203/103 199/204/103 194/205/103
f 215/206/102 216/207/102 203/208/102 204/209/102
f 208/210/104 205/211/104 206/212/104 207/213/104
f 207/213/102 198/214/102 197/215/102 208/210/102
f 203/208/103 216/207/103 213/198/103 202/201/103
f 209/202/102 194/205/102 193/216/102 210/217/102
f 195/218/103 198/214/103 207/213/103 206/212/103
f 210/217/105 193/216/105 200/219/105 211/220/105
f 212/203/101 211/220/101 200/219/101 199/204/101
f 206/212/101 205/211/101 196/221/101 195/218/101
f 215/206/105 204/209/105 201/200/105 214/199/105
f 213/198/104 216/207/104 215/206/104 214/199/104
f 208/210/105 197/215/105 196/221/105 205/211/105
f 210/217/104 211/220/104 212/203/104 209/202/104
f 222/222/106 218/223/106 220/224/106 221/225/106
f 228/226/107 224/227/107 223/228/107 225/229/107
f 226/230/108 224/227/108 228/226/108 227/231/108
f 217/232/102 219/233/102 225/229/102 223/228/102
f 222/222/99 221/225/99 227/231/99 228/226/99
f 220/224/101 226/230/101 227/231/101 221/225/101
f 220/224/100 218/223/100 224/227/100 226/230/100
f 218/223/100 217/232/100 223/228/100 224/227/100
f 219/233/99 222/222/99 228/226/99 225/229/99
f 219/233/109 217/232/109 218/223/109 222/222/109
f 229/234/101 231/235/101 232/236/101 230/237/101
f 231/235/105 235/238/105 236/239/105 232/236/105
f 235/238/102 233/240/102 234/241/102 236/239/102
f 233/240/103 229/242/103 230/243/103 234/241/103
f 231/244/104 229/245/104 233/240/104 235/238/104
f 236/239/110 234/241/110 230/246/110 232/247/110
