# Blender v2.83.1 OBJ File: 'thrue.blend'
# www.blender.org
mtllib test.mtl
o store.003_Cube.009
v -1.955224 0.041773 -1.478933
v 1.841259 0.041773 -1.478934
v -1.955224 0.516334 -1.478933
v 1.841259 0.516334 -1.478934
v -1.955224 0.041773 0.589593
v -1.955224 0.516334 0.589593
v -1.955224 0.105708 0.589593
v -0.056983 0.041773 -1.478934
v -1.955224 0.105708 -1.478933
v -0.056983 0.516334 -1.478934
v -1.955224 0.041773 -0.444670
v -1.955224 0.516334 -0.444670
v -0.056983 0.105708 -1.478934
v -1.955224 0.105708 -0.444670
v 1.841259 0.105708 -1.478934
v -1.955224 1.177129 -1.478933
v 1.841259 1.177129 -1.478934
v -1.955224 1.177129 0.589593
v -0.056983 1.177129 -1.478934
v -1.955224 1.177129 -0.444670
v -1.955224 1.403597 -1.478933
v 1.841259 1.403597 -1.478934
v -1.955224 1.403597 0.589593
v -0.056983 1.403597 -1.478934
v -1.955224 1.403597 -0.444670
v -0.056983 1.681620 -1.478934
v 1.841259 1.681620 -1.478934
v -1.955224 1.681620 -0.444670
v -1.955224 1.681620 -1.478933
v -1.955224 1.681620 0.589593
v -2.016279 0.000000 -1.512199
v -0.508775 2.011105 -0.463011
v 1.983721 0.000000 -1.512200
v 0.315032 2.011105 -0.463011
v -0.424406 0.067362 0.667214
v -0.508775 2.011105 0.124391
v 0.391847 0.067362 0.667214
v 0.315032 2.011105 0.124391
v -2.016279 0.500000 -1.512199
v 1.983721 0.500000 -1.512200
v 0.391847 1.196217 0.667214
v -0.192283 2.111733 -0.256191
v -0.001460 2.111733 -0.256191
v -0.001460 2.111733 -0.082429
v -0.192283 2.111733 -0.082429
v 1.983721 0.000000 0.667213
v -2.016279 0.000000 0.667214
v -2.016279 0.500000 0.667214
v 0.391847 1.196218 0.557624
v 0.391847 0.067362 0.557624
v -0.424406 0.067362 0.557624
v -0.424406 1.196217 0.557624
v -0.636941 0.532047 0.720933
v -0.594979 1.554258 0.720933
v -1.617191 0.532047 0.720933
v -1.659153 1.554258 0.720933
v -0.594979 0.490085 0.360268
v -0.594979 1.554258 0.360268
v -1.659153 0.490085 0.360268
v -1.659153 1.554258 0.360268
v 2.008958 0.526439 0.692253
v 2.008958 1.463010 0.692253
v 1.072387 0.526439 0.692253
v 1.072387 1.426507 0.692253
v 2.008958 0.526439 -0.802089
v 2.008958 1.426507 -0.802089
v 1.035884 0.489936 -0.838592
v 1.035884 1.463010 -0.838592
v 0.440242 1.248739 1.037409
v 0.440242 1.119109 1.037409
v -0.472801 1.248739 1.037409
v -0.472801 1.119109 1.037409
v 0.440242 1.248739 0.043793
v 0.440242 1.119109 0.043793
v -0.472800 1.248739 0.043793
v -0.472800 1.119109 0.043793
v -1.127066 0.532047 0.720933
v -0.636941 1.144923 0.720933
v -1.127066 1.554258 0.720933
v -1.617191 1.144923 0.720933
v 1.522421 0.526439 0.692253
v 1.522421 1.426507 0.692253
v 1.072387 0.976473 0.692253
v -1.127066 1.144923 0.720933
v -0.594979 1.186885 1.017262
v -0.594979 1.554258 0.747047
v -1.127066 1.554258 0.747047
v -1.659153 1.554258 0.747047
v -1.659153 1.186885 1.017262
v -1.127066 1.186885 1.017262
v -0.508775 2.111733 -0.463011
v 0.315032 2.111733 -0.463011
v 0.315032 2.111733 0.124391
v -0.508775 2.111733 0.124391
v 1.983721 0.067362 0.667213
v -2.016279 0.067362 0.667214
v 2.983720 0.018475 -2.057053
v -3.016279 0.018475 -2.057053
v 2.983721 0.018475 1.212067
v -3.016279 0.018475 1.212067
v 2.983720 -0.092375 -2.057053
v -3.016279 -0.092375 -2.057053
v 2.983721 -0.092375 1.212067
v -3.016279 -0.092375 1.212067
v -1.127066 0.490085 0.720933
v -0.594979 0.490085 0.720933
v -1.659153 1.186885 0.720933
v -1.659153 0.490085 0.720933
v -0.594979 1.186885 0.720933
v -1.127066 1.186885 0.720933
v 1.522421 0.489936 0.692253
v 2.008958 0.489936 0.692253
v 1.522421 1.463010 0.692253
v 1.035884 1.463010 0.692253
v 1.035884 0.976473 0.692253
v 1.035884 0.489936 0.692253
v 2.008958 1.463010 -0.838592
v 2.008958 0.489936 -0.838592
v 2.008958 1.426507 0.692253
v -0.016279 0.000000 -1.512200
v -2.016279 0.067362 -1.512199
v -0.016279 0.500000 -1.512200
v 0.391847 0.500000 0.557624
v -2.016279 0.000000 -0.422493
v -2.016279 0.500000 -0.422493
v -0.016279 0.067362 -1.512200
v -2.016279 0.067362 -0.422493
v 1.983721 0.067362 -1.512200
v 0.391847 0.500000 0.667214
v -0.424406 0.500000 0.667214
v 1.983721 0.500000 0.667213
v -0.424406 0.500000 0.557624
v -1.220342 0.500000 0.667214
v -1.653063 0.500000 0.667214
v -0.602424 0.500000 0.667214
v 1.053099 0.500000 0.667214
v 1.983721 0.500000 -0.822213
v -2.016279 1.196218 -1.512199
v 1.983721 1.196218 -1.512200
v -2.016279 1.196218 0.667214
v -0.016279 1.196218 -1.512200
v -2.016279 1.196218 -0.422493
v -0.424406 1.196218 0.667214
v -1.653063 1.196218 0.667214
v -0.602424 1.196218 0.667214
v 1.053099 1.196218 0.667214
v 1.983720 1.196218 -0.822213
v 0.391847 1.434826 0.667214
v -2.016279 1.434826 -1.512199
v 1.983721 1.434826 -1.512200
v -2.016279 1.434826 0.667214
v -0.016279 1.434826 -1.512200
v -2.016279 1.434826 -0.422493
v -0.424406 1.434826 0.667214
v -1.653063 1.434826 0.667214
v -0.602424 1.434826 0.667214
v 1.053099 1.434826 0.667214
v 1.983720 1.434826 -0.822213
v 1.983720 1.434826 0.667214
v 0.391847 2.053386 0.472378
v -1.821443 2.053387 -1.317363
v 1.788885 2.053387 -1.317364
v -1.821443 2.053387 0.472378
v -0.016279 2.053387 -1.317364
v -1.821443 2.053387 -0.422493
v -0.424406 2.053387 0.472378
v -1.653063 2.053387 0.472378
v -0.602424 2.053387 0.472378
v 1.053099 2.053387 0.472378
v 1.788884 2.053387 -0.822214
v 1.788884 2.053387 0.472378
v -2.953799 -0.068848 1.185242
v 2.953799 -0.068848 1.185242
v -2.953799 -0.068848 -2.025241
v 2.953799 -0.068848 -2.025241
v 1.035884 0.489936 -0.073170
v 1.522421 0.489936 -0.838592
v 1.035884 0.344914 -0.838592
v 1.035884 0.344914 -0.073170
v 1.522421 0.344914 -0.838592
v -0.016279 1.727753 -1.512200
v 1.983721 1.727753 -1.512200
v -2.016279 1.727753 -0.422493
v -2.016279 1.727753 -1.512199
v -2.016279 1.727753 0.667214
v 1.983720 1.727753 -0.822213
v -1.653063 1.727753 0.667214
v -0.424406 1.727753 0.667214
v -0.602424 1.727753 0.667214
v 0.391847 1.727752 0.667214
v 1.053099 1.727753 0.667214
v 1.983720 1.727753 0.667214
vt 0.625000 0.125000
vt 0.625000 0.000000
vt 0.625000 0.000000
vt 0.625000 0.125000
vt 0.625000 1.000000
vt 0.625000 0.875000
vt 0.625000 0.875000
vt 0.625000 1.000000
vt 0.625000 0.000000
vt 0.500000 0.000000
vt 0.500000 0.125000
vt 0.625000 0.125000
vt 0.625000 0.750000
vt 0.500000 0.750000
vt 0.500000 0.875000
vt 0.625000 0.875000
vt 0.375000 0.750000
vt 0.375000 0.875000
vt 0.375000 0.125000
vt 0.375000 0.250000
vt 0.500000 0.250000
vt 0.625000 0.250000
vt 0.375000 0.000000
vt 0.625000 0.750000
vt 0.625000 0.250000
vt 0.625000 1.000000
vt 0.625000 0.750000
vt 0.625000 0.250000
vt 0.500000 1.000000
vt 0.375000 1.000000
vt 0.625000 0.875000
vt 0.625000 0.750000
vt 0.625000 0.250000
vt 0.625000 0.125000
vt 0.625000 1.000000
vt 0.625000 0.000000
vt 0.375000 0.875000
vt 0.375000 1.000000
vt 0.375000 0.750000
vt 0.375000 0.500000
vt 0.388331 0.506666
vt 0.388331 0.743334
vt 0.500000 0.250000
vt 0.625000 0.500000
vt 0.375000 0.500000
vt 0.625000 0.750000
vt 0.625000 1.000000
vt 0.500000 1.000000
vt 0.375000 0.750000
vt 0.125000 0.750000
vt 0.125000 0.625000
vt 0.875000 0.625000
vt 0.875000 0.750000
vt 0.757743 0.658925
vt 0.783690 0.549750
vt 0.783690 0.700250
vt 0.742257 0.658925
vt 0.716310 0.549750
vt 0.742257 0.591075
vt 0.375000 0.000000
vt 0.375000 0.250000
vt 0.375000 0.000000
vt 0.375000 0.750000
vt 0.375000 0.500000
vt 0.382528 0.009858
vt 0.375000 0.125000
vt 0.375000 0.000000
vt 0.492472 0.240142
vt 0.375000 0.250000
vt 0.382528 0.240142
vt 0.382528 0.125000
vt 0.492472 0.009858
vt 0.500000 0.000000
vt 0.500000 0.125000
vt 0.492472 0.125000
vt 0.615622 0.240622
vt 0.625000 0.125000
vt 0.625000 0.250000
vt 0.384378 0.240622
vt 0.500000 0.250000
vt 0.375000 0.250000
vt 0.384378 0.755961
vt 0.625000 0.750000
vt 0.615622 0.755961
vt 0.375000 1.000000
vt 0.375000 0.750000
vt 0.625000 1.000000
vt 0.615622 1.000000
vt 0.375000 0.125000
vt 0.384378 0.125000
vt 0.500000 0.240622
vt 0.625000 0.250000
vt 0.375000 1.000000
vt 0.125000 0.500000
vt 0.875000 0.500000
vt 0.125000 0.625000
vt 0.250000 0.500000
vt 0.375000 0.500000
vt 0.625000 0.500000
vt 0.875000 0.500000
vt 0.875000 0.625000
vt 0.757743 0.591075
vt 0.716310 0.700250
vt 0.375000 0.125000
vt 0.615622 0.125000
vt 0.384378 1.000000
vt 0.783690 0.549750
vt 0.716310 0.549750
vt 0.716310 0.700250
vt 0.375000 1.000000
vt 0.783690 0.700250
vt 0.593750 0.748334
vt 0.531250 0.745001
vt 0.531250 0.745001
vt 0.593750 0.748334
vt 0.611669 0.506666
vt 0.611669 0.506666
vt 0.611669 0.743334
vt 0.611669 0.743334
vt 0.381666 0.503333
vt 0.500000 0.743334
vt 0.500000 0.743334
vt 0.375000 0.375000
vt 0.375000 0.375000
vt 0.375000 0.250000
vt 0.375000 0.250000
vt 0.625000 0.125000
vt 0.625000 0.125000
vt 0.625000 0.000000
vt 0.625000 0.000000
vt 0.625000 0.125000
vt 0.625000 0.250000
vt 0.500000 0.250000
vt 0.500000 0.125000
vt 0.611669 0.506666
vt 0.611669 0.743334
vt 0.611669 0.743334
vt 0.611669 0.506666
vt 0.625000 1.000000
vt 0.625000 1.000000
vt 0.625000 0.875000
vt 0.625000 0.875000
vt 0.375000 0.375000
vt 0.375000 0.250000
vt 0.500000 0.000000
vt 0.625000 0.000000
vt 0.625000 0.000000
vt 0.625000 0.125000
vt 0.500000 0.125000
vt 0.500000 0.000000
vt 0.625000 0.750000
vt 0.625000 1.000000
vt 0.375000 1.000000
vt 0.375000 0.750000
vt 0.375000 0.500000
vt 0.125000 0.750000
vt 0.125000 0.500000
vt 0.500000 0.506666
vt 0.500000 0.506666
vt 0.437500 0.503333
vt 0.437500 0.503333
vt 0.500000 0.506666
vt 0.500000 0.506666
vt 0.437500 0.503333
vt 0.437500 0.503333
vt 0.500000 0.506666
vt 0.388331 0.506666
vt 0.625000 0.750000
vt 0.625000 0.875000
vt 0.500000 0.875000
vt 0.500000 0.750000
vt 0.375000 0.000000
vt 0.384378 0.000000
vt 0.875000 0.750000
vt 0.500000 0.250000
vt 0.375000 0.250000
vt 0.625000 0.250000
vt 0.375000 0.625000
vt 0.125000 0.750000
vt 0.375000 0.500000
vt 0.250000 0.500000
vt 0.375000 0.625000
vt 0.375000 0.250000
vt 0.375000 0.000000
vt 0.375000 0.750000
vt 0.375000 0.500000
vt 0.381666 0.746667
vt 0.875000 0.625000
vt 0.875000 0.750000
vt 0.875000 0.500000
vt 0.875000 0.500000
vt 0.875000 0.750000
vt 0.625000 0.500000
vt 0.625000 0.250000
vt 0.375000 0.250000
vt 0.625000 0.000000
vt 0.375000 0.000000
vt 0.375000 0.250000
vt 0.375000 0.500000
vt 0.562500 0.746667
vt 0.593750 0.748334
vt 0.375000 0.500000
vt 0.500000 0.743334
vt 0.531250 0.745001
vt 0.625000 1.000000
vt 0.500000 1.000000
vt 0.125000 0.500000
vt 0.000000 1.000000
vt 0.000000 0.000000
vt 1.000000 0.000000
vt 1.000000 1.000000
vt 0.388331 0.743334
vt 0.625000 0.750000
vt 0.500000 0.743334
vt 0.625000 0.250000
vt 0.625000 1.000000
vt 0.625000 0.750000
vt 0.625000 0.250000
vt 0.375000 1.000000
vt 0.500000 1.000000
vt 0.437500 0.503333
vt 0.437500 0.503333
vt 0.531250 0.745001
vt 0.500000 0.743334
vt 0.625000 0.875000
vt 0.625000 0.750000
vt 0.625000 0.250000
vt 0.625000 0.125000
vt 0.593750 0.748334
vt 0.375000 0.375000
vt 0.375000 0.250000
vt 0.625000 1.000000
vt 0.000000 0.000000
vt 0.000000 0.000000
vt 0.000000 0.000000
vt 0.625000 0.000000
vt 0.000000 0.000000
vt 0.615622 0.000000
vt 0.625000 0.000000
vt 0.000000 0.000000
vt 0.000000 0.000000
vt 0.000000 0.000000
vt 0.000000 0.000000
vt 0.000000 0.000000
vt 0.000000 0.000000
vt 0.000000 0.000000
vt 0.000000 0.000000
vt 0.000000 0.000000
vt 0.000000 0.000000
vt 0.000000 0.000000
vt 0.000000 0.000000
vt 0.000000 0.000000
vt 0.000000 0.000000
vt 0.000000 0.000000
vt 0.000000 0.000000
vt 0.000000 0.000000
vt 0.000000 0.000000
vt 0.000000 0.000000
vt 0.000000 0.000000
vt 0.000000 0.000000
vt 0.000000 0.000000
vt 0.000000 0.000000
vt 0.000000 0.000000
vn 0.0000 0.0000 1.0000
vn 1.0000 0.0000 0.0000
vn 0.0185 0.9998 0.0000
vn -1.0000 0.0000 0.0000
vn 0.0000 -1.0000 0.0000
vn 0.0000 1.0000 0.0000
vn 0.0000 0.9994 0.0339
vn -0.0000 0.9994 -0.0339
vn -0.0000 0.0000 -1.0000
vn -0.0000 0.5925 0.8056
vn -0.0185 0.9998 0.0000
vn -0.0000 0.5134 -0.8581
vn -0.8581 0.5134 0.0000
vn 0.8581 0.5134 0.0000
vn 0.0000 0.5134 0.8581
usemtl None
s off
f 24/1/1 21/2/1 16/3/1 19/4/1
f 21/5/2 25/6/2 20/7/2 16/8/2
f 3/9/1 9/10/1 13/11/1 10/12/1
f 19/4/1 16/3/1 3/9/1 10/12/1
f 6/13/2 7/14/2 14/15/2 12/16/2
f 7/14/2 5/17/2 11/18/2 14/15/2
f 13/11/1 8/19/1 2/20/1 15/21/1
f 13/11/1 15/21/1 4/22/1 10/12/1
f 9/10/1 1/23/1 8/19/1 13/11/1
f 20/7/2 18/24/2 6/13/2 12/16/2
f 17/25/1 19/4/1 10/12/1 4/22/1
f 16/8/2 20/7/2 12/16/2 3/26/2
f 25/6/2 23/27/2 18/24/2 20/7/2
f 22/28/1 24/1/1 19/4/1 17/25/1
f 12/16/2 14/15/2 9/29/2 3/26/2
f 14/15/2 11/18/2 1/30/2 9/29/2
f 28/31/2 30/32/2 23/27/2 25/6/2
f 27/33/1 26/34/1 24/1/1 22/28/1
f 29/35/2 28/31/2 25/6/2 21/5/2
f 26/34/1 29/36/1 21/2/1 24/1/1
f 124/37/3 98/38/3 100/39/3
f 46/40/1 37/41/1 35/42/1
f 107/43/4 60/44/4 59/45/4
f 58/46/2 54/47/2 109/48/2
f 57/49/5 106/50/5 105/51/5
f 79/52/6 54/53/6 58/46/6
f 42/54/6 92/55/6 91/56/6
f 45/57/6 93/58/6 44/59/6
f 31/60/7 97/61/7 98/62/7
f 47/63/8 99/64/8 46/40/8
f 53/65/1 105/66/1 106/67/1
f 80/68/1 108/69/1 55/70/1
f 55/70/1 105/66/1 77/71/1
f 78/72/1 106/67/1 109/73/1
f 80/68/1 110/74/1 107/43/1
f 78/72/1 110/74/1 84/75/1
f 64/76/1 113/77/1 114/78/1
f 63/79/1 115/80/1 116/81/1
f 65/82/2 117/83/2 66/84/2
f 65/82/2 112/85/2 118/86/2
f 66/84/2 62/87/2 119/88/2
f 63/79/1 111/89/1 81/90/1
f 64/76/1 115/80/1 83/91/1
f 35/42/1 47/63/1 46/40/1
f 59/45/4 108/69/4 107/43/4
f 107/43/4 56/92/4 60/44/4
f 106/93/2 57/49/2 109/48/2
f 57/49/2 58/46/2 109/48/2
f 105/51/5 108/94/5 59/45/5
f 59/45/5 57/49/5 105/51/5
f 58/46/6 60/44/6 79/52/6
f 60/44/6 56/95/6 79/52/6
f 111/96/5 176/97/5 67/98/5
f 68/99/6 114/100/6 113/101/6
f 42/54/6 43/102/6 92/55/6
f 45/57/6 94/103/6 93/58/6
f 120/104/7 97/61/7 31/60/7
f 47/63/8 100/39/8 99/64/8
f 53/65/1 77/71/1 105/66/1
f 80/68/1 107/43/1 108/69/1
f 55/70/1 108/69/1 105/66/1
f 78/72/1 53/65/1 106/67/1
f 80/68/1 84/75/1 110/74/1
f 78/72/1 109/73/1 110/74/1
f 64/76/1 82/105/1 113/77/1
f 63/79/1 83/91/1 115/80/1
f 65/82/2 118/86/2 117/83/2
f 65/82/2 61/106/2 112/85/2
f 66/84/2 117/83/2 62/87/2
f 63/79/1 116/81/1 111/89/1
f 64/76/1 114/78/1 115/80/1
f 34/107/2 92/55/2 93/58/2 38/108/2
f 38/108/1 93/58/1 94/103/1 36/109/1
f 100/39/3 47/63/3 124/37/3
f 124/37/3 31/110/3 98/38/3
f 32/111/9 91/56/9 92/55/9 34/107/9
f 144/112/1 145/113/1 156/114/1 155/115/1
f 49/116/5 41/117/5 143/118/5 52/119/5
f 46/40/1 95/120/1 37/41/1
f 156/114/1 145/113/1 143/121/1 154/122/1
f 147/123/2 137/124/2 40/125/2 139/126/2
f 152/127/9 141/128/9 138/129/9 149/130/9
f 87/131/10 88/132/10 89/133/10 90/134/10
f 190/135/1 188/136/1 154/137/1 148/138/1
f 149/139/4 138/140/4 142/141/4 153/142/4
f 158/143/2 147/123/2 139/126/2 150/144/2
f 87/131/10 90/134/10 85/145/10 86/146/10
f 39/147/9 122/148/9 126/149/9 121/150/9
f 74/151/4 70/152/4 69/153/4 73/154/4
f 141/128/9 122/148/9 39/147/9 138/129/9
f 75/155/5 73/154/5 69/156/5 71/157/5
f 41/158/1 129/159/1 136/160/1 146/161/1
f 109/73/5 85/145/5 90/134/5 110/74/5
f 190/162/1 148/163/1 157/164/1 191/165/1
f 90/134/5 89/133/5 107/43/5 110/74/5
f 129/159/4 123/166/4 50/167/4 37/41/4
f 48/168/4 125/169/4 127/170/4 96/171/4
f 81/90/1 111/89/1 112/172/1 61/173/1
f 96/171/4 127/170/4 124/37/4 47/63/4
f 88/132/4 56/92/4 107/43/4 89/133/4
f 113/101/6 62/174/6 117/83/6 68/99/6
f 94/103/6 45/57/6 42/54/6 91/56/6
f 126/149/9 128/175/9 33/176/9 120/104/9
f 126/149/9 122/148/9 40/177/9 128/175/9
f 111/96/5 177/178/5 118/86/5 112/179/5
f 36/109/4 94/103/4 91/56/4 32/111/4
f 178/180/2 67/98/2 176/97/2 179/181/2
f 180/182/1 177/178/1 67/98/1 178/180/1
f 92/55/6 43/102/6 44/59/6 93/58/6
f 97/61/9 101/183/9 102/184/9 98/62/9
f 100/39/1 104/185/1 103/186/1 99/64/1
f 35/42/1 96/187/1 47/63/1
f 120/104/7 33/176/7 97/61/7
f 121/150/9 126/149/9 120/104/9 31/60/9
f 79/52/6 87/188/6 86/189/6 54/53/6
f 56/95/6 88/190/6 87/188/6 79/52/6
f 72/191/6 70/192/6 74/151/6 76/193/6
f 72/194/2 76/193/2 75/155/2 71/195/2
f 70/196/9 72/194/9 71/195/9 69/197/9
f 128/198/2 40/125/2 137/124/2
f 41/117/4 49/116/4 123/166/4 129/159/4
f 33/176/2 128/198/2 95/199/2 46/40/2
f 133/200/1 134/201/1 96/171/1
f 136/160/1 129/159/1 37/41/1
f 131/202/2 95/199/2 137/124/2
f 95/199/2 128/198/2 137/124/2
f 134/201/1 48/168/1 96/171/1
f 96/171/1 35/42/1 133/200/1
f 35/42/1 130/203/1 135/204/1
f 135/204/1 133/200/1 35/42/1
f 37/41/1 95/199/1 136/160/1
f 95/199/1 131/202/1 136/160/1
f 86/205/2 85/206/2 109/48/2 54/47/2
f 111/96/5 116/207/5 176/97/5
f 111/96/5 67/98/5 177/178/5
f 174/208/6 172/209/6 173/210/6 175/211/6
f 35/42/6 37/41/6 50/167/6 51/212/6
f 140/213/1 48/168/1 134/201/1 144/112/1
f 142/141/4 125/169/4 48/168/4 140/213/4
f 130/203/2 35/42/2 51/212/2 132/214/2
f 139/215/9 40/177/9 122/148/9 141/128/9
f 138/140/4 39/216/4 125/169/4 142/141/4
f 145/113/1 135/204/1 130/203/1 143/121/1
f 76/193/1 74/151/1 73/154/1 75/155/1
f 130/203/2 132/214/2 52/119/2 143/118/2
f 153/142/4 142/141/4 140/213/4 151/217/4
f 150/218/9 139/215/9 141/128/9 152/127/9
f 98/38/4 102/219/4 104/185/4 100/39/4
f 60/44/9 58/46/9 57/49/9 59/45/9
f 151/217/1 140/213/1 144/112/1 155/115/1
f 125/169/4 39/216/4 121/220/4 127/170/4
f 127/170/4 121/220/4 31/110/4 124/37/4
f 99/64/2 103/186/2 101/183/2 97/61/2
f 191/165/1 157/164/1 159/221/1 192/222/1
f 189/223/1 156/114/1 154/122/1 188/224/1
f 183/225/4 153/142/4 151/217/4 185/226/4
f 148/138/1 154/137/1 143/118/1 41/117/1
f 182/227/9 150/218/9 152/127/9 181/228/9
f 187/229/1 155/115/1 156/114/1 189/223/1
f 186/230/2 158/143/2 150/144/2 182/231/2
f 184/232/4 149/139/4 153/142/4 183/225/4
f 148/163/1 41/158/1 146/161/1 157/164/1
f 192/222/2 159/221/2 158/143/2 186/230/2
f 185/226/1 151/217/1 155/115/1 187/229/1
f 44/233/6 42/234/6 45/235/6
f 97/61/11 33/176/11 46/40/11 99/64/11
f 181/228/9 152/127/9 149/130/9 184/236/9
f 44/233/6 43/237/6 42/234/6
f 119/238/1 62/239/1 113/77/1 82/105/1
f 170/240/6 162/241/6 164/242/6
f 161/243/6 165/244/6 164/242/6
f 170/240/6 164/242/6 169/245/6
f 165/244/6 168/246/6 164/242/6
f 169/245/6 164/242/6 160/247/6
f 163/248/6 167/249/6 165/244/6
f 160/247/6 164/242/6 166/250/6
f 165/244/6 167/249/6 168/246/6
f 169/245/6 171/251/6 170/240/6
f 164/242/6 168/246/6 166/250/6
f 164/242/12 162/241/12 182/252/12 181/253/12
f 165/244/13 161/243/13 184/254/13 183/255/13
f 161/243/12 164/242/12 181/253/12 184/254/12
f 163/248/13 165/244/13 183/255/13 185/256/13
f 162/241/14 170/240/14 186/257/14 182/252/14
f 167/249/15 163/248/15 185/256/15 187/258/15
f 166/250/15 168/246/15 189/259/15 188/260/15
f 160/247/15 166/250/15 188/260/15 190/261/15
f 169/245/15 160/247/15 190/261/15 191/262/15
f 168/246/15 167/249/15 187/258/15 189/259/15
f 171/251/15 169/245/15 191/262/15 192/263/15
f 170/240/14 171/251/14 192/263/14 186/257/14
