# Blender v2.83.1 OBJ File: 'thrue.blend'
# www.blender.org
mtllib ticketer.mtl
o ticket_Cube.015
v 6.901459 0.000000 1.286646
v 5.852271 2.011105 2.478853
v 6.901459 0.000000 3.614544
v 5.852271 2.011105 3.302661
v 4.722045 0.067362 2.563223
v 5.264869 2.011105 2.478853
v 4.722046 0.067362 3.379476
v 5.264869 2.011105 3.302661
v 6.901459 0.500000 1.286646
v 6.901459 0.500000 3.614544
v 4.722046 1.196217 3.379476
v 5.645451 2.111733 2.795346
v 5.645451 2.111733 2.986169
v 5.471689 2.111733 2.986169
v 5.471689 2.111733 2.795346
v 4.722046 0.000000 3.614544
v 4.722045 0.000000 1.286646
v 4.722045 0.500000 1.286646
v 4.831635 1.196218 3.379476
v 4.831635 0.067362 3.379476
v 4.831635 0.067362 2.563223
v 4.831635 1.196217 2.563223
v 4.351851 1.248739 3.427871
v 4.351851 1.119109 3.427871
v 4.351851 1.248739 2.514828
v 4.351851 1.119109 2.514828
v 5.345467 1.248739 3.427871
v 5.345467 1.119109 3.427871
v 5.345467 1.248739 2.514828
v 5.345467 1.119109 2.514828
v 5.852271 2.111733 2.478853
v 5.852271 2.111733 3.302661
v 5.264869 2.111733 3.302661
v 5.264869 2.111733 2.478853
v 4.722046 0.067362 3.614544
v 4.722045 0.067362 1.286646
v 7.446313 0.018475 5.971349
v 7.446312 0.018475 -0.028651
v 4.177193 0.018475 5.971349
v 4.177192 0.018475 -0.028651
v 7.446313 -0.092375 5.971349
v 7.446312 -0.092375 -0.028651
v 4.177193 -0.092375 5.971349
v 4.177192 -0.092375 -0.028651
v 6.901459 0.000000 2.971349
v 6.901459 0.067362 1.286646
v 6.901459 0.500000 2.971349
v 4.831635 0.500000 3.379476
v 5.811752 0.000000 1.286646
v 5.811752 0.500000 1.286646
v 6.901459 0.067362 2.971349
v 5.811752 0.067362 1.286646
v 6.901459 0.067362 3.614544
v 4.722046 0.500000 3.379476
v 4.722045 0.500000 2.563223
v 4.722046 0.500000 3.614544
v 4.831635 0.500000 2.563223
v 4.722045 0.645801 1.767286
v 4.722045 0.645801 1.480366
v 4.722045 0.645801 2.239403
v 4.722045 0.500000 3.517505
v 6.211473 0.500000 3.614544
v 6.901459 1.196218 1.286646
v 6.901459 1.196218 3.614544
v 4.722045 1.196218 1.286646
v 6.901459 1.196218 2.971349
v 5.811752 1.196218 1.286646
v 4.722045 1.196218 2.563223
v 4.722045 1.050417 1.480366
v 4.722045 1.050417 2.239403
v 4.722045 1.196218 3.517504
v 6.211473 1.196218 3.614543
v 4.722046 1.434826 3.379476
v 6.901459 1.434826 1.286646
v 6.901459 1.434826 3.614544
v 4.722045 1.434826 1.286646
v 6.901459 1.434826 2.971349
v 5.811752 1.434826 1.286646
v 4.722045 1.434826 2.563223
v 4.722045 1.434826 1.334565
v 4.722045 1.434826 2.385204
v 4.722045 1.434826 3.517504
v 6.211473 1.434826 3.614543
v 4.722046 1.434826 3.614543
v 4.916882 2.053386 3.379476
v 6.706623 2.053387 1.166185
v 4.916881 2.053387 1.166185
v 6.706623 2.053387 2.971349
v 5.811752 2.053387 1.166185
v 4.916882 2.053387 2.563223
v 4.916882 2.053387 1.334565
v 4.916882 2.053387 2.385204
v 4.916882 2.053387 4.040728
v 6.422691 0.500000 2.563223
v 6.422691 1.196218 3.379476
v 6.422691 0.067362 2.563223
v 6.422691 0.067362 3.379476
v 6.422691 0.500000 3.379476
v 6.901459 1.727753 2.971349
v 6.901459 1.727753 3.614544
v 5.811752 1.727753 1.286646
v 6.901459 1.727753 1.286646
v 4.722045 1.727753 1.286646
v 6.211473 1.727753 3.614543
v 4.722045 1.727753 1.334565
v 4.722045 1.727753 2.563223
v 4.722045 1.727753 2.385204
v 4.722046 1.727752 3.379476
v 4.722046 1.727753 3.517505
v 4.722046 1.727753 3.614543
v 6.211473 0.500000 3.517505
v 6.211473 1.196218 3.517504
v 6.211473 1.434826 3.517504
v 4.722045 0.500000 2.385204
v 4.722045 0.500000 1.767286
v 4.722045 0.500000 1.334565
v 4.722045 1.196218 1.334565
v 4.722045 1.196218 2.385204
v 4.943002 1.050417 2.239403
v 4.943001 0.645801 1.767286
v 4.943001 1.050417 1.480366
v 4.943002 0.645801 2.239403
v 4.943001 0.645801 1.480366
v 6.706623 2.053387 4.278491
v 6.787033 1.918998 4.296967
v 6.211473 2.053387 4.278491
v 6.211473 1.918998 4.296966
v 4.836473 1.918998 4.296966
v 4.916882 2.053387 4.278491
v 6.422691 1.196217 2.563223
v 4.831635 0.500000 2.270219
v 4.831635 0.067362 2.270219
v 6.422691 0.500000 2.270219
v 4.831635 1.196217 2.270219
v 6.422691 1.196217 2.270219
v 6.422691 0.067362 2.270219
vt 0.375000 0.875000
vt 0.375000 1.000000
vt 0.375000 0.750000
vt 0.375000 0.500000
vt 0.388331 0.506666
vt 0.388331 0.743334
vt 0.757743 0.658925
vt 0.783690 0.549750
vt 0.783690 0.700250
vt 0.742257 0.658925
vt 0.716310 0.549750
vt 0.742257 0.591075
vt 0.375000 0.000000
vt 0.375000 0.250000
vt 0.375000 0.000000
vt 0.375000 0.750000
vt 0.375000 0.500000
vt 0.757743 0.591075
vt 0.716310 0.700250
vt 0.375000 0.125000
vt 0.783690 0.549750
vt 0.716310 0.549750
vt 0.716310 0.700250
vt 0.375000 1.000000
vt 0.783690 0.700250
vt 0.593750 0.748334
vt 0.531250 0.745001
vt 0.531250 0.745001
vt 0.593750 0.748334
vt 0.611669 0.506666
vt 0.611669 0.506666
vt 0.611669 0.743334
vt 0.611669 0.743334
vt 0.381666 0.503333
vt 0.500000 0.743334
vt 0.500000 0.743334
vt 0.375000 0.375000
vt 0.375000 0.375000
vt 0.375000 0.250000
vt 0.375000 0.250000
vt 0.625000 0.125000
vt 0.625000 0.125000
vt 0.625000 0.000000
vt 0.625000 0.000000
vt 0.611669 0.506666
vt 0.611669 0.743334
vt 0.611669 0.743334
vt 0.611669 0.506666
vt 0.625000 1.000000
vt 0.625000 1.000000
vt 0.625000 0.875000
vt 0.625000 0.875000
vt 0.375000 0.375000
vt 0.375000 0.250000
vt 0.625000 0.000000
vt 0.625000 0.125000
vt 0.500000 0.125000
vt 0.500000 0.000000
vt 0.625000 0.750000
vt 0.375000 0.750000
vt 0.375000 1.000000
vt 0.625000 1.000000
vt 0.375000 0.500000
vt 0.125000 0.500000
vt 0.125000 0.750000
vt 0.500000 0.506666
vt 0.500000 0.506666
vt 0.437500 0.503333
vt 0.437500 0.503333
vt 0.500000 0.506666
vt 0.500000 0.506666
vt 0.437500 0.503333
vt 0.437500 0.503333
vt 0.500000 0.506666
vt 0.388331 0.506666
vt 0.625000 0.750000
vt 0.625000 0.875000
vt 0.500000 0.875000
vt 0.500000 0.750000
vt 0.500000 0.250000
vt 0.375000 0.250000
vt 0.625000 0.250000
vt 0.375000 0.250000
vt 0.375000 0.000000
vt 0.375000 0.750000
vt 0.375000 0.500000
vt 0.381666 0.746667
vt 0.875000 0.500000
vt 0.625000 0.500000
vt 0.875000 0.750000
vt 0.625000 0.250000
vt 0.375000 0.250000
vt 0.625000 0.000000
vt 0.375000 0.000000
vt 0.375000 0.250000
vt 0.375000 0.500000
vt 0.562500 0.746667
vt 0.593750 0.748334
vt 0.375000 0.500000
vt 0.500000 0.743334
vt 0.531250 0.745001
vt 0.388331 0.743334
vt 0.388331 0.506666
vt 0.388331 0.743334
vt 0.625000 0.750000
vt 0.500000 0.743334
vt 0.625000 0.250000
vt 0.625000 1.000000
vt 0.625000 0.750000
vt 0.625000 0.250000
vt 0.375000 1.000000
vt 0.500000 1.000000
vt 0.437500 0.503333
vt 0.437500 0.503333
vt 0.531250 0.745001
vt 0.500000 0.743334
vt 0.625000 0.875000
vt 0.625000 0.750000
vt 0.625000 0.250000
vt 0.625000 0.125000
vt 0.593750 0.748334
vt 0.375000 0.375000
vt 0.375000 0.250000
vt 0.625000 1.000000
vt 0.000000 0.000000
vt 0.000000 0.000000
vt 0.000000 0.000000
vt 0.625000 0.000000
vt 0.000000 0.000000
vt 0.000000 0.000000
vt 0.000000 0.000000
vt 0.000000 0.000000
vt 0.000000 0.000000
vt 0.000000 0.000000
vt 0.000000 0.000000
vt 0.000000 0.000000
vt 0.000000 0.000000
vt 0.000000 0.000000
vt 0.000000 0.000000
vt 0.000000 0.000000
vt 0.000000 0.000000
vt 0.000000 0.000000
vt 0.000000 0.000000
vt 0.000000 0.000000
vt 0.000000 0.000000
vt 0.000000 0.000000
vt 0.000000 0.000000
vt 0.000000 0.000000
vt 0.000000 0.000000
vt 0.000000 0.000000
vt 0.000000 0.000000
vt 0.000000 0.000000
vt 0.000000 0.000000
vt 0.000000 0.000000
vt 0.000000 0.000000
vt 0.000000 0.000000
vt 0.388331 0.743334
vt 0.500000 0.743334
vt 0.375000 0.375000
vt 0.375000 0.375000
vt 0.375000 0.375000
vt 0.000000 0.000000
vt 0.000000 0.000000
vt 0.000000 0.000000
vt 0.000000 0.000000
vt 0.000000 0.000000
vt 0.000000 0.000000
vt 0.000000 0.000000
vt 0.000000 0.000000
vt 0.000000 0.000000
vt 0.000000 0.000000
vt 0.000000 0.000000
vt 0.000000 0.000000
vt 0.000000 0.000000
vt 0.000000 0.000000
vt 0.000000 0.000000
vt 0.611669 0.743334
vt 0.000000 0.000000
vt 0.000000 0.000000
vt 0.000000 0.000000
vt 0.611669 0.506666
vt 0.500000 0.506666
vt 0.000000 0.000000
vt 0.000000 0.000000
vt 0.000000 0.000000
vt 0.611669 0.743334
vt 0.388331 0.743334
vt 0.500000 0.743334
vt 0.611669 0.743334
vt 0.000000 0.000000
vt 0.000000 0.000000
vt 0.000000 0.000000
vn 0.0000 0.9999 0.0140
vn -1.0000 0.0000 0.0000
vn 0.0000 1.0000 0.0000
vn -0.0339 0.9994 0.0000
vn 0.0339 0.9994 -0.0000
vn 0.0000 0.0000 1.0000
vn 1.0000 0.0000 0.0000
vn 0.0000 -1.0000 0.0000
vn -0.0000 0.0000 -1.0000
vn -0.0000 1.0000 -0.0078
vn -0.0000 -0.9629 0.2698
vn -0.0000 -0.3469 -0.9379
vn 0.8581 0.5134 -0.0000
vn -0.8581 0.5134 0.0000
vn -0.0000 0.1362 0.9907
usemtl None
s off
f 49/1/1 38/2/1 40/3/1
f 16/4/2 7/5/2 5/6/2
f 12/7/3 32/8/3 31/9/3
f 15/10/3 33/11/3 14/12/3
f 1/13/4 37/14/4 38/15/4
f 17/16/5 39/17/5 16/4/5
f 5/6/2 17/16/2 16/4/2
f 12/7/3 13/18/3 32/8/3
f 15/10/3 34/19/3 33/11/3
f 45/20/4 37/14/4 1/13/4
f 17/16/5 40/3/5 39/17/5
f 4/21/6 32/8/6 33/11/6 8/22/6
f 8/22/2 33/11/2 34/19/2 6/23/2
f 40/3/1 17/16/1 49/1/1
f 49/1/1 1/24/1 38/2/1
f 2/25/7 31/9/7 32/8/7 4/21/7
f 117/26/2 118/27/2 81/28/2 80/29/2
f 19/30/8 11/31/8 68/32/8 22/33/8
f 16/4/2 35/34/2 7/5/2
f 81/28/2 118/27/2 68/35/2 79/36/2
f 72/37/6 62/38/6 10/39/6 64/40/6
f 77/41/7 66/42/7 63/43/7 74/44/7
f 108/45/2 106/46/2 79/47/2 73/48/2
f 74/49/9 63/50/9 67/51/9 78/52/9
f 83/53/6 72/37/6 64/40/6 75/54/6
f 9/55/7 47/56/7 51/57/7 46/58/7
f 28/59/6 27/60/6 23/61/6 24/62/6
f 66/42/7 47/56/7 9/55/7 63/43/7
f 29/63/3 25/64/3 23/65/3 27/60/3
f 11/66/2 54/67/2 61/68/2 71/69/2
f 108/70/2 73/71/2 82/72/2 109/73/2
f 54/67/9 48/74/9 20/75/9 7/5/9
f 18/76/9 50/77/9 52/78/9 36/79/9
f 36/79/9 52/78/9 49/1/9 17/16/9
f 34/19/3 15/10/3 12/7/3 31/9/3
f 51/57/7 53/80/7 3/81/7 45/20/7
f 51/57/7 47/56/7 10/82/7 53/80/7
f 6/23/9 34/19/9 31/9/9 2/25/9
f 32/8/3 13/18/3 14/12/3 33/11/3
f 37/14/7 41/83/7 42/84/7 38/15/7
f 40/3/2 44/85/2 43/86/2 39/17/2
f 5/6/2 36/87/2 17/16/2
f 45/20/4 3/81/4 37/14/4
f 46/58/7 51/57/7 45/20/7 1/13/7
f 26/88/8 30/89/8 28/59/8 24/90/8
f 26/91/9 25/92/9 29/63/9 30/89/9
f 24/93/2 23/94/2 25/92/2 26/91/2
f 53/95/6 10/39/6 62/38/6
f 11/31/9 19/30/9 48/74/9 54/67/9
f 3/81/6 53/95/6 35/96/6 16/4/6
f 115/97/2 116/98/2 36/79/2
f 61/68/2 54/67/2 7/5/2
f 56/99/6 35/96/6 62/38/6
f 35/96/6 53/95/6 62/38/6
f 116/98/2 18/76/2 36/79/2
f 36/79/2 5/6/2 115/97/2
f 5/6/2 55/100/2 114/101/2
f 114/101/2 115/97/2 5/6/2
f 7/5/2 35/96/2 61/68/2
f 35/96/2 56/99/2 61/68/2
f 21/102/3 20/75/3 97/103/3 96/104/3
f 5/6/3 7/5/3 20/75/3 21/102/3
f 65/105/2 18/76/2 116/98/2 117/26/2
f 67/51/9 50/77/9 18/76/9 65/105/9
f 55/100/6 5/6/6 21/102/6 57/106/6
f 64/107/7 10/82/7 47/56/7 66/42/7
f 63/50/9 9/108/9 50/77/9 67/51/9
f 118/27/2 114/101/2 55/100/2 68/35/2
f 30/89/7 29/63/7 27/60/7 28/59/7
f 55/100/6 57/106/6 22/33/6 68/32/6
f 78/52/9 67/51/9 65/105/9 76/109/9
f 75/110/7 64/107/7 66/42/7 77/41/7
f 38/2/9 42/111/9 44/85/9 40/3/9
f 76/109/2 65/105/2 117/26/2 80/29/2
f 50/77/9 9/108/9 46/112/9 52/78/9
f 52/78/9 46/112/9 1/24/9 49/1/9
f 39/17/6 43/86/6 41/83/6 37/14/6
f 109/73/2 82/72/2 84/113/2 110/114/2
f 107/115/2 81/28/2 79/36/2 106/116/2
f 101/117/9 78/52/9 76/109/9 103/118/9
f 73/48/2 79/47/2 68/32/2 11/31/2
f 100/119/7 75/110/7 77/41/7 99/120/7
f 105/121/2 80/29/2 81/28/2 107/115/2
f 104/122/6 83/53/6 75/54/6 100/123/6
f 102/124/9 74/49/9 78/52/9 101/117/9
f 73/71/2 11/66/2 71/69/2 82/72/2
f 110/114/6 84/113/6 83/53/6 104/122/6
f 103/118/2 76/109/2 80/29/2 105/121/2
f 14/125/3 12/126/3 15/127/3
f 37/14/10 3/81/10 16/4/10 39/17/10
f 99/120/7 77/41/7 74/44/7 102/128/7
f 14/125/3 13/129/3 12/126/3
f 125/130/11 127/131/11 104/132/11 100/133/11
f 86/134/3 89/135/3 88/136/3
f 93/137/3 129/138/3 126/139/3
f 89/135/3 92/140/3 88/136/3
f 93/137/3 88/136/3 85/141/3
f 87/142/3 91/143/3 89/135/3
f 85/141/3 88/136/3 90/144/3
f 89/135/3 91/143/3 92/140/3
f 127/131/11 128/145/11 110/146/11 104/132/11
f 88/136/3 92/140/3 90/144/3
f 126/139/3 124/147/3 88/136/3
f 89/135/12 86/134/12 102/148/12 101/149/12
f 86/134/13 88/136/13 99/150/13 102/148/13
f 87/142/12 89/135/12 101/149/12 103/151/12
f 126/139/3 88/136/3 93/137/3
f 91/143/14 87/142/14 103/151/14 105/152/14
f 90/144/14 92/140/14 107/153/14 106/154/14
f 85/141/14 90/144/14 106/154/14 108/155/14
f 93/137/14 85/141/14 108/155/14 109/156/14
f 92/140/14 91/143/14 105/152/14 107/153/14
f 57/106/7 21/102/7 132/157/7 131/158/7
f 128/145/14 129/138/14 93/137/14 109/156/14 110/146/14
f 72/37/2 83/53/2 113/159/2 112/160/2
f 62/38/2 72/37/2 112/160/2 111/161/2
f 111/161/6 112/160/6 71/69/6 61/68/6
f 112/160/6 113/159/6 82/72/6 71/69/6
f 82/72/8 113/159/8 83/53/8 84/113/8
f 111/161/3 61/68/3 56/99/3 62/38/3
f 58/162/3 60/163/3 122/164/3 120/165/3
f 69/166/6 59/167/6 123/168/6 121/169/6
f 70/170/8 69/166/8 121/169/8 119/171/8
f 60/163/2 58/162/2 115/172/2 114/173/2
f 58/162/2 59/167/2 116/174/2 115/172/2
f 59/167/2 69/166/2 117/175/2 116/174/2
f 70/170/2 60/163/2 114/173/2 118/176/2
f 69/166/2 70/170/2 118/176/2 117/175/2
f 119/171/2 120/165/2 122/164/2
f 119/171/2 121/169/2 120/165/2
f 121/169/2 123/168/2 120/165/2
f 60/163/9 70/170/9 119/171/9 122/164/9
f 59/167/3 58/162/3 120/165/3 123/168/3
f 127/131/15 125/130/15 124/147/15 126/139/15
f 126/139/15 129/138/15 128/145/15 127/131/15
f 88/136/13 124/147/13 125/130/13 100/133/13 99/150/13
f 22/33/7 57/106/7 131/158/7 134/177/7
f 98/178/2 96/179/2 97/180/2
f 48/74/9 19/30/9 95/181/9 98/182/9
f 98/178/2 94/183/2 96/179/2
f 95/184/2 130/185/2 98/178/2
f 130/185/2 94/183/2 98/178/2
f 19/30/8 22/33/8 130/186/8 95/181/8
f 20/75/9 48/74/9 98/182/9 97/103/9
f 131/158/6 132/157/6 136/187/6 133/188/6
f 134/177/6 131/158/6 133/188/6 135/189/6
f 21/102/3 96/104/3 136/187/3 132/157/3
f 96/179/2 94/183/2 133/190/2 136/191/2
f 130/186/8 22/33/8 134/177/8 135/189/8
f 94/183/2 130/185/2 135/192/2 133/190/2
